<svg width="41" height="41" viewBox="0 0 41 41" fill="none" xmlns="http://www.w3.org/2000/svg">
<path d="M13.8397 16.0455V25.5H11.8408V17.9428H11.7854L9.62024 19.3001V17.5273L11.9608 16.0455H13.8397ZM19.6138 25.6293C18.9028 25.6293 18.2704 25.5138 17.7164 25.283C17.1655 25.0491 16.7331 24.7306 16.4192 24.3274C16.1052 23.9242 15.9483 23.4672 15.9483 22.9563C15.9483 22.5624 16.0375 22.2008 16.216 21.8714C16.3976 21.5391 16.6438 21.2636 16.9547 21.0451C17.2655 20.8235 17.6133 20.6819 17.998 20.6204V20.5558C17.4933 20.4542 17.0839 20.2095 16.77 19.8217C16.4561 19.4309 16.2991 18.9769 16.2991 18.4599C16.2991 17.9705 16.4422 17.535 16.7285 17.1534C17.0147 16.7687 17.4071 16.4671 17.9057 16.2486C18.4073 16.027 18.9767 15.9162 19.6138 15.9162C20.2508 15.9162 20.8187 16.027 21.3172 16.2486C21.8189 16.4702 22.2128 16.7733 22.4991 17.158C22.7853 17.5397 22.9299 17.9736 22.933 18.4599C22.9299 18.98 22.7699 19.4339 22.4529 19.8217C22.1359 20.2095 21.7296 20.4542 21.2341 20.5558V20.6204C21.6127 20.6819 21.9559 20.8235 22.2636 21.0451C22.5745 21.2636 22.8207 21.5391 23.0023 21.8714C23.1869 22.2008 23.2808 22.5624 23.2839 22.9563C23.2808 23.4672 23.1223 23.9242 22.8084 24.3274C22.4944 24.7306 22.0605 25.0491 21.5065 25.283C20.9556 25.5138 20.3247 25.6293 19.6138 25.6293ZM19.6138 24.1612C19.9308 24.1612 20.2077 24.1043 20.4447 23.9904C20.6817 23.8735 20.8664 23.7134 20.9987 23.5103C21.1341 23.3041 21.2018 23.0671 21.2018 22.7994C21.2018 22.5254 21.1326 22.2839 20.9941 22.0746C20.8556 21.8622 20.6679 21.696 20.4309 21.576C20.1939 21.4529 19.9215 21.3913 19.6138 21.3913C19.3091 21.3913 19.0367 21.4529 18.7966 21.576C18.5566 21.696 18.3673 21.8622 18.2288 22.0746C18.0934 22.2839 18.0257 22.5254 18.0257 22.7994C18.0257 23.0671 18.0919 23.3041 18.2242 23.5103C18.3565 23.7134 18.5427 23.8735 18.7828 23.9904C19.0228 24.1043 19.2998 24.1612 19.6138 24.1612ZM19.6138 19.9371C19.8784 19.9371 20.1139 19.8833 20.3201 19.7756C20.5263 19.6679 20.6879 19.5186 20.8048 19.3278C20.9218 19.137 20.9802 18.9169 20.9802 18.6676C20.9802 18.4214 20.9218 18.206 20.8048 18.0213C20.6879 17.8336 20.5278 17.6874 20.3247 17.5827C20.1216 17.475 19.8846 17.4212 19.6138 17.4212C19.346 17.4212 19.109 17.475 18.9028 17.5827C18.6966 17.6874 18.535 17.8336 18.4181 18.0213C18.3042 18.206 18.2473 18.4214 18.2473 18.6676C18.2473 18.9169 18.3058 19.137 18.4227 19.3278C18.5397 19.5186 18.7012 19.6679 18.9074 19.7756C19.1136 19.8833 19.3491 19.9371 19.6138 19.9371ZM27.5068 24.0597V17.5227H29.1595V24.0597H27.5068ZM25.0647 21.6175V19.9648H31.6016V21.6175H25.0647Z" fill="#868686"/>
<path opacity="0.4" d="M38.9601 20.5C38.9601 30.4411 30.9012 38.5 20.9601 38.5C11.019 38.5 2.96008 30.4411 2.96008 20.5C2.96008 10.5589 11.019 2.5 20.9601 2.5C30.9012 2.5 38.9601 10.5589 38.9601 20.5Z" stroke="#868686" stroke-width="4"/>
</svg>
