<svg xmlns="http://www.w3.org/2000/svg" xmlns:xlink="http://www.w3.org/1999/xlink" width="196.205" height="217.876" viewBox="0 0 196.205 217.876">
  <defs>
    <linearGradient id="linear-gradient" x1="0.851" y1="0.7" x2="0.941" y2="0.032" gradientUnits="objectBoundingBox">
      <stop offset="0" stop-color="#8b5b3d"/>
      <stop offset="1" stop-color="#3d1307"/>
    </linearGradient>
    <linearGradient id="linear-gradient-3" x1="0.984" y1="-0.041" x2="0.928" y2="0.814" gradientUnits="objectBoundingBox">
      <stop offset="0" stop-color="#003e10"/>
      <stop offset="0.88" stop-color="#378b3f"/>
      <stop offset="1" stop-color="#3e9645"/>
    </linearGradient>
    <linearGradient id="linear-gradient-4" x1="0.529" y1="0.083" x2="0.473" y2="0.94" xlink:href="#linear-gradient-3"/>
    <linearGradient id="linear-gradient-5" x1="0.5" y1="0.018" x2="0.5" y2="0.995" gradientUnits="objectBoundingBox">
      <stop offset="0" stop-color="#002600"/>
      <stop offset="0.7" stop-color="#2b7330"/>
      <stop offset="1" stop-color="#3e9645"/>
    </linearGradient>
    <linearGradient id="linear-gradient-6" x1="0.418" y1="-0.093" x2="0.352" y2="1.165" gradientUnits="objectBoundingBox">
      <stop offset="0" stop-color="#e17e5a"/>
      <stop offset="1" stop-color="#f5bd80"/>
    </linearGradient>
    <linearGradient id="linear-gradient-7" x1="0.873" y1="0.825" x2="0.5" y2="0.398" gradientUnits="objectBoundingBox">
      <stop offset="0" stop-color="#f8a53f"/>
      <stop offset="1" stop-color="#f75a05"/>
    </linearGradient>
    <linearGradient id="linear-gradient-8" x1="1.17" y1="1.891" x2="0.416" y2="0.679" xlink:href="#linear-gradient-6"/>
    <linearGradient id="linear-gradient-9" x1="0.608" y1="0.41" x2="0.573" y2="0.98" gradientUnits="objectBoundingBox">
      <stop offset="0" stop-color="#262c4a"/>
      <stop offset="1"/>
    </linearGradient>
    <linearGradient id="linear-gradient-10" x1="0.069" y1="0.548" x2="0.855" y2="0.462" xlink:href="#linear-gradient-6"/>
    <linearGradient id="linear-gradient-11" x1="1" y1="0.553" x2="0.6" y2="0.576" gradientUnits="objectBoundingBox">
      <stop offset="0" stop-color="#e5e6e7"/>
      <stop offset="1" stop-color="#fff"/>
    </linearGradient>
    <linearGradient id="linear-gradient-12" x1="1.331" y1="0.537" x2="0.283" y2="0.587" xlink:href="#linear-gradient-11"/>
    <linearGradient id="linear-gradient-13" x1="0.891" y1="0.696" x2="1.624" y2="1.237" xlink:href="#linear-gradient-9"/>
    <linearGradient id="linear-gradient-15" x1="0.5" y1="0" x2="0.662" y2="1.113" xlink:href="#linear-gradient-6"/>
    <clipPath id="clip-path">
      <path id="Path_7033" data-name="Path 7033" d="M333.741,269.973c2.8,4.2,3.58,12.919,3.58,12.919s-9.729-6.771-11.285-10.9c-1.557-4.2-4.436-11.6-4.436-11.6S330.395,264.914,333.741,269.973Z" transform="translate(-321.6 -260.4)"/>
    </clipPath>
    <linearGradient id="linear-gradient-16" x1="0.66" y1="0.042" x2="0.466" y2="0.592" xlink:href="#linear-gradient-6"/>
    <clipPath id="clip-path-2">
      <path id="Path_7035" data-name="Path 7035" d="M275.53,209.811c5.681,3.269,5.6,15.643,5.6,15.643,6.382-2.1,14.554-14.787,14.476-12.919l1.868,5.993c6.849-6.615,5.292-24.282.7-25.528,0,0,3.814,10.118-.7,18.679,0,0-1.557-8.016-4.047-11.908,0,0-2.491,6.538-5.448,10.118C286.115,212.146,279.966,210.978,275.53,209.811Z" transform="translate(-275.53 -193)" fill="url(#linear-gradient)"/>
    </clipPath>
    <clipPath id="clip-path-3">
      <path id="Path_7036" data-name="Path 7036" d="M340.341,235.471c5.292,7.316,10.9,21.091,10.9,21.091l5.059-.311v-.623c.156-4.281,1.868-7.316,1.09-12.919s-3.891-9.417-1.634-12.452a5.082,5.082,0,0,1,.934-.856h-1.868c-.311,1.946-3.113,4.125-6.3,5.6a12.062,12.062,0,0,1-8.172.467" transform="translate(-340.341 -229.4)" fill="url(#linear-gradient)"/>
    </clipPath>
    <linearGradient id="linear-gradient-20" x1="0.582" y1="-0.042" x2="0.588" y2="1.087" xlink:href="#linear-gradient-6"/>
    <linearGradient id="linear-gradient-21" x1="0.5" y1="1.114" x2="0.664" y2="0.347" xlink:href="#linear-gradient-6"/>
    <linearGradient id="linear-gradient-22" x1="1.065" y1="0.159" x2="0" y2="1.208" xlink:href="#linear-gradient-6"/>
    <linearGradient id="linear-gradient-23" x1="0.851" y1="0.7" x2="0.429" y2="-0.255" xlink:href="#linear-gradient"/>
    <linearGradient id="linear-gradient-24" x1="0.701" y1="0.262" x2="0.632" y2="0.931" xlink:href="#linear-gradient-6"/>
    <clipPath id="clip-path-4">
      <path id="Path_6754" data-name="Path 6754" d="M16.472,20.621a.479.479,0,0,0,.56-.387c.764-3.952,1.976-8.27,1.884-10.388a25.919,25.919,0,0,0-1.293-5.184c-.367-1.314-1.242-3.31-1.64-4.288A.591.591,0,0,0,15.29.018a36.9,36.9,0,0,0-4.552,1.334C9.719,1.708,2.213,4.906.676,8.542c-1.018,2.434-1.018,4.216.927,6.243C4.984,18.278,14.262,20.2,16.472,20.621Z" transform="translate(0 0)" fill="url(#linear-gradient-3)"/>
    </clipPath>
    <clipPath id="clip-path-5">
      <path id="Path_6753" data-name="Path 6753" d="M16.492,20.715a.489.489,0,0,0,.57-.387c.764-3.952,1.976-8.27,1.884-10.388a25.92,25.92,0,0,0-1.293-5.184C17.215,3.167,16.023.581,15.83,0a36.979,36.979,0,0,0-5.092,1.446C9.719,1.8,2.213,5,.676,8.636-.343,11.07-.343,12.853,1.6,14.879,5,18.373,14.282,20.3,16.492,20.715Z" fill="none"/>
    </clipPath>
    <linearGradient id="linear-gradient-26" x1="-4.314" y1="1.192" x2="-4.302" y2="0.504" gradientUnits="objectBoundingBox">
      <stop offset="0.19" stop-color="#ffcf8c"/>
      <stop offset="0.34" stop-color="#e4775c"/>
      <stop offset="0.51" stop-color="#ffcf8c"/>
      <stop offset="0.69" stop-color="#e4775c"/>
      <stop offset="0.82" stop-color="#ffcf8c"/>
    </linearGradient>
    <linearGradient id="linear-gradient-28" x1="-0.399" y1="0.744" x2="0.899" y2="0.628" gradientUnits="objectBoundingBox">
      <stop offset="0"/>
      <stop offset="1" stop-opacity="0"/>
    </linearGradient>
    <linearGradient id="linear-gradient-30" x1="1.339" y1="0.718" x2="0.101" y2="0.628" xlink:href="#linear-gradient-28"/>
    <clipPath id="clip-path-6">
      <path id="Path_6758" data-name="Path 6758" d="M2.45,20.579a.479.479,0,0,1-.56-.387C1.116,16.241-.1,11.923.006,9.8A26.611,26.611,0,0,1,1.289,4.621,44.251,44.251,0,0,1,2.939.374.581.581,0,0,1,3.621.017,36.9,36.9,0,0,1,8.174,1.351c1.018.356,8.524,3.554,10.062,7.19,1.018,2.434,1.018,4.216-.917,6.243C13.938,18.237,4.66,20.162,2.45,20.579Z" transform="translate(0 0)" fill="url(#linear-gradient-4)"/>
    </clipPath>
    <clipPath id="clip-path-7">
      <path id="Path_6757" data-name="Path 6757" d="M2.45,20.715a.479.479,0,0,1-.56-.387C1.116,16.376-.1,12.058.006,9.94A26.611,26.611,0,0,1,1.289,4.756C1.737,3.167,2.929.581,3.122,0A36.665,36.665,0,0,1,8.215,1.446C9.233,1.8,16.739,5,18.277,8.636c1.018,2.434,1.018,4.216-.917,6.243C13.938,18.373,4.66,20.3,2.45,20.715Z" fill="none"/>
    </clipPath>
    <linearGradient id="linear-gradient-32" x1="-4.737" y1="1.363" x2="-4.724" y2="0.674" xlink:href="#linear-gradient-26"/>
    <clipPath id="clip-path-8">
      <path id="Path_6761" data-name="Path 6761" d="M5.581,8.478a7.536,7.536,0,0,1-5.438,0L0,8.427S.336.473.336.453c.244-.682,4.98-.519,5.041,0l.346,7.974Z" transform="translate(0 0)" fill="url(#linear-gradient-5)"/>
    </clipPath>
    <linearGradient id="linear-gradient-34" x1="0.506" y1="0.957" x2="0.506" y2="-0.009" gradientUnits="objectBoundingBox">
      <stop offset="0" stop-color="#ffdaae"/>
      <stop offset="0.15" stop-color="#ffd5aa"/>
      <stop offset="0.34" stop-color="#ffc59f"/>
      <stop offset="0.55" stop-color="#ffac8d"/>
      <stop offset="0.78" stop-color="#ff8974"/>
      <stop offset="1" stop-color="#ff5e55"/>
    </linearGradient>
    <linearGradient id="linear-gradient-35" x1="-0.478" y1="-0.022" x2="0.573" y2="0.98" xlink:href="#linear-gradient-9"/>
    <clipPath id="clip-path-9">
      <path id="Path_6883" data-name="Path 6883" d="M114.333,74.045a14.479,14.479,0,0,1-11.455,2.563c-7.049-1.2-8.971-4.806-8.971-4.806s-1.362-7.85-.481-9.212l5.607-4.646L112.651,54.1C115.054,56.583,119.219,71.882,114.333,74.045Z" transform="translate(-93.13 -54.1)" fill="url(#linear-gradient-6)"/>
    </clipPath>
    <linearGradient id="linear-gradient-37" x1="0.059" y1="0.848" x2="0.739" y2="-0.03" xlink:href="#linear-gradient"/>
  </defs>
  <g id="_5steps-oringe" data-name="5steps-oringe" transform="translate(0.5)">
    <g id="Group_5984" data-name="Group 5984" transform="translate(0 0)">
      <circle id="Ellipse_192" data-name="Ellipse 192" cx="97.602" cy="97.602" r="97.602" transform="translate(0 22.172)" stroke="rgba(0,0,0,0)" stroke-miterlimit="10" stroke-width="1" fill="url(#linear-gradient-7)"/>
      <path id="Intersection_54" data-name="Intersection 54" d="M47.557,211.639c-1.252-8.134-4.323-16.5-7.166-22.972A96.412,96.412,0,0,0,31.2,173c-.027.075-.043.113-.043.113s-7.649,4.955-11.923,22.559A98.159,98.159,0,0,1,0,174.824a160.493,160.493,0,0,1,13.444-44.318l-.078-.195c1.708-.731,4.393-2.086,7.98-4.03,2.868-1.554,6.317-3.486,10.249-5.741,5.991-3.435,11.273-6.572,12.392-7.238l3.173-6.126v0h0a1.2,1.2,0,0,0,.034.2c.791-3.926,1.6-9.8,2.1-13.745a34.872,34.872,0,0,1-3.534-12.988v0s.049-.059.133-.18l-.087-.235a4.366,4.366,0,0,1-1.6.573c-6.139.921-12.506-13.67-10.071-19.152.518-1.5,1.594-3.5,3.714-3.949-2.009-4.559-5.8-12.65-9.439-17.684,0,0,.093.032.265.08l-.42-.7C23.5,27.327,30.041,27.327,56.736,15.5,66.62,9.582,80.085-2.948,92.693.632c2.9.849,4.384,10.42,3.286,18.937a21.282,21.282,0,0,1-2.938,9.617,10.18,10.18,0,0,1-1.516,1.955L91.5,31.09l-.049.047q.248.728.467,1.481s-.109.928-.241,2.364a1.882,1.882,0,0,0,.319.048c-.078,1.634-.156,3.347-.233,5.059l-.447.007q-.018.371-.032.746c-.026.694-.043,1.394-.048,2.084a.642.642,0,0,1,.368.122c.124.123-.059.513-.365.988a18.475,18.475,0,0,0,.676,5.55c.311.7.7,1.4,1.09,2.1a2.5,2.5,0,0,0,.311.545l-.028.047c1.952,2.966,4.819,5.9,5.635,8.047.331.943.446,4.357.176,9.025q.084-.462.151-.972c-.036,2.846.061,12.572.061,12.572-.778,8.405-7.783,23.582-7.783,23.582h0l0,0c-1.835,1.433-4.911,2.251-8.167,2.705.593,1.573,1.208,2.97,1.747,4.1a55,55,0,0,1,9.462-4.832.479.479,0,0,1,.624.273c1.514,3.731,3.528,7.739,3.832,9.838a26.613,26.613,0,0,1-.109,4.075,31.844,31.844,0,0,0,6.215,2.51q.506.024,1.03,0l.178.337a57.7,57.7,0,0,0,10.017,1.687h0s1.09-.234,2.024,1.479c4.358,8.25,17.2,33.077,26.228,31.754,11.051-1.634,16.188-21.714,14.787-39.77-1.227-15.886-1.917-20.6-2.069-21.528l-.57.309c-1.569.942-6.591.628-8.787-1.569-2.511-2.2-2.825-5.336-3.766-6.277-1.569-1.569-5.022-.628-7.219,0s-2.2-1.883.942-4.08a5.868,5.868,0,0,1,7.532.627c1.255,1.57,3.139,2.511,4.08,1.57s-.628-4.08-1.569-5.022c-.942-1.255-6.591-7.846-8.16-10.357-1.569-2.2-.942-3.453-.628-3.453a3.069,3.069,0,0,1,3.452.628c1.883,1.883,5.336,7.532,6.9,10.357s2.2,2.2,2.825,1.883c.942-.314,0-2.511,0-2.511s-3.138-12.554-3.452-13.182-.628-4.708.942-5.022,3.452,1.883,4.08,4.708,1.2,8.291,1.569,10.985.628,2.824,1.883,2.824,1.569-1.569,1.569-1.569,1.883-7.218,2.825-10.357,1.883-6.591,3.766-5.336.928,4.145.735,5.611c-.4,1.542-3.246,10.4-3.56,11.964a1.462,1.462,0,0,0,.942,1.883s5.336-4.08,6.277-5.335,3.452-3.139,4.08-1.569-.942,3.766-.942,3.766-5.022,5.022-6.277,5.963-1.255,1.883-.628,4.394c.314,2.2-1.883,4.394-1.883,4.394l-2.156,1.168c.073,0,.146,0,.22,0,0,0,11.285,27.4,12.686,40.159,1.4,12.686,2.958,53.157-22.882,56.659-15.678,2.172-24.164-1.128-28.414-4.06.05,6.689.039,13.451-.007,20.029a97.921,97.921,0,0,1-76.176,4.282ZM91.4,31l-.052-.165-.015-.026Zm7.906,36.872q-.029.257-.061.5C99.256,67.624,99.274,67.353,99.307,67.875Z" transform="translate(16.995 0)" opacity="0.2"/>
      <path id="Path_8030" data-name="Path 8030" d="M341.226,407.127l7.532-4.08s2.2-2.2,1.883-4.394c-.628-2.511-.628-3.452.628-4.394s6.277-5.963,6.277-5.963,1.569-2.2.942-3.766-3.139.314-4.08,1.569-6.277,5.335-6.277,5.335a1.462,1.462,0,0,1-.942-1.883c.314-1.569,3.159-10.422,3.56-11.964.193-1.466,1.148-4.356-.735-5.611s-2.825,2.2-3.766,5.336-2.825,10.357-2.825,10.357-.314,1.569-1.569,1.569-1.516-.131-1.883-2.825-.941-8.16-1.569-10.985-2.511-5.022-4.08-4.708-1.255,4.394-.941,5.022,3.452,13.182,3.452,13.182.942,2.2,0,2.511c-.628.314-1.255.942-2.825-1.883s-5.022-8.474-6.9-10.357a3.069,3.069,0,0,0-3.452-.628c-.314,0-.941,1.255.628,3.452,1.569,2.511,7.218,9.1,8.16,10.357.941.942,2.511,4.08,1.569,5.022s-2.825,0-4.08-1.569a5.868,5.868,0,0,0-7.532-.628c-3.138,2.2-3.138,4.708-.941,4.08s5.649-1.569,7.218,0c.942.941,1.255,4.08,3.766,6.277C334.635,407.755,339.656,408.068,341.226,407.127Z" transform="translate(-170.587 -309.649)" fill="url(#linear-gradient-8)"/>
      <path id="Path_7060" data-name="Path 7060" d="M173.257,337.963s1.09-.233,2.024,1.479c4.358,8.25,17.2,33.077,26.228,31.754,11.052-1.634,16.188-21.714,14.787-39.77-1.4-18.134-2.1-21.714-2.1-21.714a5.571,5.571,0,0,1,5.059-2.413s11.285,27.4,12.686,40.159c1.4,12.686,2.957,53.157-22.882,56.659-25.839,3.58-32.143-7.7-32.143-7.7Z" transform="translate(-43.019 -212.729)" fill="url(#linear-gradient-9)"/>
      <path id="Path_7005" data-name="Path 7005" d="M290.671,300.7s-1.634,14.243-3.035,19.846,11.674,27.084,26.617,27.318,13.309-22.181,13.309-22.181a48.558,48.558,0,0,1-5.6-15.643c-1.167-8.172-31.287-9.339-31.287-9.339" transform="translate(-226.977 -211.265)" fill="url(#linear-gradient-10)"/>
      <path id="Path_7007" data-name="Path 7007" d="M262.706,323.5l-3.347,6.46L252.9,375.1l67.244,39.692,9.106-52.067L309.637,332.84l-7.705-2.1s-3.5,9.806-21.247,3.969S262.706,323.5,262.706,323.5" transform="translate(-201.658 -216.323)" fill="url(#linear-gradient-11)"/>
      <path id="Path_7008" data-name="Path 7008" d="M278.206,323.5l-3.347,6.46L268.4,375.1,332.686,413c-5.292-40.782-18.757-68.411-23.271-76.738-3.113.545-7.394.311-13.153-1.634C278.44,328.87,278.206,323.5,278.206,323.5" transform="translate(-217.16 -216.323)" fill-rule="evenodd" fill="url(#linear-gradient-12)"/>
      <path id="Intersection_52" data-name="Intersection 52" d="M8.639,75.338s.044-.25,1.79-19.457C12.219,36.19,0,0,0,0,3.814,5.837,14.787,8.328,22.57,8.95c6.831.561,7.671,45.555,7.373,83.593a96.827,96.827,0,0,1-18.163,6.1A130.287,130.287,0,0,0,8.639,75.338Zm0,0h0Z" transform="translate(107.664 116.285)" fill="url(#linear-gradient-13)"/>
      <path id="Intersection_51" data-name="Intersection 51" d="M33.982,97.2a98.79,98.79,0,0,0-6.958-21.709C23.75,68.034,18.278,60.357,16.078,57.4L0,17.138c1.708-.731,4.393-2.086,7.979-4.03,2.868-1.554,6.317-3.486,10.25-5.741C24.951,3.513,30.781.035,30.839,0a19.9,19.9,0,0,0,.375,2.132,49.889,49.889,0,0,0,1.8,6.108,81.077,81.077,0,0,0,4.256,9.655A116.926,116.926,0,0,0,45,30.664,159.783,159.783,0,0,0,57.365,45.905c4.219,4.7,9.156,9.876,14.674,15.394,9.411,9.411,17.326,16.613,17.4,16.684A6.427,6.427,0,0,1,89.9,79.03a27.928,27.928,0,0,1,1.041,3.877,77.131,77.131,0,0,1,1.128,7.817c.32,3.225.544,6.884.668,10.9A97.913,97.913,0,0,1,70.351,104.2,97.342,97.342,0,0,1,33.982,97.2Z" transform="translate(27.251 113.173)" fill="url(#linear-gradient-9)"/>
      <path id="Path_7013" data-name="Path 7013" d="M272.249,331.2s-2.8,1.712-6.849,4.047l.467,30.509,14.632.934s-5.059,11.986,8.639,20.625c12.53,7.861,36.657,17.278,42.883,26.306a19.139,19.139,0,0,0-1.4-4.592s-31.6-28.719-44.44-47.32c-12.842-18.757-13.931-30.509-13.931-30.509" transform="translate(-214.16 -218.027)" fill-rule="evenodd"/>
      <path id="Path_7014" data-name="Path 7014" d="M262.7,342.127l9.5,17.9-7.472,4.748s11.052,2.724,4.514,19.457a214.458,214.458,0,0,0-9.184,31.131c-.545-2.958-1.012-4.825-1.012-4.825s0,.311,1.79-19.457C262.619,371.39,250.4,335.2,250.4,335.2s4.67,7.238,12.3,6.927" transform="translate(-142.658 -218.915)" fill-rule="evenodd"/>
      <path id="Path_7015" data-name="Path 7015" d="M281.447,323.5l-3.347,6.46,29.5,20.391,6.771-13.075,10.04,8.172,3.969-12.608-7.7-2.1s-3.5,9.806-21.247,3.969S281.447,323.5,281.447,323.5" transform="translate(-220.399 -216.323)" fill="#e5e6e7" fill-rule="evenodd"/>
      <path id="Path_7016" data-name="Path 7016" d="M275.59,374.3a1.79,1.79,0,1,0,1.79,1.79,1.761,1.761,0,0,0-1.79-1.79" transform="translate(-166.056 -227.584)" fill="#808184" fill-rule="evenodd"/>
      <path id="Path_7017" data-name="Path 7017" d="M271.79,391.9a1.79,1.79,0,1,0,1.79,1.79,1.865,1.865,0,0,0-1.79-1.79" transform="translate(-159.3 -231.485)" fill="#808184" fill-rule="evenodd"/>
      <path id="Path_7020" data-name="Path 7020" d="M271.79,446a1.79,1.79,0,1,0,1.79,1.79,1.81,1.81,0,0,0-1.79-1.79" transform="translate(-159.3 -243.484)" fill-rule="evenodd"/>
      <path id="Path_7027" data-name="Path 7027" d="M319.6,207.534a42.58,42.58,0,0,1,8.561,15.332s-1.557,13.231,0,17.122c.311.7.7,1.4,1.09,2.1,1.946,3.113,5.059,6.226,5.915,8.483,1.012,2.88,0,28.8-7.783,43.117,0,0-11.908,3.658-19.768,2.88,0,0-17.667-9.573-21.559-16.655-3.891-7-11.908-33-11.908-33s-5.993-25.216,0-31.209c4.592-4.592,20.313-9.806,34.089-9.806A39.639,39.639,0,0,1,319.6,207.534Z" transform="translate(-222.358 -190.248)" fill="#f5bd80" fill-rule="evenodd"/>
      <path id="Path_7029" data-name="Path 7029" d="M325.349,217.883S308.616,219.6,302,221.074c0,0,.545-10.662,10.118-11.6a8.456,8.456,0,0,1,1.4-.078c8.561,0,11.83,8.483,11.83,8.483" transform="translate(-235.974 -191.024)" fill-rule="evenodd"/>
      <path id="Path_7030" data-name="Path 7030" d="M341.079,186.42h0c4.514,1.323,5.6,23.815-1.167,30.509l-2.257-3.891s-1.79,3.5-7.549,5.837c0,0-6.46-7.472-12.141-10.74a9.527,9.527,0,0,0-4.747-1.479A6.611,6.611,0,0,0,308.7,208.6c-1.712,1.79-1.712,8.95-4.514,10.429-4.436,2.335-10.818-.156-12.063,1.479-2.179,3.035.856,6.849,1.634,12.452s-.934,8.639-1.09,12.919v.623l-2.568-.233a9.086,9.086,0,0,0,2.413,6.3s-4.125-3.035-4.825-5.759a125.573,125.573,0,0,0-11.052-21.636c-4.748-12.063,1.79-12.063,28.485-23.893,9.884-5.915,23.349-18.445,35.957-14.865" transform="translate(-234.501 -185.788)" fill="#3d1307" fill-rule="evenodd"/>
      <path id="Path_7031" data-name="Path 7031" d="M291.458,249.02c-.234.389-.389.7-.234.856,0,0-.233,3.5-.856,4.592s-6.693.778-7.783-.778c-5.059-1.79-4.047-16.889-.545-18.29h5.137l2.335.467c-.233,3.891-.233,8.483.545,10.507.311.7.7,1.4,1.09,2.1a2.5,2.5,0,0,0,.311.545" transform="translate(-184.261 -196.788)" fill="url(#linear-gradient-15)"/>
      <g id="Group_5479" data-name="Group 5479" transform="translate(58.398 58.068)">
        <g id="Group_5478" data-name="Group 5478" transform="translate(0 0)" clip-path="url(#clip-path)">
          <rect id="Rectangle_526" data-name="Rectangle 526" width="15.721" height="22.492" transform="translate(0 0.078)" fill="url(#linear-gradient-16)"/>
        </g>
      </g>
      <path id="Path_7034" data-name="Path 7034" d="M299.574,277.466c-7.705-2.335-10.585.156-8.872,9.417,1.4,7.627,6.615,12.608,10.429,10.429s4.281-2.568,6.148-2.413,4.67,2.024,9.106-.234c4.514-2.257,4.358-10.429,4.358-11.441-.233-8.95-9.262-4.436-13.153-4.281h-.467A31.628,31.628,0,0,1,299.574,277.466ZM271.867,260.5c1.479,2.49,2.335,5.915,4.9,8.795a43.353,43.353,0,0,0,7.549,6.538c1.946,1.4,1.4,1.167,3.5.156,15.877-7.7,9.884,2.1,24.36.078,4.592-.7,4.825.778,8.717,1.09,3.113.233,5.137-1.323,5.759-6.927-.156-2.491,0,13.075,0,13.075-.778,8.405-7.783,23.582-7.783,23.582-5.37,4.2-21.4,3.113-21.4,3.113-20.313-6.927-24.36-27.006-24.36-27.006s1.946-2.335,2.1-7.7-3.814-12.608-3.814-12.608l.467-2.179Z" transform="translate(-213.466 -202.354)" fill="url(#linear-gradient)"/>
      <g id="Group_5483" data-name="Group 5483" transform="translate(83.382 5.613)">
        <g id="Group_5482" data-name="Group 5482" transform="translate(0 0)" clip-path="url(#clip-path-2)">
          <rect id="Rectangle_528" data-name="Rectangle 528" width="28.797" height="32.454" transform="translate(0)" fill="url(#linear-gradient)"/>
        </g>
      </g>
      <g id="Group_5485" data-name="Group 5485" transform="translate(42.291 33.941)">
        <g id="Group_5484" data-name="Group 5484" transform="translate(0 0)" clip-path="url(#clip-path-3)">
          <rect id="Rectangle_529" data-name="Rectangle 529" width="17.823" height="27.162" transform="translate(0)" fill="url(#linear-gradient)"/>
        </g>
      </g>
      <path id="Path_7037" data-name="Path 7037" d="M285.214,275.31c-.156,5.37-2.1,7.7-2.1,7.7,1.79,21.4,19.224,33.933,45.763,23.893-8.795-10.351-29.73,9.339-36.891-12.141-2.957-8.795-3.424-23.5-3.424-23.5-3.5-2.646-5.214-8.172-6.693-10.662h0l-.467,2.257C281.4,262.7,285.369,269.939,285.214,275.31Z" transform="translate(-223.465 -202.375)" fill="#3d1307" fill-rule="evenodd"/>
      <path id="Path_7038" data-name="Path 7038" d="M347.922,264.5c4.825,5.448,4.981,17.823-1.168,18.757-6.226.934-12.686-14.087-9.962-19.379a4.529,4.529,0,0,1,4.2-2.88C344.341,261,347.922,264.5,347.922,264.5Z" transform="translate(-288.666 -202.463)" fill="url(#linear-gradient-20)"/>
      <path id="Path_7039" data-name="Path 7039" d="M351,273.115c.856,2.491-.856,7.705-2.568,6.071s-2.958-8.717-2.958-8.717a5.626,5.626,0,0,0-4.67-1.946,8.768,8.768,0,0,1,2.957-.623C348.59,267.9,351,273.115,351,273.115Z" transform="translate(-292.058 -203.995)" fill="#3d1307" fill-rule="evenodd"/>
      <path id="Path_7040" data-name="Path 7040" d="M351.62,269.062h0M342.9,259.8c5.292.545,8.639,8.95,8.717,9.262-.078-.233-2.257-5.6-7.472-6.148-5.292-.545-6.849,2.646-6.849,2.646s.778-5.759,5.059-5.759Z" transform="translate(-289.718 -202.198)" fill="#f7bb80" fill-rule="evenodd"/>
      <path id="Path_7041" data-name="Path 7041" d="M296.8,264.51h0a6.878,6.878,0,0,0-2.49-.934c-5.526-1.245-16.577,11.83-2.335,12.608,5.6.311,13.776-6.46,4.825-11.674" transform="translate(-198.165 -203.018)" fill-rule="evenodd" fill="url(#linear-gradient-21)"/>
      <path id="Path_7042" data-name="Path 7042" d="M302.071,279.45s-2.724-3.113-6.071-2.568c0,0,3.425,2.335,6.071,2.568" transform="translate(-208.027 -205.971)" fill="#3d1307"/>
      <path id="Path_7044" data-name="Path 7044" d="M282.788,251.661s1.557-6.927,6.148-7.861a18.773,18.773,0,0,1,1.634,7.316s-.078,3.424-2.413,3.658-5.37-3.113-5.37-3.113" transform="translate(-186.25 -198.651)" fill="#fce9ec"/>
      <path id="Path_7045" data-name="Path 7045" d="M287.977,238.7c-.778.156-3.347,5.059-2.8,11.285a13.465,13.465,0,0,1,5.837-8.795c-.078.078-1.79-2.646-3.035-2.49Z" transform="translate(-188.484 -197.52)" fill="#f5bd80" fill-rule="evenodd"/>
      <path id="Path_7046" data-name="Path 7046" d="M290.358,245.4s2.413,7.238-.311,9.417c0,0-3.035-1.4-3.814-2.8,0,0,1.012-4.825,4.125-6.615" transform="translate(-189.695 -199.005)" fill="#0094d9"/>
      <path id="Path_7048" data-name="Path 7048" d="M281.25,251.026s1.09-5.6,6.148-7.861l.545,1.323s2.646-3.035,2.257-3.424c-.778-.7-7.7,1.323-8.95,9.962" transform="translate(-184.715 -198.016)" fill="#3d1307"/>
      <path id="Path_7049" data-name="Path 7049" d="M288.745,253.382l1.712,1.167a4.633,4.633,0,0,0,1.012-3.191,14.9,14.9,0,0,0-.778-4.358s-2.257,2.257-2.491,4.047a8.177,8.177,0,0,0,.545,2.335" transform="translate(-191.353 -199.36)"/>
      <path id="Path_7050" data-name="Path 7050" d="M283.8,251.2a7.66,7.66,0,0,1,3.969-.623s-2.413,1.167-3.969.623" transform="translate(-184.228 -200.133)" fill="#fff"/>
      <path id="Path_7051" data-name="Path 7051" d="M0,3.814a14.474,14.474,0,0,0,5.915-1.79A35.213,35.213,0,0,0,8.872,0,5.418,5.418,0,0,1,5.448,4.047,7.518,7.518,0,0,1,0,3.814" transform="translate(90.67 82.432) rotate(14)" fill="url(#linear-gradient-22)"/>
      <path id="Path_7052" data-name="Path 7052" d="M291.93,235.63c-7.238.078-11.13,1.79-11.13,1.79a47.678,47.678,0,0,0,1.09-7.627,51.977,51.977,0,0,1,9.729.7c.156,0,.389.078.545.078-.078,1.634-.156,3.347-.233,5.059" transform="translate(-186.286 -195.541)" fill="url(#linear-gradient-23)"/>
      <path id="Path_7054" data-name="Path 7054" d="M0,0S5.682,6.693,11.986,7.16c6.3.389,8.639-3.5,8.639-3.5s-2.257,2.88-8.639,2.1A17.6,17.6,0,0,1,1.557.078H0Z" transform="translate(81.152 79.422) rotate(-14)" fill="#e17e5a" fill-rule="evenodd"/>
      <path id="Path_7055" data-name="Path 7055" d="M2.238,0A9.13,9.13,0,0,1,.681,3.736,4.53,4.53,0,0,0,.37,7.861,8,8,0,0,1,2.783,3.969C4.65,2.413,2.238,0,2.238,0" transform="translate(79.015 76.803) rotate(-14)" fill="url(#linear-gradient-24)"/>
      <g id="Group_5502" data-name="Group 5502" transform="translate(114.788 126.287) rotate(169)">
        <path id="Path_6751" data-name="Path 6751" d="M16.472,20.621a.479.479,0,0,0,.56-.387c.764-3.952,1.976-8.27,1.884-10.388a25.919,25.919,0,0,0-1.293-5.184c-.367-1.314-1.242-3.31-1.64-4.288A.591.591,0,0,0,15.29.018a36.9,36.9,0,0,0-4.552,1.334C9.719,1.708,2.213,4.906.676,8.542c-1.018,2.434-1.018,4.216.927,6.243C4.984,18.278,14.262,20.2,16.472,20.621Z" transform="translate(21.075 0.001)" fill="url(#linear-gradient-3)"/>
        <g id="Group_5170" data-name="Group 5170" transform="translate(21.076 0)" clip-path="url(#clip-path-4)">
          <g id="Group_5169" data-name="Group 5169" transform="translate(-0.031 -0.094)" opacity="0.8">
            <g id="Group_5168" data-name="Group 5168" transform="translate(0 0)" clip-path="url(#clip-path-5)">
              <path id="Path_6752" data-name="Path 6752" d="M3.5,19.534c0,.132,0,.255.061.285s.143-.071.173-.2,0-.255-.071-.275S3.534,19.391,3.5,19.534Zm.173-7.577Zm-.143.306a.265.265,0,0,1-.163-.112v-.071a.255.255,0,0,1,.163.1S3.585,12.262,3.534,12.262Zm.794.906c.061,0,.092.132.061.265s-.092.234-.163.224-.092-.122-.061-.255.081-.244.163-.244ZM2.9,16.478c.061,0,.092.1.071.193a.132.132,0,0,1-.153.112.163.163,0,0,1-.071-.194c.031-.092.092-.143.153-.122Zm.866-.733c.061,0,.092.1.071.193s-.092.143-.153.122-.092-.1-.071-.193.092-.153.153-.132ZM3.412,14.39c.061,0,.092.112.071.214s-.092.163-.153.153-.092-.1-.071-.2.092-.183.153-.173ZM1.986,17.313a.2.2,0,0,1,.071.224c0,.092-.092.153-.143.132a.2.2,0,0,1-.061-.234c.02-.081.081-.163.132-.132Zm.53-5.489h0c.041-.01.051-.01,0-.01Zm.2-3.585a.6.6,0,0,1,.173-.153s0,0,0,.061a.581.581,0,0,1-.173.153s-.051-.01,0-.112ZM3.34,11.7V11.62a.316.316,0,0,1,.194,0v.071a.326.326,0,0,1-.194,0ZM2.322,18.831c.061,0,.081.143.061.275s-.092.224-.153.194a.316.316,0,0,1,0-.3c-.02-.153.081-.234.143-.2ZM3.4,10.816a.173.173,0,0,1,.061-.214c.061,0,.122,0,.153.143a.326.326,0,0,1,0,.193c0,.02-.132-.061-.163-.153Zm1.293,3.86c.061,0,.092.112.071.224s-.1.183-.163.163-.092-.1-.071-.214.153-.214.214-.2ZM4.247,16.9a.163.163,0,0,1,.081.2.125.125,0,0,1-.153.122.163.163,0,0,1-.081-.194A.125.125,0,0,1,4.247,16.9ZM7.6,10.785a.112.112,0,0,1,.051-.173.214.214,0,0,1,.224.112v.163a.224.224,0,0,1-.306-.143ZM6.579,16.438a.173.173,0,0,1,.092.214.143.143,0,0,1-.163.143c-.071-.02-.1-.1-.081-.2s.051-.255.122-.194Zm.886-4.267a.52.52,0,0,1,.224.092.053.053,0,0,1,0,.092.55.55,0,0,1-.224-.1c-.112-.081-.1-.122-.031-.122ZM6.141,14.91c.061,0,.1.112.071.224s-.092.193-.163.183-.1-.112-.071-.224S6.07,14.89,6.141,14.91Zm1.416-2.118V12.9a.438.438,0,0,1-.2-.143v-.1A.356.356,0,0,1,7.557,12.792ZM6.63,20.185c.071,0,.112.132.081.265s-.122.234-.194.214-.112-.143-.081-.275S6.549,20.175,6.63,20.185ZM5.092,19.8c.061,0,.1.132.071.265s-.112.234-.183.214-.1-.143-.071-.285S5.021,19.778,5.092,19.8ZM2.139,14.115c.061,0,.092.1.071.194s-.081.143-.132.132-.092-.092-.071-.183S2.088,14.105,2.139,14.115Zm2.485-1.772v-.071a.326.326,0,0,1,.183.112v.081a.367.367,0,0,1-.183-.122Zm1.018,4.95c.061,0,.1.1.081.194s-.092.163-.153.143a.163.163,0,0,1-.092-.2c.01-.071.081-.153.153-.132Zm.54-4.705v.092a.4.4,0,0,1-.193-.122q-.061-.092,0-.092a.4.4,0,0,1,.183.122ZM6.029,12.1a.56.56,0,0,1,.224.061c.061,0,0,.061,0,.061a.754.754,0,0,1-.214-.071c-.081-.031-.081-.051-.02-.051ZM.336,11.7a.122.122,0,0,1,0-.143s.081,0,.1.122,0,.112,0,.112-.1-.02-.112-.092Zm2.037.214h.051c0,.051,0,.092-.061.081a.2.2,0,0,1-.143-.112v-.051h0a.255.255,0,0,0,.1.081ZM1.64,13.28c-.061,0-.092-.1-.081-.214s.071-.2.132-.194.092.112.081.224S1.691,13.28,1.64,13.28Zm.092,2.913a.1.1,0,0,1-.132.1.173.173,0,0,1-.071-.183.1.1,0,0,1,.143-.092.153.153,0,0,1,.061.143Zm-.6,2.454a.733.733,0,0,1-.061-.285c.01-.122.081-.2.132-.163a.306.306,0,0,1,.061.275c-.02.1-.071.183-.132.143ZM1.9,8.372h0a1.589,1.589,0,0,1,.132-.193s0,0,0,.061a.6.6,0,0,1-.132.1Zm-.1,1.976c-.051,0-.071-.061,0-.183a.387.387,0,0,1,.153-.234s.061,0,0,.173a.479.479,0,0,1-.153.214Zm.061-1.792h0L2.017,8.4h0a1.019,1.019,0,0,1-.153.122Zm1.018.3c-.061,0-.071,0,0-.112a.6.6,0,0,1,.173-.183c.061,0,.071,0,0,.1a.54.54,0,0,1-.214.163Zm.112,1.018c-.061,0-.081-.061,0-.173a.417.417,0,0,1,.163-.255c.061,0,.081,0,0,.173s-.143.255-.2.275ZM2.841,7.832h0L3,7.648c.051,0,.051,0,0,.061a.815.815,0,0,1-.2.143ZM2.5,11.1c0,.081,0,.153,0,.163a.147.147,0,0,1-.153-.1c-.031-.1,0-.173.051-.183s.031.061.061.143Zm.316-3.6V7.435a1.018,1.018,0,0,1,.143-.224v.081a1.019,1.019,0,0,1-.183.234Zm-.4,4.339h-.1a.564.564,0,0,1,.061.02ZM.876,16.662c.051,0,.071.132.061.224s-.081.143-.132.1a.259.259,0,0,1-.061-.224c.01-.092.041-.112.092-.082Zm.448-1.731a.143.143,0,0,1,.061.163.1.1,0,0,1-.132.092.132.132,0,0,1-.061-.163c0-.051,0-.092.092-.071ZM.041,10.857s0-.081,0-.183a.3.3,0,0,1,.1-.193s0,.061,0,.163A.3.3,0,0,1,0,10.867Zm.387,1.2h0l-.041.01Zm1.018-.153H1.273a.56.56,0,0,1,.173,0s-.02-.01-.071.01Zm.346-2.74A.417.417,0,0,1,1.955,9v.092a.418.418,0,0,1-.163.163s-.112-.051-.071-.051ZM1.487,11.61Zm-.479-2.2v.081a.631.631,0,0,1-.153.143V9.543a.448.448,0,0,1,.081-.122ZM.886,10.643c-.051,0-.061-.071,0-.183s.081-.2.122-.214.051,0,0,.163a.358.358,0,0,1-.194.244ZM7.2,17.629a.163.163,0,0,1,.092.2.144.144,0,0,1-.153.153.163.163,0,0,1-.1-.2.09.09,0,0,1,.092-.143ZM1.426,11.58a.122.122,0,0,1-.132-.092v-.173c0-.02.092,0,.112.122s-.01.143-.051.153Zm0,.418H1.192a.865.865,0,0,1,.132.01ZM.937,9.268h0l.153-.092h0Zm1.018-.591a.845.845,0,0,1-.163.132h0a.845.845,0,0,1,.163-.132.052.052,0,0,0-.081.01Zm8.26,9.7c0-.1.081-.173.153-.153a.173.173,0,0,1,.132.2.143.143,0,0,1-.153.153.173.173,0,0,1-.132-.2Zm6.314-.122c0-.1,0-.173.143-.163a.234.234,0,0,1,.183.214.122.122,0,0,1-.143.153.224.224,0,0,1-.183-.153Zm.957-1.2a.188.188,0,0,1,.183-.2.234.234,0,0,1,.132.255c0,.122-.092.2-.173.183A.225.225,0,0,1,17.487,17.049Zm.8,4.685a.234.234,0,0,1,.194.224.183.183,0,0,1-.2.183.224.224,0,0,1-.183-.224.173.173,0,0,1,.2-.183ZM17.914,12.4c0-.143,0-.255.122-.255s.2.122.224.265,0,.255-.132.255-.183-.122-.2-.265Zm.693,5.968a.265.265,0,0,1,.2.2c0,.1,0,.173-.132.163a.3.3,0,0,1-.2-.2C18.5,18.485,18.5,18.373,18.607,18.373Zm0-2.9c.081,0,.173.132.183.275s0,.234-.132.224a.336.336,0,0,1-.183-.275c-.051-.092.031-.193.1-.173ZM7.4,15.307c0-.112.1-.2.173-.194s.112.122.081.244-.1.193-.173.183-.081-.061-.061-.224Zm8.575-3.228a.285.285,0,0,1,.234.234c0,.132,0,.234-.112.224s-.183-.1-.224-.234.031-.183.122-.173Zm-.153,4.42c.081,0,.132.132.122.255a.191.191,0,0,1-.183.194.2.2,0,0,1-.122-.244c.031-.071.112-.163.2-.153Zm.356-8.86a.161.161,0,0,1-.163-.214.326.326,0,0,1,.244-.255c.112,0,.183.081.153.214a.336.336,0,0,1-.214.306ZM14.961,20.165a.224.224,0,0,1,.183.2.163.163,0,0,1-.173.173.224.224,0,0,1-.173-.214.143.143,0,0,1,.183-.112Zm.886-1.11a.234.234,0,0,1,.194.194.122.122,0,0,1-.143.153.214.214,0,0,1-.183-.193.112.112,0,0,1,.153-.1Zm.2,2.414a.214.214,0,0,1,0,.428.2.2,0,0,1-.163-.234.194.194,0,0,1,.183-.143Zm.54-6.111c0-.132,0-.234.112-.224a.326.326,0,0,1,.193.275c0,.132,0,.224-.122.214s-.143-.041-.163-.173Zm4.919,2.037c.092,0,.163.122.163.244a.163.163,0,0,1-.173.183.214.214,0,0,1-.163-.234.217.217,0,0,1,.224-.132Zm0-2.852c-.1,0-.183-.153-.193-.306s.061-.275.163-.265.194.153.194.306-.112.336-.173.326Zm0,6.355a.356.356,0,0,1,.265.193c0,.1,0,.163-.132.153a.356.356,0,0,1-.265-.193c-.061-.031-.01-.1.1-.092Zm-1.538-11.8a.255.255,0,0,1-.234-.255c0-.143.071-.265.194-.265a.238.238,0,0,1,.224.244.234.234,0,0,1-.214.336Zm2.159,10.765a.448.448,0,0,1,.275.194c0,.092,0,.153-.112.143A.346.346,0,0,1,22.029,20c-.081-.031-.031-.092.071-.081Zm.591-.927a.346.346,0,0,1,.244.214c0,.092,0,.163-.1.153a.367.367,0,0,1-.255-.2c-.031-.041-.031-.112.081-.1Zm-2.037,2.953a.255.255,0,0,1,.224.214.163.163,0,0,1-.183.183.255.255,0,0,1-.224-.214.163.163,0,0,1,.132-.122Zm-.275-5.907c0-.143.061-.244.153-.234a.306.306,0,0,1,.183.285c0,.143-.061.244-.153.224s-.224-.071-.234-.214Zm-.784,1.11a.214.214,0,0,1,.143.244c0,.122-.081.2-.173.193a.224.224,0,0,1-.153-.244c-.041-.061.081-.143.132-.132Zm-.346-3.055c0-.143,0-.255.132-.244a.285.285,0,0,1,.2.285c0,.143,0,.255-.132.244a.264.264,0,0,1-.255-.244Zm0,6.64a.275.275,0,0,1,.234.194.132.132,0,0,1-.153.163.285.285,0,0,1-.224-.2c-.081-.061-.02-.132.081-.112ZM20,19.656a.316.316,0,0,1,.244.194c0,.092,0,.163-.122.153a.346.346,0,0,1-.234-.193c-.1-.112-.041-.173.051-.163Zm1.273-12.73a.2.2,0,0,1,.214.224.255.255,0,0,1-.244.224.2.2,0,0,1-.2-.224.244.244,0,0,1,.173-.234ZM17.049,20.409a.234.234,0,0,1,.2.2.132.132,0,0,1-.153.163.234.234,0,0,1-.2-.2.143.143,0,0,1,.153-.163Zm-6.986.356c.081,0,.132.122.1.244s-.112.224-.2.214-.132-.132-.1-.255.112-.173.2-.153Zm.479-8.667a.305.305,0,0,1,.234.143.117.117,0,0,1,0,.143.306.306,0,0,1-.234-.143c-.092-.031-.081-.092,0-.092Zm-1.2,7.292c.081,0,.132.112.122.214s-.1.194-.183.173a.2.2,0,0,1,.061-.387Zm1.355-8.209a.162.162,0,0,1,0-.173.275.275,0,0,1,.244.143c0,.092,0,.173-.061.183a.3.3,0,0,1-.173-.143Zm-8.28,4.461c-.061,0-.092-.092-.071-.173a.132.132,0,0,1,.143-.112.153.153,0,0,1,.071.183C2.536,15.623,2.465,15.664,2.414,15.643Zm8.209.5c-.071,0-.112-.122-.092-.244s.1-.214.183-.194.112.122.092.244-.1.2-.183.193Zm-2.729.723a.146.146,0,0,1,.163-.153.177.177,0,0,1,.1.2c-.01.1-.092.173-.163.153a.163.163,0,0,1-.1-.2Zm.662-3.055c.071,0,.153.112.183.224a.211.211,0,0,1-.173.234c-.071-.01-.061-.153-.081-.275s.01-.163.071-.143Zm.387,1.782a.2.2,0,0,1,.183-.2c.071.01.112.122.081.244s-.1.2-.173.193-.112-.071-.092-.193Zm2.342,1.66c.081,0,.132.1.132.214a.149.149,0,0,1-.163.163.194.194,0,0,1-.122-.214.133.133,0,0,1,.153-.122ZM8.769,12.914v-.122a.316.316,0,0,1,.214.153v.132a.387.387,0,0,1-.214-.122Zm-.448,7.608a.2.2,0,0,1,.1.255.223.223,0,0,1-.2.224c-.081-.01-.122-.143-.092-.275S8.209,20.511,8.321,20.521Zm.265-2.4a.153.153,0,0,1,.163-.153.183.183,0,0,1,.112.2.141.141,0,0,1-.163.153.2.2,0,0,1-.153-.2Zm4.461,1.843a.183.183,0,0,1,.153.214.153.153,0,0,1-.173.163.194.194,0,0,1-.153-.214.163.163,0,0,1,.132-.163Zm1.018-3.7c.081,0,.122.122.1.244s-.092.214-.173.194-.132-.112-.122-.234.122-.224.2-.2Zm1.385-2.791c.092,0,.183.122.224.244s0,.224-.1.214-.173-.122-.214-.244S15.378,13.474,15.45,13.474Zm-1.507,5.357a.224.224,0,0,1,.173.2.132.132,0,0,1-.153.153.214.214,0,0,1-.163-.2.132.132,0,0,1,.153-.153Zm.754-7.811a.275.275,0,0,1-.244-.2c0-.122,0-.224.112-.234s.194.081.234.2,0,.234-.092.234Zm-.754,10.286a.2.2,0,0,1,.153.234.214.214,0,0,1-.214.2.193.193,0,0,1-.143-.244.2.2,0,0,1,.214-.194Zm.855-3.453a.234.234,0,0,1,.163.214.143.143,0,0,1-.153.163.214.214,0,0,1-.163-.214c.01-.1.071-.173.163-.163Zm-1.792-.285a.214.214,0,0,1,.143.214c0,.112-.071.183-.163.163a.194.194,0,0,1-.143-.2c.02-.1.081-.183.173-.173Zm-1.018,3.5c.092,0,.153.112.132.244a.224.224,0,0,1-.214.2c-.092,0-.143-.122-.122-.244s.071-.214.163-.2Zm.173-2.516a.194.194,0,0,1,.153.2c0,.1-.071.173-.153.153a.193.193,0,0,1-.153-.2.143.143,0,0,1,.112-.153Zm.234-2.577c.071,0,.122.122.1.244s-.1.214-.183.2a.183.183,0,0,1-.1-.244A.173.173,0,0,1,12.394,15.979Zm.886-1.314c.081,0,.163.122.193.244s0,.224-.092.214a.336.336,0,0,1-.183-.255c-.061-.132-.02-.214.051-.2Zm-2.118,5.021a.2.2,0,0,1,.132.224.171.171,0,0,1-.173.173.183.183,0,0,1-.132-.224.133.133,0,0,1,.143-.173Zm2.872-12.13c.1,0,.163.071.122.214s-.071.255-.173.275a.173.173,0,0,1-.194-.214A.377.377,0,0,1,14,7.557Zm6.426,4.95c0,.153-.061.275-.163.275s-.194-.143-.214-.3.061-.275.163-.275a.306.306,0,0,1,.183.3ZM15.45,9.268c0,.132,0,.255-.132.265a.244.244,0,0,1-.234-.214.2.2,0,0,1,.132-.265.244.244,0,0,1,.234.214ZM16.2,2.332a.165.165,0,0,1-.153-.183.265.265,0,0,1,.163-.234c.092,0,.153.071.153.183a.234.234,0,0,1-.143.234ZM15.042,15.419a.346.346,0,0,1-.193-.265c0-.132,0-.224.1-.214a.346.346,0,0,1,.193.265C15.165,15.317,15.124,15.429,15.042,15.419ZM16.4,4.888a.173.173,0,0,1-.183-.173.2.2,0,0,1,.163-.224.193.193,0,0,1,.193.173.214.214,0,0,1-.173.224ZM15.378,1.222c-.081,0-.132-.071-.1-.193A.326.326,0,0,1,15.47.764c.081,0,.122.071.1.194a.346.346,0,0,1-.122.265Zm-.173,5.245a.16.16,0,0,1-.163-.194.275.275,0,0,1,.2-.234.163.163,0,0,1,.173.183.285.285,0,0,1-.173.244Zm0-2.6a.161.161,0,0,1-.173-.153.224.224,0,0,1,.163-.224c.092,0,.163,0,.173.163a.214.214,0,0,1-.092.214Zm2.913-1.792a.177.177,0,0,1-.173-.193A.2.2,0,0,1,18.1,1.66a.18.18,0,0,1,.163.183A.2.2,0,0,1,18.118,2.078ZM17.721,6a.234.234,0,0,1-.234.153.173.173,0,0,1-.183-.194.224.224,0,0,1,.183-.224.183.183,0,0,1,.234.234Zm-.153,3.33a.244.244,0,0,1-.234-.234A.214.214,0,0,1,17.5,8.83a.25.25,0,0,1,.224.234.214.214,0,0,1-.153.234Zm-.3-5.734a.173.173,0,0,1-.194-.173.17.17,0,1,1,.194.143ZM2.9,13.474c-.061,0-.092-.112-.071-.234s.081-.224.153-.214.092.122.071.244-.092.183-.153.173Zm13.871-2.546a.279.279,0,0,1-.234-.234c-.031-.132,0-.244.132-.255s.2.1.234.234-.031.224-.132.224Zm-5.041,3.931c-.071,0-.153-.122-.183-.244s0-.214.071-.193a.333.333,0,0,1,.193.234c.031.122-.01.183-.081.173Zm.754-2.516c0,.1,0,.173-.061.173a.326.326,0,0,1-.234-.173c0-.1,0-.183.061-.183a.3.3,0,0,1,.234.1ZM13.5,4.084a.224.224,0,0,1-.173.214c-.081,0-.153,0-.143-.143a.255.255,0,0,1,.173-.224c.1-.051.173.02.163.122ZM12.16,13.392c0,.092,0,.173-.061.163a.346.346,0,0,1-.224-.193c0-.1,0-.173.061-.173a.387.387,0,0,1,.244.173Zm5.4.55c0,.132,0,.234-.122.224a.285.285,0,0,1-.2-.255c0-.143,0-.244.112-.234a.269.269,0,0,1,.234.234Zm-3.269-1.579c0,.112,0,.2-.081.2a.322.322,0,0,1-.234-.214c-.041-.112,0-.2.081-.2a.306.306,0,0,1,.255.183ZM12.6,3.2c-.081,0-.132,0-.112-.153a.316.316,0,0,1,.183-.244c.081,0,.132,0,.112.153a.336.336,0,0,1-.163.234Zm.54,3.218a.132.132,0,0,1,.143.173.316.316,0,0,1-.214.255c-.1,0-.153-.061-.132-.183a.316.316,0,0,1,.224-.255ZM14.3,5.225a.153.153,0,0,1-.173-.163.265.265,0,0,1,.183-.224c.092,0,.163,0,.163.163a.244.244,0,0,1-.153.214Zm-.509,8.514a.346.346,0,0,1-.224-.224c0-.112,0-.194.071-.183a.326.326,0,0,1,.224.214c.061.1.031.194-.051.183Zm.642-11.03c-.081,0-.143-.051-.132-.163a.275.275,0,0,1,.173-.234c.081,0,.143,0,.132.163a.275.275,0,0,1-.173.234ZM13.291,9.838a.214.214,0,0,1-.234-.183c0-.122,0-.234.1-.244a.224.224,0,0,1,.234.183.19.19,0,0,1-.143.224Zm.438-8.147c-.081,0-.122-.061-.092-.183a.4.4,0,0,1,.193-.275c.081,0,.122.061.092.183a.392.392,0,0,1-.234.255Zm-.927,9.5a.285.285,0,0,1-.244-.173c0-.1,0-.2.081-.214a.275.275,0,0,1,.244.183c0,.081-.031.173-.122.183Zm11-.275c-.122,0-.214-.143-.214-.306a.258.258,0,0,1,.224-.285.275.275,0,0,1,.214.306c-.051.143-.153.275-.265.265Zm-1.242,2.037c-.112,0-.2-.153-.2-.316s.081-.3.183-.285a.3.3,0,0,1,.2.316.275.275,0,0,1-.224.265Zm0,3.7c-.1,0-.173-.143-.173-.285s.081-.244.173-.234.173.143.173.285-.1.224-.153.214Zm1.324-9.166A.244.244,0,0,1,23.6,7.17a.193.193,0,0,1,.214-.2.265.265,0,0,1,.244.234.2.2,0,0,1-.194.224ZM12.394,5.245c.081,0,.153,0,.143.153a.3.3,0,0,1-.193.224c-.092,0-.153,0-.132-.153a.265.265,0,0,1,.183-.224Zm10.775-.652a.377.377,0,0,1-.3-.214c-.051-.122,0-.214.1-.2a.377.377,0,0,1,.3.214c.031.122-.01.214-.122.2Zm-.764,1.436a.3.3,0,0,1-.265-.214c0-.122.051-.214.163-.2a.3.3,0,0,1,.265.214.153.153,0,0,1-.183.2Zm.275,2.821a.234.234,0,0,1-.214.265.255.255,0,0,1-.224-.265.224.224,0,1,1,.438,0Zm1.884,11.681a.438.438,0,0,1-.3-.183c-.061-.092,0-.153.092-.143a.479.479,0,0,1,.255.2c.081.081,0,.143-.071.122Zm1.222,2.261a.336.336,0,0,1-.285-.214c0-.1,0-.173.153-.163a.377.377,0,0,1,.3.2.155.155,0,0,1-.183.173Zm-2.1-7.923c-.1,0-.183-.153-.173-.316s.092-.285.193-.275.183.153.183.326-.112.275-.224.265Zm.336,6.691a.407.407,0,0,1-.285-.194c0-.092,0-.163.112-.143a.418.418,0,0,1,.3.183c.031.1-.02.163-.143.153ZM23.6,18.179a.234.234,0,0,1-.183-.234c0-.112.081-.2.173-.183A.234.234,0,0,1,23.76,18C23.73,18.118,23.658,18.2,23.6,18.179Zm-.4,4.379a.275.275,0,0,1-.244-.214.143.143,0,0,1,.163-.173.306.306,0,0,1,.265.214.246.246,0,0,1-.224.173Zm-2.332-18a.3.3,0,0,1-.255-.2c0-.112,0-.2.122-.2a.265.265,0,0,1,.255.194c0,.122-.061.214-.163.214ZM19.381,3.371a.244.244,0,0,1-.234-.183c0-.112,0-.214.132-.214a.234.234,0,0,1,.224.183.163.163,0,0,1-.163.214Zm.7-1.5a.214.214,0,0,1-.193-.2.193.193,0,0,1,.143-.224c.081,0,.163.092.183.2a.205.205,0,0,1-.173.224Zm-.917,8.677c0,.153,0,.275-.153.275s-.2-.112-.224-.265,0-.265.153-.265.173.112.183.255Zm1.711,8.361c0,.1,0,.173-.122.163a.346.346,0,0,1-.224-.2.122.122,0,0,1,.132-.163.285.285,0,0,1,.173.2ZM18.872,7.17a.306.306,0,0,1-.255.244.163.163,0,0,1-.173-.214.306.306,0,0,1,.244-.244.173.173,0,0,1,.183.214ZM19.024.591c-.092,0-.153-.081-.132-.2a.285.285,0,0,1,.194-.244c.081,0,.132.081.112.214a.244.244,0,0,1-.173.275Zm-.937,18.943a.112.112,0,0,1-.132.143.244.244,0,0,1-.214-.194.1.1,0,0,1,.122-.143.275.275,0,0,1,.224.234ZM21.458,3.239a.316.316,0,0,1-.265-.214c0-.112,0-.2.112-.2a.336.336,0,0,1,.255.275c0,.1,0,.194-.1.2Zm.55-1.477a.255.255,0,0,1-.214-.214c0-.122,0-.224.112-.224s.183.1.214.224-.02.275-.112.275ZM21.3,10.755c-.112,0-.2-.122-.214-.285s.071-.275.183-.275.214.122.224.285-.081.346-.194.336ZM20.868.448c-.092,0-.153-.092-.143-.224A.224.224,0,0,1,20.909,0c.081,0,.143.092.132.214s-.092.3-.173.3ZM18.719,4.389a.163.163,0,0,1-.143.214.224.224,0,0,1-.224-.183.173.173,0,0,1,.143-.214.214.214,0,0,1,.224.244ZM19.9,5.978a.214.214,0,0,1-.224-.2.193.193,0,0,1,.183-.214.234.234,0,0,1,.224.2.183.183,0,0,1-.183.275ZM17.2.815c-.081,0-.143-.081-.112-.2s.112-.244.193-.255.132.081.1.2A.306.306,0,0,1,17.2.876ZM5.744,8.8c-.071,0-.092,0-.061-.173a.407.407,0,0,1,.193-.255c.081,0,.1,0,.071.163s-.122.306-.2.326ZM6.1,4.98c-.061,0-.071,0,0-.132a.652.652,0,0,1,.183-.275s.071,0,0,.132a.652.652,0,0,1-.183.336ZM5.082,16.356A.163.163,0,0,1,5,16.163a.138.138,0,0,1,.163-.143c.071.02.1.1.081.194s-.132.224-.2.2Zm1.324-10.7c-.061,0-.081,0,0-.1a.519.519,0,0,1,.183-.224c.061,0,.081,0,0,.1a.407.407,0,0,1-.224.285ZM5.52,7.689c-.061,0-.092,0-.051-.122a.407.407,0,0,1,.183-.2c.071,0,.1,0,.061.112a.407.407,0,0,1-.234.275ZM4.746,18.474a.153.153,0,0,1-.173.153c-.071-.02-.092-.122-.071-.224s.092-.173.163-.153.061.122.041.285ZM7.2,6.966a.387.387,0,0,1-.193.224c-.071,0-.1,0-.071-.132a.367.367,0,0,1,.194-.214C7.2,6.813,7.241,6.864,7.2,6.966Zm-.733,3.055a.163.163,0,0,1-.193-.153c-.031-.153,0-.224.081-.244s.153,0,.183.163a.193.193,0,0,1-.071.183ZM4.909,12.16h-.2a.814.814,0,0,1,.214,0c.061-.061.051-.051-.01-.051ZM6.6,6.538c-.071,0-.1,0-.061-.112a.4.4,0,0,1,.183-.2c.071,0,.092,0,.061.1a.428.428,0,0,1-.183.163ZM5.968,11.7a.468.468,0,0,1,.234.061c.061,0,0,.071,0,.081a.469.469,0,0,1-.234-.061c-.071-.081-.061-.122,0-.132Zm-.173,1.976c0,.132-.112.234-.183.224s-.092-.122-.061-.265.092-.234.153-.224.122.071.092.214Zm.489-2.638v.143A.275.275,0,0,1,6.06,11.1v-.143a.244.244,0,0,1,.224.081Zm-2.913.886h.2a1.358,1.358,0,0,1-.2,0ZM3.89,7.72c-.061,0-.071,0,0-.081a.53.53,0,0,1,.183-.183c.051,0,.071,0,0,.081A.6.6,0,0,1,3.89,7.72ZM3.32,18.067c0,.1-.092.173-.153.143a.218.218,0,0,1-.071-.234c.02-.1.092-.163.153-.132A.183.183,0,0,1,3.32,18.067ZM4.084,8.3c-.061,0-.071,0,0-.112a.519.519,0,0,1,.183-.2c.061,0,.071,0,0,.112A.377.377,0,0,1,4.084,8.3Zm.743,3.585a.773.773,0,0,1-.214,0h0a.775.775,0,0,1,.214,0C4.888,11.855,4.888,11.875,4.827,11.885ZM3.809,6.691c-.051,0-.061,0,0-.092a.631.631,0,0,1,.153-.244c.051,0,.061,0,0,.1a.581.581,0,0,1-.2.234Zm.1.458V7.078a.54.54,0,0,1,.173-.194s.061,0,0,.071a.469.469,0,0,1-.224.214ZM7.5,4.247c-.071,0-.092,0,0-.143a.6.6,0,0,1,.183-.285c.061,0,.081,0,0,.153a.54.54,0,0,1-.234.275ZM4.9,11.376v.1a.3.3,0,0,1-.2,0c-.061-.051,0-.1,0-.122a.265.265,0,0,1,.153.02Zm.326-4.267c-.061,0-.081,0,0-.092a.519.519,0,0,1,.183-.2c.071,0,.092,0,.051.092a.468.468,0,0,1-.285.2ZM4.512,9.146a.55.55,0,0,1-.183.265q-.107,0-.061-.183a.468.468,0,0,1,.193-.255c.01-.031.031.041,0,.163Zm.509,1.324c-.071,0-.153,0-.183-.132s0-.214.071-.234.143,0,.173.153-.051.183-.112.2Zm-.1-4.6s-.061,0,0-.112a.662.662,0,0,1,.173-.265s.071,0,0,.122a.621.621,0,0,1-.224.244Zm.193.57c-.061,0-.071,0,0-.081a.458.458,0,0,1,.173-.214c.061,0,.071,0,0,.092a.591.591,0,0,1-.224.193ZM7.822,19.31c0,.112-.092.194-.173.173a.2.2,0,0,1-.1-.234.168.168,0,0,1,.173-.163c.071.01.071.1.051.214Zm-1.589-.356a.156.156,0,0,1-.173.163c-.071-.02-.1-.122-.081-.224s.1-.183.173-.163.051.1.031.214ZM9.96,8.962c-.092,0-.183,0-.214-.183A.244.244,0,0,1,9.9,8.5c.092,0,.143.061.163.194a.228.228,0,0,1-.153.255Zm1.018-5.214c-.081,0-.122,0-.1-.143a.428.428,0,0,1,.183-.244c.081,0,.122,0,.1.143a.4.4,0,0,1-.234.234ZM9.746,17.212a.155.155,0,0,1-.163.163c-.081-.01-.122-.1-.112-.214A.163.163,0,0,1,9.634,17,.194.194,0,0,1,9.746,17.212ZM9.482,10.5a.234.234,0,0,1-.234-.132c0-.092,0-.183.061-.2a.224.224,0,0,1,.234.143C9.594,10.4,9.563,10.49,9.482,10.5Zm.927-7.679c-.071,0-.112,0-.071-.163a.448.448,0,0,1,.193-.285c.071,0,.1,0,.071.173a.489.489,0,0,1-.194.275Zm.886,7.333a.244.244,0,0,1-.234-.163.163.163,0,0,1,.081-.224.224.224,0,0,1,.234.163C11.376,10.042,11.376,10.133,11.294,10.154Zm.713-7.944c-.071,0-.112,0-.081-.183a.489.489,0,0,1,.2-.285c.071,0,.112.061.081.193A.458.458,0,0,1,12.007,2.21ZM11.7,4.522a.3.3,0,0,1-.183.224c-.081,0-.143,0-.122-.132a.3.3,0,0,1,.183-.224c.081-.031.132.041.122.132Zm-1.925.764c-.081,0-.122,0-.1-.122a.316.316,0,0,1,.183-.224c.081,0,.122,0,.1.122a.326.326,0,0,1-.183.224Zm1.487,1.731a.367.367,0,0,1-.214.265c-.092,0-.143-.061-.112-.183a.326.326,0,0,1,.214-.244c.081-.031.143.051.112.163Zm-.906,5.988a.3.3,0,0,1,.214.173.117.117,0,0,1,0,.143.356.356,0,0,1-.224-.183C10.245,13.056,10.266,13,10.358,13.005ZM10.245,14.3c0,.122,0,.224-.122.214s-.112-.143-.132-.265,0-.2.071-.183S10.215,14.228,10.245,14.3Zm.387-8.473a.316.316,0,0,1-.193.224c-.081,0-.132,0-.112-.143a.3.3,0,0,1,.183-.224.156.156,0,0,1,.122.194ZM7.3,13.841c0,.143-.122.244-.193.234s-.092-.132-.061-.275,0-.214.112-.2A.2.2,0,0,1,7.3,13.841Zm.428-2.291c.061,0,.051.1,0,.112A.326.326,0,0,1,7.5,11.58c-.061,0,0-.1,0-.112a.306.306,0,0,1,.183.081Zm.448-5.683c-.071,0-.1,0-.071-.112A.356.356,0,0,1,8.29,5.54c.071,0,.112,0,.081.112a.336.336,0,0,1-.244.214ZM7.557,7.9c.071,0,.112,0,.071.163a.428.428,0,0,1-.2.275c-.081,0-.112-.061-.081-.173a.448.448,0,0,1,.163-.285Zm.611,1.579c-.081,0-.173,0-.2-.163s0-.244.092-.265.163,0,.193.173a.214.214,0,0,1-.132.234ZM7.842,5.031c-.071,0-.1,0-.061-.112a.4.4,0,0,1,.183-.234c.071,0,.092,0,.061.122a.407.407,0,0,1-.234.2Zm1.09-1.507c-.071,0-.1,0-.061-.153a.519.519,0,0,1,.194-.285c.061,0,.092,0,.061.163a.489.489,0,0,1-.244.255Zm.428.845c-.071,0-.1,0-.071-.122A.428.428,0,0,1,9.471,4c.071,0,.1,0,.071.132a.336.336,0,0,1-.2.214ZM9.2,7.8c-.092,0-.132,0-.1-.173a.4.4,0,0,1,.214-.255c.081,0,.132,0,.1.163a.387.387,0,0,1-.265.244ZM8.983,12.17a.366.366,0,0,1,.234.112c.061.071.051.122,0,.122a.357.357,0,0,1-.224-.122c-.143-.081-.132-.132-.061-.132Zm.346-.784a.113.113,0,0,1,0,.143.285.285,0,0,1-.234-.112.129.129,0,0,1,0-.153.275.275,0,0,1,.183.1Zm2.648-3.2a.182.182,0,1,1-.336.081.309.309,0,0,1,.214-.285C11.946,7.964,11.956,8.066,11.977,8.188ZM8.667,6.62c-.081,0-.122,0-.092-.132a.316.316,0,0,1,.194-.224c.071,0,.122,0,.092.132a.387.387,0,0,1-.194.234Z" transform="translate(-4.58 -1.568)" fill="url(#linear-gradient-26)"/>
            </g>
          </g>
        </g>
        <path id="Path_6755" data-name="Path 6755" d="M2.45,20.579a.479.479,0,0,1-.56-.387C1.116,16.241-.1,11.923.006,9.8A26.611,26.611,0,0,1,1.289,4.621,44.251,44.251,0,0,1,2.939.374.581.581,0,0,1,3.621.017,36.9,36.9,0,0,1,8.174,1.351c1.018.356,8.524,3.554,10.062,7.19,1.018,2.434,1.018,4.216-.917,6.243C13.938,18.237,4.66,20.162,2.45,20.579Z" transform="translate(0 0.042)" fill="url(#linear-gradient-4)"/>
        <g id="Group_5175" data-name="Group 5175" transform="translate(22.286 6.025)">
          <path id="Path_6762" data-name="Path 6762" d="M0,.812,11.474,4.06V0H0Z" transform="translate(0 6.108)" fill="url(#linear-gradient-28)"/>
          <path id="Path_6763" data-name="Path 6763" d="M0,3.221,11.474,0V4.057H0Z" transform="translate(0 0)" fill="url(#linear-gradient-28)"/>
        </g>
        <g id="Group_5176" data-name="Group 5176" transform="translate(5.99 6.025)">
          <path id="Path_6762-2" data-name="Path 6762" d="M11.474.894,0,4.06V0H11.474Z" transform="translate(0 6.108)" fill="url(#linear-gradient-30)"/>
          <path id="Path_6763-2" data-name="Path 6763" d="M11.474,3.18,0,0V4.057H11.474Z" transform="translate(0 0)" fill="url(#linear-gradient-30)"/>
        </g>
        <g id="Group_5173" data-name="Group 5173" transform="translate(0 0.041)" clip-path="url(#clip-path-6)">
          <g id="Group_5172" data-name="Group 5172" transform="translate(0 -0.136)" opacity="0.8">
            <g id="Group_5171" data-name="Group 5171" transform="translate(0 0)" clip-path="url(#clip-path-7)">
              <path id="Path_6756" data-name="Path 6756" d="M22.263,19.28c-.061,0-.092.143-.061.275s.1.224.163.2.092-.153.061-.285S22.325,19.259,22.263,19.28Zm.194-7.4Zm-.1.234a.275.275,0,0,1,.163-.1c.061,0,.081,0,.051.071a.3.3,0,0,1-.163.112C22.345,12.2,22.325,12.2,22.355,12.11Zm-.581,1.222c0,.132,0,.244-.071.255s-.132-.092-.163-.224,0-.255.071-.265S21.744,13.22,21.775,13.332ZM23.18,16.52a.163.163,0,0,1-.071.194c-.061,0-.122,0-.143-.112s0-.173.071-.194S23.119,16.438,23.18,16.52Zm-.855-.723c0,.092,0,.173-.071.193s-.132,0-.153-.122,0-.173.071-.193S22.3,15.715,22.325,15.8Zm.346-1.314c0,.1,0,.183-.061.2s-.132,0-.153-.153,0-.194.071-.214S22.65,14.381,22.671,14.483Zm1.467,2.882a.234.234,0,0,1-.061.234c-.061,0-.122,0-.143-.132a.214.214,0,0,1,.061-.224C24,17.212,24.066,17.294,24.137,17.365Zm-.652-5.622h-.01s-.1.01-.041,0ZM23.261,8.23a.479.479,0,0,1-.173-.153c-.051-.061,0-.092,0-.061a.774.774,0,0,1,.173.153c0,.061,0,.092-.051.061Zm-.815,3.432s-.061,0,0-.071a.336.336,0,0,1,.194,0c.061,0,.071,0,0,.081a.346.346,0,0,1-.244-.01Zm1.314,7.251c0,.132,0,.265-.061.3s-.122-.061-.143-.194,0-.244.061-.275.071.051.092.173Zm-1.4-8.066c-.061,0-.081-.1-.051-.194s.1-.163.163-.143a.173.173,0,0,1,0,.214.143.143,0,0,1-.163.122Zm-1.018,3.911c0,.112,0,.2-.071.214s-.132-.061-.153-.163,0-.214.071-.224.132.071.153.173Zm.519,2.21c0,.092,0,.173-.071.194s-.132,0-.163-.122a.173.173,0,0,1,.081-.2.153.153,0,0,1,.153.132Zm-3.727-6.182c-.081,0-.1-.081,0-.163a.224.224,0,0,1,.224-.112.1.1,0,0,1,0,.173.214.214,0,0,1-.224.1Zm1.405,5.7c0,.1,0,.193-.092.2s-.132,0-.153-.143a.183.183,0,0,1,.081-.214c.071-.061.143.061.163.153Zm-1.018-4.339a.53.53,0,0,1-.234.1c-.061,0-.071,0,0-.092a.509.509,0,0,1,.234-.092C18.577,12.069,18.577,12.11,18.526,12.151Zm1.436,2.882c0,.112,0,.214-.071.224s-.143-.071-.173-.183,0-.214.081-.224S19.941,14.921,19.962,15.033ZM18.587,12.6c.071,0,.081,0,0,.1a.356.356,0,0,1-.2.143c-.061,0-.081,0,0-.112a.326.326,0,0,1,.2-.132Zm.906,7.75c0,.132,0,.265-.071.275s-.163-.081-.194-.214,0-.244.081-.265S19.463,20.2,19.493,20.349Zm1.528-.4c0,.143,0,.265-.061.285s-.153-.071-.183-.214,0-.244.071-.265.143.041.173.173Zm2.913-5.713c0,.092,0,.173-.071.183s-.122,0-.143-.132,0-.183.071-.193S23.913,14.106,23.934,14.238Zm-2.8-1.792c-.061,0-.081,0,0-.081a.3.3,0,0,1,.183-.112c.061,0,.071,0,0,.071a.305.305,0,0,1-.183.081Zm-.672,4.96a.173.173,0,0,1-.081.2c-.071,0-.143,0-.163-.143s0-.183.092-.193.132.02.153.092Zm-.5-4.96q.1,0,0,.092a.367.367,0,0,1-.183.122c-.071,0-.081,0,0-.092a.336.336,0,0,1,.183-.163Zm0-.316a.876.876,0,0,1-.214.071c-.071,0-.071,0,0-.061a.61.61,0,0,1,.224-.061c0-.041.01-.02-.051.01Zm5.581-.356a.081.081,0,0,1,0-.112c.051-.061,0-.132.092-.122s.061.081.051.143-.143.061-.183.051Zm-1.752.1h0a.132.132,0,0,1,0,.051.2.2,0,0,1-.132.112c-.061,0-.092,0-.061-.081h.092a.255.255,0,0,0,.061-.122Zm.418,1.171c0-.112,0-.214.081-.224s.112.081.122.194,0,.2-.071.214-.2-.112-.2-.224Zm.1,2.923s.112,0,.132.092a.173.173,0,0,1-.061.183c-.061,0-.122,0-.143-.1a.143.143,0,0,1,.031-.214Zm.407,2.454a.306.306,0,0,1,.061-.275s.1,0,.122.163a.326.326,0,0,1-.061.285.351.351,0,0,1-.163-.214Zm-.825-10.3V8.067a1.6,1.6,0,0,1,.122.194h0Zm.1,1.9V9.859a.387.387,0,0,1,.143.234v.183a.418.418,0,0,1-.143-.265Zm-.081-1.691h0l.153.153h0Zm-1.018.244v-.1a.5.5,0,0,1,.173.183V8.78a.54.54,0,0,1-.143-.214ZM22.783,9.6V9.431a.428.428,0,0,1,.173.255c0,.112,0,.193,0,.173a.418.418,0,0,1-.143-.285Zm.163-1.945V7.6a.947.947,0,0,1,.163.183h0a.621.621,0,0,1-.132-.153Zm.642,3.31a.141.141,0,0,1,0,.183c-.081.081-.092.122-.143.1s-.071-.081,0-.163.122-.173.173-.153ZM23,7.283V7.2a.774.774,0,0,1,.143.224V7.5a.713.713,0,0,1-.112-.244Zm.713,4.532h0a.082.082,0,0,0-.061,0h-.143a.509.509,0,0,1,.234-.031ZM25.2,16.754a.224.224,0,0,1-.061.224.127.127,0,0,1-.122-.1.224.224,0,0,1,.061-.224s.143-.02.153.071Zm-.438-1.742a.132.132,0,0,1-.061.163.112.112,0,0,1-.143-.092.143.143,0,0,1,.071-.163.1.1,0,0,1,.163.061Zm1.018-4.389V10.46a.589.589,0,0,1,.1.194.44.44,0,0,1,0,.183c0-.01-.02-.132-.041-.244Zm-.3,1.4h0a.076.076,0,0,1,.061-.031Zm-1.018-.183a.519.519,0,0,1,.173,0q.076,0,0,0h-.173c.051,0,.051-.02.092-.031Zm-.356-2.6a.611.611,0,0,1-.163-.163V8.983a.479.479,0,0,1,.153.163c.163,0,.153.081.1.061Zm.479,2.332Zm.479-2.037v.092a.468.468,0,0,1-.143-.143V9.4a.448.448,0,0,1,.234.092Zm-.153.866v-.163c0,.02.1.1.132.214a.284.284,0,0,1,0,.183c0-.01-.02-.163-.041-.275Zm-6.029,7.373a.183.183,0,0,1-.1.2c-.071,0-.143,0-.163-.153a.173.173,0,0,1,.1-.2c.163-.051.234.01.255.112Zm5.571-6.345c0-.071.071-.132.122-.122a.143.143,0,0,1,0,.173.112.112,0,0,1-.122.092.954.954,0,0,0,.092-.183Zm.234.56h-.163a.866.866,0,0,1,.255-.041Zm.265-2.841h0l.153.092h0a.662.662,0,0,1-.153-.092Zm-.9-.53a.652.652,0,0,1,.173.132s0,.071,0,0a.622.622,0,0,1-.163-.132s-.051-.061-.01-.031ZM15.593,18.6a.153.153,0,0,1-.163-.153.173.173,0,0,1,.132-.2c.081,0,.153,0,.163.153a.173.173,0,0,1-.132.173Zm-6.365-.122a.122.122,0,0,1-.143-.153.234.234,0,0,1,.173-.214.143.143,0,0,1,.153.163.224.224,0,0,1-.183.173ZM8.3,17.253c-.092,0-.163-.061-.173-.183a.224.224,0,0,1,.132-.255.209.209,0,0,1,.183.2c.01.122-.051.194-.143.2Zm-.458,4.6a.224.224,0,0,1-.194.224.183.183,0,0,1-.194-.183.224.224,0,0,1,.194-.224.183.183,0,0,1,.194.183Zm0-9.247c-.092,0-.153-.112-.132-.255s.132-.265.224-.265.163.112.132.255A.379.379,0,0,1,7.842,12.609Zm-.326,5.917a.3.3,0,0,1-.2.2.122.122,0,0,1-.132-.163.234.234,0,0,1,.194-.2c.041-.051.1.061.092.163Zm0-2.841a.326.326,0,0,1-.194.275c-.081,0-.143-.092-.132-.224a.326.326,0,0,1,.194-.285c.071-.01.122.092.112.234Zm10.928-.153c-.071,0-.143-.071-.173-.183s0-.234.081-.244.153.081.173.194-.031.224-.1.234Zm-8.392-3.239a.251.251,0,0,1-.224.234c-.092,0-.143-.092-.1-.224s.132-.234.224-.234.122.132.081.224Zm.244,4.4a.2.2,0,0,1-.132.244.19.19,0,0,1-.173-.194.214.214,0,0,1,.122-.255c.061-.01.143.081.163.2ZM9.523,7.374c0-.132,0-.224.153-.214a.346.346,0,0,1,.244.255c0,.132-.061.234-.163.214A.316.316,0,0,1,9.5,7.374Zm1.6,12.975a.224.224,0,0,1-.173.214.163.163,0,0,1-.173-.173.2.2,0,0,1,.183-.2.153.153,0,0,1,.163.163Zm-.917-1.12a.224.224,0,0,1-.194.194c-.092,0-.153,0-.143-.153a.255.255,0,0,1,.193-.194.122.122,0,0,1,.143.122Zm-.143,2.454a.183.183,0,1,1-.367,0,.2.2,0,0,1,.173-.224c.1-.01.183.071.193.194Zm-.927-6c-.081,0-.132-.081-.112-.214a.326.326,0,0,1,.193-.275c.081,0,.132.092.112.224a.266.266,0,0,1-.194.234ZM4.583,17.62a.234.234,0,0,1-.173.234.167.167,0,0,1-.163-.183c0-.112.071-.234.163-.244a.148.148,0,0,1,.173.163Zm-.316-3.381c0-.153.092-.3.194-.306s.173.112.173.265-.1.3-.194.306S4.257,14.432,4.268,14.238Zm.316,6.773a.316.316,0,0,1-.255.193c-.112,0-.173,0-.132-.153a.336.336,0,0,1,.265-.194c.1.031.163.1.122.194ZM5.816,8.79a.255.255,0,0,1,.224-.255.234.234,0,0,1,.183.275A.255.255,0,0,1,6,9.065a.234.234,0,0,1-.193-.244Zm-1.874,11.2a.387.387,0,0,1-.275.194c-.1,0-.153,0-.1-.143a.428.428,0,0,1,.265-.193c.112,0,.153.061.112.153Zm-.591-.906a.336.336,0,0,1-.244.2c-.1,0-.153-.061-.112-.153a.367.367,0,0,1,.244-.214c.1,0,.153.071.112.173ZM5.48,22.06a.244.244,0,0,1-.214.214.173.173,0,0,1-.194-.183.255.255,0,0,1,.224-.214.163.163,0,0,1,.183.194ZM5.4,16.275c-.092,0-.163-.081-.153-.224a.285.285,0,0,1,.173-.285c.1,0,.163.092.153.234S5.49,16.275,5.4,16.275Zm1.141,1.018a.224.224,0,0,1-.153.244c-.092,0-.163-.071-.173-.194a.234.234,0,0,1,.153-.244.173.173,0,0,1,.173.194Zm0-2.984c-.092,0-.163-.1-.143-.244s.112-.275.2-.285.163.1.143.244-.143.214-.234.275Zm.285,6.5a.285.285,0,0,1-.234.2.122.122,0,0,1-.143-.163.265.265,0,0,1,.234-.194C6.824,20.634,6.885,20.705,6.824,20.807ZM6.07,19.789a.346.346,0,0,1-.244.193A.112.112,0,0,1,5.7,19.83a.357.357,0,0,1,.244-.194c.143-.061.194,0,.163.1ZM4.95,7.109a.193.193,0,0,1-.194.224.255.255,0,0,1-.244-.224.2.2,0,0,1,.2-.224.244.244,0,0,1,.234.224ZM9.024,20.593a.244.244,0,0,1-.2.2.143.143,0,0,1-.163-.163.244.244,0,0,1,.2-.2.143.143,0,0,1,.183.132Zm7.037.4c0,.122,0,.244-.1.255s-.183-.081-.214-.214,0-.234.112-.244a.194.194,0,0,1,.224.173ZM15.44,12.2a.387.387,0,0,1-.234.143c-.081,0-.1-.061,0-.143a.346.346,0,0,1,.244-.143A.11.11,0,0,1,15.44,12.2Zm1.324,7.272c0,.112,0,.214-.122.224s-.163-.061-.173-.173a.173.173,0,0,1,.122-.214.26.26,0,0,1,.173.193Zm-1.792-8.188c-.081,0-.1-.092-.051-.183a.265.265,0,0,1,.234-.143c.092,0,.112.092.061.173a.316.316,0,0,1-.244.153Zm8.392,4.2a.153.153,0,0,1,.071-.183.132.132,0,0,1,.143.112c0,.081,0,.163-.071.173s-.1-.02-.122-.1Zm-8.249.407c0-.122,0-.234.092-.244s.153.071.183.194,0,.234-.1.244-.132-.071-.153-.194Zm2.811,1.12c-.081,0-.153,0-.163-.153a.183.183,0,0,1,.1-.214.166.166,0,0,1,.153.163c.01.1.01.193-.071.2Zm-.489-3.055c0,.122,0,.265-.081.275a.2.2,0,0,1-.173-.234.246.246,0,0,1,.173-.224c.071-.01.122.081.1.2Zm-.56,1.833c-.071,0-.143-.071-.173-.193s0-.234.092-.244.153.081.173.2.041.244-.071.255Zm-2.037,1.589a.193.193,0,0,1-.132.214.166.166,0,0,1-.153-.163.183.183,0,0,1,.122-.214c.051,0,.122.081.132.183Zm2.169-4.318c-.071,0-.092,0,0-.132a.346.346,0,0,1,.214-.153c.071,0,.092,0,0,.122A.407.407,0,0,1,17.008,13.057Zm.886,7.608c0,.132,0,.255-.081.275s-.173-.092-.2-.224,0-.234.092-.255.112.081.143.2Zm-.57-2.4c-.071,0-.143,0-.163-.153a.134.134,0,1,1,.112.153Zm-4.176,1.8a.183.183,0,0,1-.153.214.169.169,0,0,1-.173-.163.2.2,0,0,1,.163-.214.153.153,0,0,1,.112.163ZM12.13,16.408c0,.122,0,.224-.112.234s-.163-.071-.183-.193,0-.234.112-.244.081.071.1.2Zm-1.568-2.78a.272.272,0,0,1-.214.244c-.092.01-.122-.081-.092-.214a.326.326,0,0,1,.214-.244C10.562,13.414,10.6,13.505,10.562,13.627Zm1.568,5.3a.214.214,0,0,1-.173.2.132.132,0,0,1-.143-.153.224.224,0,0,1,.163-.2.143.143,0,0,1,.153.153Zm-1.018-8.147a.255.255,0,0,1,.234-.2c.092,0,.143.112.1.234s-.143.214-.234.2-.122-.163-.081-.285ZM12.13,21.49c0,.122,0,.234-.132.244a.214.214,0,0,1-.214-.2.2.2,0,0,1,.4-.092Zm-.9-3.483a.234.234,0,0,1-.163.214.147.147,0,0,1-.153-.163.214.214,0,0,1,.163-.214.143.143,0,0,1,.2.112Zm1.792-.275a.183.183,0,0,1-.143.2c-.081,0-.153,0-.153-.163a.214.214,0,0,1,.143-.214c.132-.061.2.01.2.122Zm1.11,3.534a.183.183,0,0,1-.122.244.226.226,0,0,1-.2-.2c-.02-.122,0-.234.122-.244s.234.02.255.153Zm-.183-2.617a.183.183,0,0,1-.143.2c-.081,0-.153,0-.153-.153a.183.183,0,0,1,.143-.2.143.143,0,0,1,.153.153Zm-.2-2.526a.2.2,0,0,1-.1.244.218.218,0,0,1-.183-.2c-.02-.122,0-.234.1-.244s.173.081.193.2Zm-1.018-1.314a.346.346,0,0,1-.194.255c-.071,0-.112-.081-.092-.214a.3.3,0,0,1,.193-.244c.071-.01.163.071.132.2Zm2.241,4.99a.2.2,0,0,1-.132.224.2.2,0,0,1-.183-.173.2.2,0,0,1,.143-.224A.173.173,0,0,1,14.971,19.8Zm-2.8-12.028a.173.173,0,0,1-.193.214c-.1,0-.143-.143-.183-.275s0-.234.132-.214a.4.4,0,0,1,.255.275ZM5.714,12.151c.1,0,.173.122.153.275a.306.306,0,0,1-.214.3c-.1,0-.173-.122-.153-.275a.365.365,0,0,1,.224-.3Zm4.98-3.157a.2.2,0,0,1,.132.265.244.244,0,0,1-.234.214c-.1,0-.163-.132-.132-.265a.234.234,0,0,1,.244-.214ZM9.553,2.017c0-.112.061-.194.143-.183a.234.234,0,0,1,.163.234c0,.112-.061.194-.153.183A.244.244,0,0,1,9.553,2.017ZM10.8,15.145a.326.326,0,0,1,.194-.265c.081,0,.122.081.092.214a.316.316,0,0,1-.183.265C10.816,15.369,10.765,15.257,10.8,15.145ZM9.37,4.6a.183.183,0,0,1,.194-.173.2.2,0,0,1,.163.224.183.183,0,0,1-.194.173A.2.2,0,0,1,9.37,4.6ZM10.327.9c0-.122,0-.214.092-.193a.356.356,0,0,1,.2.265c0,.122,0,.214-.1.194A.326.326,0,0,1,10.327.9Zm.153,5.265a.163.163,0,0,1,.173-.183.285.285,0,0,1,.2.234c0,.122-.061.2-.163.193a.275.275,0,0,1-.214-.244Zm0-2.566a.153.153,0,0,1,.173-.163.224.224,0,0,1,.153.224.143.143,0,0,1-.173.153A.2.2,0,0,1,10.5,3.6ZM7.659,1.752c0-.112.071-.193.163-.183a.2.2,0,0,1,.153.224c0,.122-.081.2-.173.193s-.132-.112-.122-.234Zm.733,3.962a.224.224,0,0,1,.194.224.173.173,0,0,1-.194.194A.234.234,0,0,1,8.2,5.908a.183.183,0,0,1,.214-.193Zm-.2,3.259a.244.244,0,0,1,.234-.234A.214.214,0,0,1,8.586,9a.255.255,0,0,1-.234.234.214.214,0,0,1-.143-.265ZM8.494,3.29a.194.194,0,0,1,.2-.173.183.183,0,0,1,.143.214.174.174,0,0,1-.2.173.183.183,0,0,1-.122-.214Zm14.391,9.93c0-.122,0-.234.071-.244s.132.092.153.214,0,.224-.081.234S22.905,13.3,22.885,13.22Zm-13.851-2.6a.243.243,0,0,1,.234-.234c.1.01.153.122.122.255s-.132.244-.234.234-.153-.153-.122-.3Zm5.092,3.982a.316.316,0,0,1,.193-.234c.071,0,.112.071.081.194s-.112.234-.183.244-.122-.122-.1-.244Zm-.428-2.5c.081,0,.1.081,0,.183a.305.305,0,0,1-.234.173c-.081,0-.1-.071-.061-.173a.326.326,0,0,1,.285-.224Zm-1.13-8.229a.244.244,0,0,1,.163.224c0,.1,0,.163-.143.143a.244.244,0,0,1-.173-.214c-.01-.153.051-.214.143-.193Zm1.426,9.258c.071,0,.1.071,0,.173a.336.336,0,0,1-.214.193c-.081,0-.1-.071-.061-.163a.336.336,0,0,1,.234-.244Zm-5.408.489c.092,0,.143.092.112.234a.3.3,0,0,1-.214.255c-.092.01-.143-.092-.112-.224a.306.306,0,0,1,.2-.306Zm3.29-1.528c.092,0,.122.092.081.2a.326.326,0,0,1-.234.214c-.081,0-.122-.092-.081-.2a.285.285,0,0,1,.275-.255Zm1.273-9.166c0-.112,0-.183.112-.153a.285.285,0,0,1,.173.244c0,.112,0,.173-.112.153a.306.306,0,0,1-.183-.3ZM13,6.641c0,.122,0,.2-.132.183a.326.326,0,0,1-.224-.255c0-.112,0-.193.153-.173a.316.316,0,0,1,.193.193Zm-1.538-1.66a.143.143,0,0,1,.163-.163.244.244,0,0,1,.173.224.153.153,0,0,1-.163.163.244.244,0,0,1-.183-.275Zm.6,8.545a.326.326,0,0,1,.224-.214c.081,0,.112.071.071.183s-.132.214-.214.224-.122-.132-.092-.244Zm-.672-11.06c0-.112,0-.183.122-.163a.255.255,0,0,1,.173.234c0,.112,0,.183-.132.163a.265.265,0,0,1-.173-.285Zm1.2,7.129a.214.214,0,0,1,.234-.183.177.177,0,0,1,.112.244.224.224,0,0,1-.234.183.325.325,0,0,1-.122-.326Zm-.519-8.147c0-.122,0-.214.081-.183a.377.377,0,0,1,.2.275c0,.122,0,.2-.092.183s-.173-.255-.2-.387Zm1.018,9.573a.265.265,0,0,1,.234-.183c.092,0,.132.112.081.214a.265.265,0,0,1-.234.173c-.081-.122-.122-.214-.071-.316ZM1.946,10.664a.275.275,0,0,1,.214-.306.255.255,0,0,1,.214.285c0,.163-.092.306-.2.306s-.214-.234-.214-.4ZM3.219,12.7c0-.173.092-.306.2-.316s.194.122.194.285-.092.306-.2.316-.183-.234-.183-.4Zm0,3.748c0-.143.081-.275.173-.285s.173.092.173.234a.265.265,0,0,1-.163.285.53.53,0,0,1-.183-.346ZM1.844,7.283a.244.244,0,0,1,.234-.234.194.194,0,0,1,.224.2.244.244,0,0,1-.234.234.219.219,0,1,1-.224-.377ZM13.749,5.531c0,.1,0,.173-.143.153a.285.285,0,0,1-.183-.224c0-.1.051-.173.143-.153a.265.265,0,0,1,.183.1ZM2.689,4.451a.377.377,0,0,1,.285-.214c.112,0,.153.081.1.2a.377.377,0,0,1-.285.214c-.112-.112-.163-.2-.1-.326Zm.7,1.436a.285.285,0,0,1,.265-.214.15.15,0,0,1,.153.2.275.275,0,0,1-.255.214.182.182,0,0,1-.163-.326Zm.1,2.76a.234.234,0,0,1,.214.265.255.255,0,0,1-.224.265.244.244,0,0,1-.214-.265.255.255,0,0,1,.224-.387ZM1.3,20.349a.448.448,0,0,1,.3-.194c.1,0,.143,0,.092.143a.458.458,0,0,1-.306.183C1.284,20.492,1.243,20.431,1.3,20.349ZM.011,22.569a.346.346,0,0,1,.285-.2c.122,0,.194.061.163.163a.367.367,0,0,1-.285.214c-.122,0-.2-.081-.163-.183Zm2.037-8.015c0-.173.071-.316.183-.326s.194.112.194.275-.081.306-.183.316-.173-.112-.173-.275ZM1.8,21.367a.418.418,0,0,1,.3-.183c.112,0,.163,0,.122.143a.428.428,0,0,1-.3.194C1.813,21.51,1.732,21.449,1.8,21.367Zm.407-3.412a.244.244,0,0,1,.183-.234.174.174,0,0,1,.173.183.244.244,0,0,1-.194.234c-.092,0-.163-.081-.163-.2ZM2.6,22.345a.3.3,0,0,1,.255-.214c.122,0,.194.071.173.173a.285.285,0,0,1-.255.214.153.153,0,0,1-.173-.193ZM4.981,4.309a.275.275,0,0,1,.255-.194c.112,0,.163.092.132.2a.306.306,0,0,1-.255.2.166.166,0,0,1-.132-.234Zm1.5-1.192A.224.224,0,0,1,6.7,2.934c.092,0,.153.1.122.214a.234.234,0,0,1-.224.183A.179.179,0,0,1,6.478,3.1ZM5.805,1.589A.224.224,0,0,1,6,1.386a.183.183,0,0,1,.132.224.214.214,0,0,1-.194.2C5.805,1.8,5.744,1.712,5.805,1.589Zm1.283,8.646c.1,0,.173.122.153.265s-.122.265-.224.265-.183-.122-.163-.275.071-.265.183-.255ZM5.368,18.648a.126.126,0,0,1,.132.163.336.336,0,0,1-.234.2c-.092,0-.143-.061-.122-.163a.306.306,0,0,1,.173-.2ZM7.292,6.936a.285.285,0,0,1,.244.244c0,.122,0,.224-.163.214a.3.3,0,0,1-.255-.244.173.173,0,0,1,.122-.214ZM6.783.337c0-.132,0-.224.122-.214a.255.255,0,0,1,.183.244c0,.122,0,.214-.122.2A.275.275,0,0,1,6.732.337ZM8.066,19.331a.112.112,0,0,1,.132.143.265.265,0,0,1-.214.193c-.1,0-.153,0-.132-.143a.265.265,0,0,1,.214-.193ZM4.38,3.036a.306.306,0,0,1,.255-.2c.1,0,.143.092.1.2a.306.306,0,0,1-.255.214A.145.145,0,0,1,4.38,3.036ZM3.769,1.549a.24.24,0,0,1,.214-.224c.092,0,.143.1.122.224a.285.285,0,0,1-.224.214C3.83,1.763,3.769,1.661,3.769,1.549ZM4.41,10.48a.255.255,0,0,1,.214-.285c.112,0,.2.122.194.275s-.112.285-.224.285-.153-.122-.143-.275ZM4.858.215c0-.122,0-.224.122-.214s.173.1.183.224-.051.224-.132.224S4.909.347,4.9.215ZM7.394,4.207a.183.183,0,0,1,.153.214.224.224,0,0,1-.224.183A.173.173,0,0,1,7.17,4.39a.214.214,0,0,1,.265-.183ZM5.805,5.765a.244.244,0,0,1,.234-.2.194.194,0,0,1,.173.214.214.214,0,0,1-.224.2.193.193,0,0,1-.183-.214ZM8.5.561c0-.122,0-.214.112-.2S8.79.49,8.81.612s0,.214-.112.2A.306.306,0,0,1,8.545.561ZM19.952,8.535c0-.122,0-.193.061-.163a.377.377,0,0,1,.193.255c0,.122,0,.2-.061.173a.4.4,0,0,1-.153-.265Zm-.336-3.829V4.573a.56.56,0,0,1,.173.275v.132a.642.642,0,0,1-.132-.275ZM20.7,16.214c0-.092,0-.183.081-.194s.132,0,.153.143,0,.173-.081.194-.092-.081-.112-.143ZM19.341,5.429c0-.092,0-.143.051-.1a.519.519,0,0,1,.183.224c0,.092,0,.132-.051.1a.519.519,0,0,1-.143-.224Zm.886,2.037V7.354a.377.377,0,0,1,.194.2c0,.092,0,.153-.061.122a.387.387,0,0,1-.092-.2Zm1.018,10.775c.061,0,.132,0,.163.153s0,.2-.081.224-.143,0-.163-.153.081-.153.153-.214ZM18.74,6.773a.407.407,0,0,1,.194.214c0,.1,0,.153-.081.132a.428.428,0,0,1-.194-.224c.041-.092.071-.143.153-.112Zm.581,2.892c0-.112.122-.194.194-.163a.192.192,0,0,1,.071.244c-.041.1-.112.173-.183.153a.183.183,0,0,1-.01-.224Zm1.629,2.342a.662.662,0,0,1,.2,0q.092,0,0,0h-.214q-.01.041.081.01ZM19.076,6.2c0-.081,0-.132.061-.1a.469.469,0,0,1,.194.2c0,.092,0,.132-.061.112a.5.5,0,0,1-.122-.2Zm.825,5.459a.469.469,0,0,1-.224.061c-.071,0-.071,0,0-.081a.468.468,0,0,1,.224-.061c.163.02.163.061.071.092Zm.265,1.63c.061,0,.122.092.153.224s0,.255-.071.265-.143-.092-.173-.224a.227.227,0,0,1,.163-.255Zm-.367-2.4a.081.081,0,0,1,0,.143.275.275,0,0,1-.224.081c-.071,0-.081-.071,0-.143a.224.224,0,0,1,.3-.071Zm2.485,1.018h.2q-.067-.017-.132-.041Zm-.489-4.389V7.435a.774.774,0,0,1,.183.183V7.69a.428.428,0,0,1-.112-.214Zm.815,10.307c.061,0,.132,0,.153.132s0,.214-.071.234-.122,0-.153-.143a.239.239,0,0,1,.143-.265ZM21.591,8.077V7.965a.52.52,0,0,1,.183.2c0,.092,0,.143,0,.112a.407.407,0,0,1-.112-.244Zm-.509,3.7a.844.844,0,0,1,.224,0h0a.844.844,0,0,1-.224,0ZM22,6.4v-.1a.774.774,0,0,1,.153.244c0,.092,0,.132,0,.092a.723.723,0,0,1-.132-.234Zm-.122.5c0-.071,0-.1,0-.071a.651.651,0,0,1,.173.194v.071A.54.54,0,0,1,21.9,6.9ZM18.292,3.912V3.759a.692.692,0,0,1,.183.285c0,.122,0,.183,0,.143a.438.438,0,0,1-.163-.275Zm2.984,7.333c.061,0,.071.071,0,.122a.306.306,0,0,1-.214,0c-.061,0-.071-.061,0-.1a.265.265,0,0,1,.234-.02Zm-.723-4.4V6.753a.519.519,0,0,1,.183.2c0,.071,0,.112,0,.092a.519.519,0,0,1-.163-.2Zm.957,2.037a.458.458,0,0,1,.183.255v.183a.489.489,0,0,1-.183-.265c-.071-.1-.041-.173.02-.153Zm-.6,1.283a.153.153,0,0,1,.173-.153c.071.02.092.132.061.234s-.112.153-.173.132S20.878,10.287,20.909,10.165Zm0-4.644V5.4a.652.652,0,0,1,.163.265v.112a.611.611,0,0,1-.173-.234Zm-.2.621V6.05a.631.631,0,0,1,.173.214v.081a.519.519,0,0,1-.183-.183ZM18.261,19.015a.183.183,0,0,1,.173.163c.02.1,0,.214-.1.234s-.153-.061-.173-.173a.183.183,0,0,1,.1-.224Zm1.579-.356c.071,0,.143,0,.173.163a.194.194,0,0,1-.092.224c-.071,0-.153,0-.173-.163s.02-.2.092-.224ZM15.919,8.627c0-.132.071-.224.163-.193a.244.244,0,0,1,.153.275.179.179,0,0,1-.2.183C15.949,8.871,15.9,8.749,15.919,8.627Zm-1.09-5.194c0-.1,0-.173.092-.143a.356.356,0,0,1,.183.244c0,.112,0,.173-.092.143A.336.336,0,0,1,14.829,3.433Zm1.477,13.5a.166.166,0,0,1,.153.163c.01.1,0,.2-.112.214s-.143-.061-.153-.163a.173.173,0,0,1,.112-.214Zm.081-6.691a.244.244,0,0,1,.234-.143c.081,0,.112.112.071.2a.234.234,0,0,1-.234.132C16.377,10.429,16.346,10.338,16.387,10.246Zm-1.018-7.76c0-.132,0-.214.071-.173a.489.489,0,0,1,.194.285c0,.122,0,.194-.071.163a.448.448,0,0,1-.224-.275Zm-.784,7.384a.224.224,0,0,1,.234-.163.153.153,0,0,1,.092.224.255.255,0,0,1-.244.163c-.112-.02-.153-.112-.112-.224Zm-.825-7.995c0-.132,0-.214.081-.193a.479.479,0,0,1,.193.285c0,.132,0,.2-.081.173a.4.4,0,0,1-.224-.265Zm.631,2.454a.275.275,0,0,1,.173.224c0,.1,0,.163-.112.132a.265.265,0,0,1-.183-.224c-.051-.092.01-.163.092-.132ZM16.01,5c0-.092,0-.153.1-.122A.377.377,0,0,1,16.3,5.1c0,.092,0,.153-.1.122A.3.3,0,0,1,15.99,5ZM14.819,6.794a.346.346,0,0,1,.214.244c0,.122,0,.2-.122.183a.387.387,0,0,1-.214-.265c-.051-.112,0-.194.092-.163Zm.855,6.284a.336.336,0,0,1-.214.183c-.071,0-.1-.061-.051-.143a.306.306,0,0,1,.224-.173c.041-.01.061.051.01.132Zm.234,1.018c.071,0,.1.061.071.183s-.061.255-.132.265-.153-.092-.132-.214a.316.316,0,0,1,.163-.275ZM15.45,5.714a.316.316,0,0,1,.193.224c0,.1,0,.163-.112.143a.3.3,0,0,1-.194-.224c-.051-.143,0-.2.081-.183Zm3.412,7.862c.061,0,.071.061.112.2s0,.265-.071.275-.143-.092-.183-.234a.194.194,0,0,1,.112-.285Zm-.336-2.129c.071,0,.081.061,0,.112a.346.346,0,0,1-.234.081c-.071,0-.081-.061,0-.112a.326.326,0,0,1,.2-.122ZM17.65,5.633c0-.092,0-.143.081-.112a.387.387,0,0,1,.183.214c0,.092,0,.143-.081.112a.356.356,0,0,1-.214-.255Zm1.018,2.5c0,.112,0,.193-.081.173a.458.458,0,0,1-.2-.275c0-.112,0-.183.081-.163a.4.4,0,0,1,.173.265Zm-.906,1.018a.172.172,0,0,1,.2-.173.216.216,0,0,1,.092.265c-.031.122-.122.183-.2.163a.2.2,0,0,1-.122-.255Zm.224-4.42c0-.1,0-.163.071-.122a.5.5,0,0,1,.183.234c0,.1,0,.153-.061.112a.468.468,0,0,1-.224-.224ZM16.9,3.168c0-.122,0-.194.061-.163a.52.52,0,0,1,.193.285c0,.122,0,.193-.061.153a.489.489,0,0,1-.224-.275Zm-.428.886c0-.1,0-.163.081-.132a.428.428,0,0,1,.183.244c0,.1,0,.153-.081.122a.4.4,0,0,1-.214-.234Zm.143,3.4c0-.122,0-.194.092-.163a.346.346,0,0,1,.214.255c0,.122,0,.194-.092.173a.367.367,0,0,1-.244-.265Zm.4,4.746a.407.407,0,0,1-.234.122c-.071,0-.081-.051,0-.122a.387.387,0,0,1,.234-.112C17.069,12.09,17.09,12.14,17.008,12.2Zm-.132-1.018c.081,0,.092.081,0,.153a.306.306,0,0,1-.244.112c-.071,0-.092-.071,0-.143a.285.285,0,0,1,.265-.122ZM14.055,7.934a.3.3,0,0,1,.224.285.2.2,0,0,1-.214.193.233.233,0,0,1-.132-.275c.02-.132.02-.234.143-.2ZM17.11,6.346c0-.1,0-.163.092-.132a.336.336,0,0,1,.194.224c0,.092,0,.153-.092.132a.356.356,0,0,1-.224-.224Z" transform="translate(-2.408 -1.508)" fill="url(#linear-gradient-32)"/>
            </g>
          </g>
        </g>
        <path id="Path_6759" data-name="Path 6759" d="M5.581,8.478a7.536,7.536,0,0,1-5.438,0L0,8.427S.336.473.336.453c.244-.682,4.98-.519,5.041,0l.346,7.974Z" transform="translate(17.024 6.633)" fill="url(#linear-gradient-5)"/>
        <g id="Group_5174" data-name="Group 5174" transform="translate(17.025 6.632)" clip-path="url(#clip-path-8)">
          <path id="Path_6760" data-name="Path 6760" d="M7.506,6.793a.479.479,0,0,0-.061.2.173.173,0,0,0,0,.071.407.407,0,0,0,0-.224Zm-.7.438h0a.244.244,0,0,1-.143.173h0a.143.143,0,0,1,0-.061.305.305,0,0,1,.132-.122h0Zm.672.723a.224.224,0,0,1-.061.163h0a.244.244,0,0,1,.092-.173Zm-.886.367a.265.265,0,0,1-.153.143H6.386a.244.244,0,0,1,.163-.153h0ZM6.141,8a.255.255,0,0,1-.173.163h0A.3.3,0,0,1,6.151,8h0s-.02-.031-.01,0ZM7.16,7.587a.265.265,0,0,1-.122.183h0A.3.3,0,0,1,7.16,7.587ZM5.907,8.871a.275.275,0,0,1-.183.092h0A.265.265,0,0,1,5.866,8.9h0Zm1.1-.234a.163.163,0,0,1-.132.122h0a.234.234,0,0,1,.143-.132h0Zm-1.68,0a.122.122,0,0,1,.081,0,.2.2,0,0,1-.173.1H5.184l.1-.071h.092ZM7.363,9h.051a.081.081,0,0,1,0,.061.112.112,0,0,1-.112.1.193.193,0,0,1-.081,0,.153.153,0,0,1,.122-.112ZM6.3,9.166h0a.244.244,0,0,1-.153.051h.132Zm1.171-4.5c0-.1,0-.183.051-.173s0,0,0,.1v.071a.418.418,0,0,1,0,.173.611.611,0,0,1-.051-.214Zm-.611-.153c.051,0,.081.071.081.153s0,.153-.081.153-.092-.071-.092-.153S6.773,4.512,6.864,4.512Zm.611,1.365a.662.662,0,0,1,0-.224s0,0,0,.122a.581.581,0,0,1,0,.224s0-.071,0-.163Zm-.6.071h0a.153.153,0,0,1,0,.1.173.173,0,0,1-.122.183h0a.122.122,0,0,1-.01-.122c0-.081.051-.173.112-.183Zm-.591-.672a.112.112,0,0,1,.071,0,.183.183,0,0,1,0,.112.173.173,0,0,1-.153.183.112.112,0,0,1-.071,0,.163.163,0,0,1,0-.122.173.173,0,0,1,.143-.173Zm1.018,0a.275.275,0,0,1,0,.153.143.143,0,0,1,0-.1q0-.137,0-.153a.193.193,0,0,1,.02.081ZM6.284,6.742a.061.061,0,0,1,0,.071.214.214,0,0,1-.194.173.071.071,0,0,1-.061,0,.122.122,0,0,1,0-.071A.244.244,0,0,1,6.2,6.732ZM7.3,6.518a.234.234,0,0,1-.081.163h0A.346.346,0,0,1,7.3,6.5ZM7.465,2.2a.326.326,0,0,1,0,.153v.122a.693.693,0,0,1-.061-.2V2.2Zm.061,1.456a.662.662,0,0,1,0-.224V3.31a.581.581,0,0,1,0,.224c.02.071.01.122-.01.1Zm-.682-.591a.312.312,0,0,1,.1.183V3.34h0s-.112-.1-.112-.183a.122.122,0,0,1,0-.092h0Zm-.662-.794a.2.2,0,0,1,.163.173.061.061,0,0,1,0,.071H6.263a.214.214,0,0,1-.173-.173.122.122,0,0,1,0-.071.091.091,0,0,1,.061,0Zm1.12.5h0a.255.255,0,0,1-.1-.183h0a.305.305,0,0,1,.092.163Zm-1.018.937a.163.163,0,0,1,.143.173.214.214,0,0,1,0,.122.112.112,0,0,1-.081,0A.173.173,0,0,1,6.2,3.829a.163.163,0,0,1,0-.122.112.112,0,0,1,.071,0ZM7.3,4a.2.2,0,0,1,0,.112.2.2,0,0,1,0-.153c0-.051,0-.092,0-.1a.224.224,0,0,1,.02.122ZM7.455.194a.071.071,0,0,1-.081.081A.153.153,0,0,1,7.251.163s0,0,0,0a.112.112,0,0,1,.081,0,.112.112,0,0,1,.143.01ZM6.162.092a.5.5,0,0,1,.163,0H6.253a.255.255,0,0,1-.132,0Zm1.2,1.018h0a.193.193,0,0,1,.081.163h0A.255.255,0,0,1,7.353,1.1ZM6.416.774a.214.214,0,0,1,.143.153h0A.336.336,0,0,1,6.386.764h.061ZM5.7.275a.185.185,0,0,1,.173.1h0A.529.529,0,0,1,5.724.316Zm1.141.2a.163.163,0,0,1,.132.143h0A.224.224,0,0,1,6.834.479h0Zm-.9.591a.244.244,0,0,1,.173.183H6.05a.244.244,0,0,1-.173-.194h.071Zm1.018.367h0a.285.285,0,0,1,.112.173h0a.275.275,0,0,1-.122-.173h0Zm-.356.346a.285.285,0,0,1,.143.183h0A.275.275,0,0,1,6.6,1.782h0ZM5.418,7.5a.122.122,0,0,1,.092,0,.143.143,0,0,1,0,.061.214.214,0,0,1-.061.1.224.224,0,0,1-.132.061H5.265a.092.092,0,0,1-.081-.092A.224.224,0,0,1,5.306,7.5h.112Zm-1.5,1.212H3.768c-.1,0-.153,0-.143-.061a.234.234,0,0,1,.143,0,.234.234,0,0,1,.2.071Zm-.947-.56c.1,0,.183.061.183.1a.265.265,0,0,1-.143,0c-.092,0-.173,0-.173-.1a.224.224,0,0,1,.132,0Zm1.6,0a.194.194,0,0,1,.132,0h0a.282.282,0,0,1-.194.1.193.193,0,0,1-.122,0h0a.193.193,0,0,1,.183-.1Zm-1.5.866h0Zm1.4,0h0Zm.7.183a.52.52,0,0,1-.224,0H4.807a.662.662,0,0,1,.224,0c.153-.031.214-.031.194-.031Zm-1.222,0H3.585a.366.366,0,0,1,.183,0A1.626,1.626,0,0,1,4,9.166ZM5.5,4.42a.173.173,0,0,1,.163.183.163.163,0,0,1-.163.173.183.183,0,0,1-.163-.1.194.194,0,0,1,0-.071.143.143,0,0,1,0-.071A.193.193,0,0,1,5.5,4.42ZM3.972,4.6a.2.2,0,1,1-.2-.183.194.194,0,0,1,.255.2ZM5.489,6.029a.163.163,0,0,1,.112,0,.153.153,0,0,1,0,.1.193.193,0,0,1-.193.183.132.132,0,0,1-.1,0,.122.122,0,0,1,0-.1.2.2,0,0,1,.183-.194Zm-1.517.081a.163.163,0,0,1,0,.112.2.2,0,0,1-.4,0,.163.163,0,0,1,.112-.112.183.183,0,0,1,.143-.061A.2.2,0,0,1,3.972,6.111ZM2.953,5.225a.193.193,0,0,1,.2.183.214.214,0,0,1-.051.122.2.2,0,0,1-.143,0,.193.193,0,0,1-.194-.183.132.132,0,0,1,.051-.122.153.153,0,0,1,.132,0Zm1.772,0a.173.173,0,0,1,.143,0,.173.173,0,0,1,0,.122.193.193,0,0,1-.2.183.244.244,0,0,1-.143,0,.193.193,0,0,1,0-.122.183.183,0,0,1,.193-.183ZM2.984,6.813a.19.19,0,0,1,.193.163.112.112,0,0,1,0,.081.2.2,0,0,1-.143,0,.19.19,0,0,1-.193-.163.132.132,0,0,1,0-.081.194.194,0,0,1,.132-.051Zm1.731,0a.153.153,0,0,1,.122.051.1.1,0,0,1,0,.081.214.214,0,0,1-.132.183.224.224,0,0,1-.143,0,.112.112,0,0,1,0-.081.224.224,0,0,1,.2-.163Zm-.7.784c0,.061-.081.122-.183.122A.183.183,0,0,1,3.646,7.6a.092.092,0,0,1,0-.061A.2.2,0,0,1,3.8,7.475a.214.214,0,0,1,.193.173ZM5.418,1.436a.173.173,0,0,1,.122.051A.244.244,0,0,1,5.6,1.6a.071.071,0,0,1,0,.061H5.5a.2.2,0,0,1-.193-.143h.132Zm-1.4.071a.092.092,0,0,1,0,.061.193.193,0,0,1-.153.061.2.2,0,0,1-.153-.061.092.092,0,0,1,0-.061A.173.173,0,0,1,3.9,1.385c.02.051.1.1.1.173Zm1.507,1.3a.193.193,0,0,1,.193.244.153.153,0,0,1,0,.1.163.163,0,0,1-.122,0H5.53a.224.224,0,0,1-.112-.173.132.132,0,0,1,.092-.132h.071Zm-1.487.112a.163.163,0,0,1,0,.112A.2.2,0,0,1,3.89,3.1a.183.183,0,0,1-.2-.041.163.163,0,0,1-.051-.112.194.194,0,0,1,.387.031ZM3.025,2.037a.193.193,0,0,1,.132,0,.112.112,0,0,1,0,.081c0,.081-.092.153-.2.163a.193.193,0,0,1-.132,0,.163.163,0,0,1,0-.092.183.183,0,0,1,.194-.153Zm1.68,0A.193.193,0,0,1,4.9,2.19a.122.122,0,0,1,0,.092.173.173,0,0,1-.132,0,.224.224,0,0,1-.2-.163.092.092,0,0,1,0-.081.173.173,0,0,1,.132,0ZM2.994,3.565a.193.193,0,0,1,.132,0,.183.183,0,0,1,.051.122.2.2,0,0,1-.336.132A.153.153,0,0,1,2.791,3.7a.194.194,0,0,1,.193-.183Zm1.742,0a.193.193,0,0,1,.2.183.183.183,0,0,1,0,.122.224.224,0,0,1-.143.051A.183.183,0,0,1,4.6,3.738a.173.173,0,0,1,0-.122.245.245,0,0,1,.143,0ZM5.041.01h0ZM3.687,0h0Zm1.6.479a.183.183,0,0,1,.163.1h-.1A.193.193,0,0,1,5.174.5h.1Zm-1.263,0a.306.306,0,0,1-.153,0A.194.194,0,0,1,3.717.418H3.87c.1,0,.1.092.1.122Zm-.8-.346h0Zm1.314,0h0ZM3.116.845a.224.224,0,0,1,.132,0h0c0,.051-.081.1-.183.112a.173.173,0,0,1-.132,0,.275.275,0,0,1,.173-.1Zm1.517,0c.1,0,.173,0,.183.1h0a.163.163,0,0,1-.132,0A.181.181,0,0,1,4.5.835h0a.193.193,0,0,1,.122,0ZM.927,7.16a.326.326,0,0,1,.143.122v.061h0A.224.224,0,0,1,.927,7.17h0ZM2.4,8.575h.061a.234.234,0,0,1,.1.051h0a.153.153,0,0,1-.112,0,.2.2,0,0,1-.173-.1.153.153,0,0,1,.081,0ZM1.12,8.249h0a.224.224,0,0,1,.153.163h0A.244.244,0,0,1,1.11,8.26ZM.54,7.526a.275.275,0,0,1,.132.183h0A.244.244,0,0,1,.56,7.536h0Zm1.09.387a.244.244,0,0,1,.122.234h-.1a.234.234,0,0,1-.173-.183h0Zm-.886.642A.244.244,0,0,1,.886,8.7H.835A.143.143,0,0,1,.7,8.555H.743Zm1.08.275h0a.265.265,0,0,1,.143.061h0a.234.234,0,0,1-.143-.071Zm-1.507-.8h0a.2.2,0,0,1-.081-.173h0a.305.305,0,0,1,.031.234ZM2.668,9.166a.285.285,0,0,1,.143,0H2.668a.489.489,0,0,1-.214,0h.214Zm-1.3,0H1.5a.592.592,0,0,1-.163,0h.031ZM.255,9.034a.173.173,0,0,1,.122.112h0a.122.122,0,0,1-.081,0,.112.112,0,0,1-.112-.1.071.071,0,0,1,.071-.081ZM2.108,6.09a.214.214,0,0,1,.193.193v.061a.163.163,0,0,1-.153.081.2.2,0,0,1-.183-.183.122.122,0,0,1,0-.1.122.122,0,0,1,.1,0ZM.774,5.948A.194.194,0,0,1,.9,6.131a.122.122,0,0,1,0,.092h0a.214.214,0,0,1-.1-.183.153.153,0,0,1,0-.1h0ZM.4,5.347a.244.244,0,0,1,0,.112A.255.255,0,0,1,.4,5.3a.194.194,0,0,1,0-.1.255.255,0,0,1,0,.112Zm1.018-.071a.173.173,0,0,1,.143.173.214.214,0,0,1,0,.122.142.142,0,0,1-.092,0,.173.173,0,0,1-.132-.183.143.143,0,0,1,0-.112.092.092,0,0,1,.071,0ZM.479,6.661v.061A.255.255,0,0,1,.4,6.538a.285.285,0,0,1,.041.081Zm.968.1a.244.244,0,0,1,.173.183v.071c0,.01,0,0-.081,0a.214.214,0,0,1-.173-.173.122.122,0,0,1,0-.071.071.071,0,0,1,.061,0ZM.122,5.612a.448.448,0,0,1,0,.224c0,.092,0,.153,0,.122a.632.632,0,0,1,0-.224C.1,5.642.1,5.591.122,5.612ZM2.159,7.506a.387.387,0,0,1,.132.061h0a.092.092,0,0,1,0,.071.163.163,0,0,1-.112,0,.234.234,0,0,1-.122-.061.143.143,0,0,1-.051-.1h0a.122.122,0,0,1,.1,0ZM.122,7a.142.142,0,0,1,0,.071h0a.428.428,0,0,1-.051-.214h0A.367.367,0,0,1,.194,7ZM2.078,2.862a.153.153,0,0,1,.143.081V3a.2.2,0,0,1-.2.183.143.143,0,0,1-.143-.143.194.194,0,0,1,.183-.183ZM.754,3.045a.122.122,0,0,1,0,.092A.153.153,0,0,1,.6,3.3h0a.173.173,0,0,1,0-.092c0-.092.051-.173.1-.183ZM.367,2.617a.316.316,0,0,1-.092.173.244.244,0,0,1,.081-.183Zm1.018-.377a.061.061,0,0,1,.061,0v.071a.244.244,0,0,1-.194.183.071.071,0,0,1-.061,0,.142.142,0,0,1,0-.071.214.214,0,0,1,.173-.173ZM.255,3.829h0a.214.214,0,0,1,0,.112A.224.224,0,0,1,.2,4.094a.275.275,0,0,1,0-.112.244.244,0,0,1,0-.153Zm1.018-.143a.112.112,0,0,1,.081,0,.214.214,0,0,1,0,.122.173.173,0,0,1-.153.173.092.092,0,0,1-.071,0,.163.163,0,0,1,0-.122.173.173,0,0,1,.132-.173ZM.051,3.412a.448.448,0,0,1,0,.224V3.514a.631.631,0,0,1,0-.224s.122.02.122.122ZM1.976,4.43h.061a.163.163,0,0,1,.112.163.173.173,0,0,1-.112.163H1.976A.163.163,0,0,1,1.8,4.583.173.173,0,0,1,1.976,4.4Zm-1.314,0a.051.051,0,0,1,.051,0,.153.153,0,0,1,0,.112c0,.082-.051.153-.1.153S.53,4.624.53,4.542s0-.153.092-.153ZM0,4.43v.1a.322.322,0,0,0,.122-.081ZM2.424,0H2.78a.611.611,0,0,1-.214,0C2.465.071,2.4,0,2.424,0ZM1.5,0a.377.377,0,0,1-.153.051h0a.3.3,0,0,1,.143,0Zm.927.428c.092,0,.1,0,.092.051H2.241a.183.183,0,0,1,.173-.1ZM1.263.713A.346.346,0,0,1,1.1.866h0A.224.224,0,0,1,1.253.733h0ZM.8.407h0A.244.244,0,0,1,.631.54h0A.173.173,0,0,1,.774.428ZM1.955.214a.377.377,0,0,1-.143.061H1.752A.285.285,0,0,1,1.915.193ZM.631,1.477a.305.305,0,0,1-.112.173h0a.285.285,0,0,1,.112-.173Zm1.13-.367a.255.255,0,0,1-.173.163h0a.244.244,0,0,1,.173-.153h0s-.01-.041-.01-.01ZM.367.092A.153.153,0,0,1,.224.2.071.071,0,0,1,.153.122.112.112,0,0,1,.265.02.584.584,0,0,1,.356.1ZM.265,1.11h0a.346.346,0,0,1-.092.173h0A.193.193,0,0,1,.255,1.12ZM2.3,1.477a.122.122,0,0,1,.1,0s0,0,0,.061a.194.194,0,0,1-.2.143H2.108c-.02,0,0,0,0-.061a.143.143,0,0,1,0-.061.2.2,0,0,1,.153-.1ZM1.069,1.8h0a.275.275,0,0,1-.153.183h0A.255.255,0,0,1,1.059,1.8h0Zm-.835.438a.906.906,0,0,1,0,.234.2.2,0,0,1,0-.081A.346.346,0,0,1,.3,2.169a.153.153,0,0,1-.1.081Z" transform="translate(-1.018 -0.107)" fill="url(#linear-gradient-34)"/>
        </g>
      </g>
      <path id="Intersection_53" data-name="Intersection 53" d="M0,40.673A160.272,160.272,0,0,1,12.939,0C39.461,20.582,30.551,42.81,30.551,42.81s-7.022,4.55-11.37,20.416A98.071,98.071,0,0,1,0,40.673Z" transform="translate(14.492 130.301)" fill="url(#linear-gradient-35)"/>
      <g id="Group_5979" data-name="Group 5979" transform="translate(64.677 33.186)">
        <g id="Group_5369" data-name="Group 5369">
          <g id="Group_5338" data-name="Group 5338" transform="translate(1.225 5.927)">
            <g id="Group_5337" data-name="Group 5337" transform="translate(0 0)">
              <g id="Group_5336" data-name="Group 5336" clip-path="url(#clip-path-9)">
                <rect id="Rectangle_475" data-name="Rectangle 475" width="26.674" height="23.87" transform="translate(-0.664 -0.08)" fill="url(#linear-gradient-6)"/>
              </g>
            </g>
          </g>
          <path id="Path_6897" data-name="Path 6897" d="M101.3,71.374l.4-.08s2.323-4.886,10.013-8.01A29.2,29.2,0,0,0,109.15,60c.08,0-6.969,3.845-7.85,11.374" transform="translate(-95.933 -48.546)" fill="#f5bd80" fill-rule="evenodd"/>
          <path id="Path_6893" data-name="Path 6893" d="M91.6,62.72a52.955,52.955,0,0,1,11.377-6.008c6.911-2.643,10.7-2.083,10.7-2.083a48.631,48.631,0,0,1-1.6-7.93,55.408,55.408,0,0,0-9.017,4.245A30.019,30.019,0,0,0,91.6,62.72" transform="translate(-91.6 -46.7)" fill="url(#linear-gradient-37)"/>
          <g id="Group_5360" data-name="Group 5360" transform="translate(5.367 13.914)">
            <path id="Path_6896" data-name="Path 6896" d="M112.133,65.5s3.685,4.806,1.762,10.493c0,0-7.53,2.4-12.5-3.524-.08,0,2.323-5.767,10.734-6.969" transform="translate(-101.319 -63.554)" fill="#fce9ec"/>
            <path id="Path_6900" data-name="Path 6900" d="M108.669,67.1s1.842,7.61-1.442,9.372c0,0-4.165-.881-5.928-3.685a11.2,11.2,0,0,1,7.369-5.687" transform="translate(-101.3 -63.872)" fill="#0094d9"/>
            <path id="Path_6902" data-name="Path 6902" d="M101.3,71.985a20.282,20.282,0,0,1,10.814-6.969l.721,1.2s2.723-2.4,1.922-3.044c-.881-.641-9.772,1.6-13.457,8.811" transform="translate(-101.3 -63.07)" fill="#3d1307"/>
            <path id="Path_6904" data-name="Path 6904" d="M101.3,72.966s2.4,2.8,4.406,2.083,1.842-6.008,1.442-7.049a16.408,16.408,0,0,0-5.847,4.966" transform="translate(-101.3 -64.051)"/>
            <path id="Path_6906" data-name="Path 6906" d="M107.9,72.911a7.252,7.252,0,0,1,4.165-.641c0,.08-2.483,1.282-4.165.641" transform="translate(-102.613 -64.877)" fill="#fff"/>
          </g>
        </g>
      </g>
    </g>
  </g>
</svg>
