<svg xmlns="http://www.w3.org/2000/svg" xmlns:xlink="http://www.w3.org/1999/xlink" width="853.436" height="172.042" viewBox="0 0 853.436 172.042">
  <defs>
    <linearGradient id="linear-gradient" x1="0.944" y1="1" x2="0" y2="0.094" gradientUnits="objectBoundingBox">
      <stop offset="0" stop-color="#f8a53f"/>
      <stop offset="0.404" stop-color="#f7600a"/>
      <stop offset="1" stop-color="#f75a05"/>
    </linearGradient>
  </defs>
  <g id="Group_9965" data-name="Group 9965" transform="translate(-1858.781 14287.444)">
    <path id="Path_698" data-name="Path 698" d="M117.754,119.2c-1.238-1.858-2.477-3.1-4.335-1.858a52.449,52.449,0,0,1-27.246,6.812c-21.054,0-35.3-15.481-35.3-39.011S65.119,46.13,86.173,46.13a52.449,52.449,0,0,1,27.246,6.812,2.848,2.848,0,0,0,4.335-1.858l15.481-32.819c.619-1.858,0-3.1-1.858-4.335A95.888,95.888,0,0,0,81.838.307C32.919-.312.1,33.745.1,85.141S32.919,170.6,81.838,170.6a95.882,95.882,0,0,0,49.538-13.623c1.858-1.238,3.1-2.477,1.858-4.335Z" transform="translate(1858.682 -14286.013)" fill="#fff"/>
    <path id="Path_699" data-name="Path 699" d="M119.215,102.354H93.826l13-45.2ZM135.934,3.9A7.109,7.109,0,0,0,130.361.8h-48.3a7.109,7.109,0,0,0-5.573,3.1L22.615,161.181a2.093,2.093,0,0,0,1.858,3.1H71.534a5.517,5.517,0,0,0,4.954-3.1L83.3,136.411h44.585l6.812,24.769a6.316,6.316,0,0,0,4.954,3.1h47.061c1.858,0,3.1-1.858,1.858-3.1Z" transform="translate(1974.255 -14283.408)" fill="#fff"/>
    <path id="Path_700" data-name="Path 700" d="M52.158,151.292a3.622,3.622,0,0,0,1.858,4.335,91.4,91.4,0,0,0,52.635,15.481c36.535,0,60.685-21.054,60.685-52.635,0-52.015-66.877-51.4-66.877-65.019,0-4.954,4.954-8.669,12.385-8.669a93.4,93.4,0,0,1,33.438,12.385c1.858,1.238,3.715.619,4.335-1.858l14.862-33.438a3.622,3.622,0,0,0-1.858-4.335A106.44,106.44,0,0,0,110.365.2C74.45.2,50.3,21.254,50.3,52.835c0,52.015,66.877,50.777,66.877,65.019,0,5.573-4.954,9.288-12.385,9.288A82.661,82.661,0,0,1,71.973,116c-1.858-1.238-3.715-.619-4.335,1.858Z" transform="translate(2117.221 -14286.525)" fill="#fff"/>
    <path id="Path_701" data-name="Path 701" d="M74.715,1.322A3.468,3.468,0,0,0,71,4.418V161.083a3.319,3.319,0,0,0,3.1,3.1H116.2a4.013,4.013,0,0,0,3.715-3.1V4.418A3.567,3.567,0,0,0,116.2.7H74.715Z" transform="translate(2224.701 -14283.932)" fill="#fff"/>
    <path id="Path_702" data-name="Path 702" d="M175.732,1.322a3.468,3.468,0,0,0-3.1,3.715V78.106L131.147,4.418a6.5,6.5,0,0,0-5.573-3.1H84.7a3.468,3.468,0,0,0-3.1,3.715V161.7a2.923,2.923,0,0,0,3.1,3.1h42.108a4.013,4.013,0,0,0,3.715-3.1V88.014L172.016,161.7a6.316,6.316,0,0,0,4.954,3.1h40.869a4.013,4.013,0,0,0,3.715-3.1v-4.335c-19.2-17.958-29.723-43.965-29.723-74.927A102.086,102.086,0,0,1,221.555,7.514v-3.1A3.567,3.567,0,0,0,217.839.7H175.732Z" transform="translate(2279.731 -14283.932)" fill="#fff"/>
    <path id="Path_703" data-name="Path 703" d="M185.915,171.007c-50.777,0-84.215-34.058-84.215-85.454S135.138.1,185.915.1c43.965,0,75.546,26.008,82.358,66.877h0a4.638,4.638,0,0,0-3.1.619,5.573,5.573,0,0,0-3.1-.619H254.65v-.619a8.2,8.2,0,0,0-8.05-8.05h-8.669a8.2,8.2,0,0,0-8.05,8.05V67.6a31.377,31.377,0,0,0-8.05-1.238,11.146,11.146,0,0,0-6.192,1.238,30.491,30.491,0,0,0-29.1-19.2c-19.2,0-32.819,15.481-32.819,37.773s13,37.773,32.819,37.773A29.1,29.1,0,0,0,212.542,109.7h3.1a11.456,11.456,0,0,1,7.431,0h8.669a4.638,4.638,0,0,0,3.1-.619,5.573,5.573,0,0,0,3.1.619H246.6a4.638,4.638,0,0,0,3.1-.619,5.573,5.573,0,0,0,3.1.619h8.669a4.638,4.638,0,0,0,3.1-.619,3.715,3.715,0,0,0,2.477.619c-8.05,37.773-39.012,61.3-81.119,61.3" transform="translate(2386.219 -14287.044)" stroke="rgba(0,0,0,0)" stroke-miterlimit="10" stroke-width="1" fill="url(#linear-gradient)"/>
    <path id="Path_704" data-name="Path 704" d="M250.494,31.135a3.282,3.282,0,0,1,3.716-3.715c1.858,0,3.1,1.238,3.1,3.715Zm12.385,7.431a.619.619,0,0,0-.619-.619,16.491,16.491,0,0,1-7.431,1.858c-4.335,0-4.335-3.1-4.335-3.1h16.1c.619,0,.619,0,.619-.619V33.612a12.428,12.428,0,0,0-13-14.242,13.976,13.976,0,0,0-14.862,14.862A13.821,13.821,0,0,0,254.21,48.473a20.874,20.874,0,0,0,10.527-3.1.619.619,0,0,0,.619-.619ZM216.437,19.988a.619.619,0,0,0-.619-.619h-5.573c-.619,0-.619,0-.619.619V46a.619.619,0,0,0,.619.619h8.669a.619.619,0,0,0,.619-.619V31.135s.619-3.1,3.1-3.1c1.858,0,2.477,1.238,2.477,3.1V46c0,.619,0,.619.619.619h8.669a.619.619,0,0,0,.619-.619V29.277c0-8.05-3.715-11.146-10.527-11.146a11.765,11.765,0,0,0-8.05,3.1Zm-22.292,0a.619.619,0,0,0-.619.619V46.615a.619.619,0,0,0,.619.619h8.669a.619.619,0,0,0,.619-.619V20.608a.619.619,0,0,0-.619-.619ZM178.664,10.7a.619.619,0,0,0-.619.619V46a.619.619,0,0,0,.619.619h8.669a.619.619,0,0,0,.619-.619V11.319a.619.619,0,0,0-.619-.619Zm-24.769,9.288a.619.619,0,0,0-.619-.619H147.7c-.619,0-.619,0-.619.619V46a.619.619,0,0,0,.619.619h8.669a.619.619,0,0,0,.619-.619V31.135s.619-3.1,3.1-3.1c1.858,0,2.477,1.238,2.477,3.1V46c0,.619,0,.619.619.619h8.669a.619.619,0,0,0,.619-.619V29.277c0-8.05-3.715-11.146-10.527-11.146a11.765,11.765,0,0,0-8.05,3.1Zm-26.008,8.05a5.059,5.059,0,0,1,4.954,5.573,4.991,4.991,0,1,1-9.908,0,5.059,5.059,0,0,1,4.954-5.573Zm0-9.288a13.976,13.976,0,0,0-14.862,14.862,13.821,13.821,0,0,0,14.862,14.242,13.976,13.976,0,0,0,14.862-14.862A14.168,14.168,0,0,0,127.887,18.75Z" transform="translate(2444.867 -14232.006)" fill="#fff" fill-rule="evenodd"/>
  </g>
</svg>
