<svg xmlns="http://www.w3.org/2000/svg" xmlns:xlink="http://www.w3.org/1999/xlink" width="230.904" height="234.113" viewBox="0 0 230.904 234.113"><defs><style>.a{opacity:0.2;}.b{fill:url(#a);}.c{fill:none;}.d{fill:url(#b);}.e{fill:url(#c);}.f{fill:url(#d);}.g{fill:url(#e);}.aa,.h{fill:#3d1307;}.al,.h,.k,.l,.m,.n,.o,.r,.s,.x{fill-rule:evenodd;}.i{clip-path:url(#f);}.j{fill:url(#g);}.an,.k{fill:#f7bb80;}.l{fill:#f5bd80;}.m{fill:url(#h);}.n{fill:url(#j);}.o{fill:url(#k);}.p{fill:url(#l);}.q{fill:url(#m);}.r{fill:url(#n);}.t{fill:#f7f7f7;}.u{fill:url(#o);}.v{clip-path:url(#p);}.w{fill:url(#q);}.x{fill:#e17e5a;}.y{clip-path:url(#r);}.z{fill:url(#s);}.ab{fill:#fce9ec;}.ac{fill:url(#t);}.ad{fill:#0094d9;}.ae{fill:#fff;}.af{fill:url(#u);}.ag{fill:url(#v);}.ah{fill:#e5e6e7;}.ai{fill:url(#w);}.aj{fill:url(#x);}.ak{fill:url(#y);}.al{fill:#808184;}.am{fill:url(#z);}.ao{fill:url(#ac);}.ap{clip-path:url(#ae);}.aq{opacity:0.8;}.ar{clip-path:url(#af);}.as{fill:url(#ag);}.at{fill:url(#ai);}.au{fill:url(#ak);}.av{clip-path:url(#am);}.aw{clip-path:url(#an);}.ax{fill:url(#ao);}.ay{clip-path:url(#aq);}.az{fill:url(#ar);}.ba{fill:url(#as);}.bb{fill:url(#at);}.bc{fill:url(#au);}.bd{fill:#3b9443;}.be{fill:url(#av);}</style><linearGradient id="a" x1="0.984" y1="1.041" x2="0.928" y2="0.186" gradientUnits="objectBoundingBox"><stop offset="0" stop-color="#003e10"/><stop offset="0.88" stop-color="#378b3f"/><stop offset="1" stop-color="#3e9645"/></linearGradient><linearGradient id="b" x1="0.529" y1="0.917" x2="0.473" y2="0.06" xlink:href="#a"/><linearGradient id="c" x1="0.5" y1="0.982" x2="0.5" y2="0.005" gradientUnits="objectBoundingBox"><stop offset="0" stop-color="#002600"/><stop offset="0.7" stop-color="#2b7330"/><stop offset="1" stop-color="#3e9645"/></linearGradient><radialGradient id="d" cx="0.5" cy="0.795" r="1.288" gradientTransform="matrix(0.253, 0.044, -0.005, 0.456, 0.385, 0.575)" gradientUnits="objectBoundingBox"><stop offset="0" stop-color="#f8a53f"/><stop offset="1" stop-color="#f75a05"/></radialGradient><linearGradient id="e" x1="0.931" y1="0.548" x2="0.145" y2="0.462" gradientUnits="objectBoundingBox"><stop offset="0" stop-color="#e17e5a"/><stop offset="1" stop-color="#f5bd80"/></linearGradient><clipPath id="f"><path d="M-23224.148,21624.887c.775,5.771-5.885,16.648-9.654,13.318s-1.445-14.318,2.555-17.314a8.126,8.126,0,0,1,2.771-.887C-23226.7,21619.891-23224.7,21620.668-23224.148,21624.887Z" transform="translate(23235.713 -21619.994)"/></clipPath><linearGradient id="g" x1="-23.343" y1="25.022" x2="-23.357" y2="24.959" xlink:href="#e"/><linearGradient id="h" x1="0.446" y1="-0.064" x2="0.5" y2="1.131" xlink:href="#e"/><linearGradient id="j" x1="1" y1="-0.358" x2="0.145" y2="0.462" xlink:href="#e"/><linearGradient id="k" x1="-0.533" y1="-0.572" x2="0.145" y2="0.462" xlink:href="#e"/><linearGradient id="l" x1="-30.899" y1="30.83" x2="-30.886" y2="30.75" xlink:href="#e"/><linearGradient id="m" x1="0.5" y1="0.392" x2="0.423" y2="0.955" gradientUnits="objectBoundingBox"><stop offset="0" stop-color="#8b5b3d"/><stop offset="1" stop-color="#3d1307"/></linearGradient><linearGradient id="n" x1="0.592" y1="1.26" x2="0.5" y2="0" xlink:href="#e"/><linearGradient id="o" x1="0.265" y1="1.625" x2="0.106" y2="0.062" xlink:href="#m"/><clipPath id="p"><path d="M157.614,126.7a9.966,9.966,0,0,1-4.551.888,26.7,26.7,0,0,1-2.664-.333,4.4,4.4,0,0,0,3.774,1.554,4.772,4.772,0,0,0,3.441-2.109" transform="translate(-150.4 -126.7)"/></clipPath><linearGradient id="q" x1="0.521" y1="0.527" x2="0.511" y2="1.073" xlink:href="#e"/><clipPath id="r"><path d="M160.547,122.3a4.261,4.261,0,0,0-.333,2.109,2.4,2.4,0,0,1-1.11,2,3.957,3.957,0,0,0,0-2.442c-.333-1.221,1.443-1.665,1.443-1.665" transform="translate(-159.062 -122.3)"/></clipPath><linearGradient id="s" x1="0.455" y1="0" x2="0.355" y2="0.856" xlink:href="#e"/><linearGradient id="t" x1="0.247" y1="0.449" x2="0.102" y2="-0.028" xlink:href="#m"/><linearGradient id="u" x1="0.202" y1="1" x2="0.106" y2="0.062" xlink:href="#m"/><linearGradient id="v" y1="0.553" x2="0.4" y2="0.576" gradientUnits="objectBoundingBox"><stop offset="0" stop-color="#e5e6e7"/><stop offset="1" stop-color="#fff"/></linearGradient><linearGradient id="w" x1="-0.331" y1="0.537" x2="0.717" y2="0.587" xlink:href="#v"/><linearGradient id="x" x1="0.651" y1="0.384" x2="0.834" y2="0.815" gradientUnits="objectBoundingBox"><stop offset="0" stop-color="#262c4a"/><stop offset="1"/></linearGradient><linearGradient id="y" x1="0.392" y1="0.41" x2="0.774" y2="1.03" xlink:href="#x"/><linearGradient id="z" x1="0.963" y1="0.529" x2="0.298" y2="0.626" xlink:href="#e"/><linearGradient id="ac" x1="0.342" y1="0.402" x2="0.18" y2="0.83" xlink:href="#x"/><clipPath id="ae"><path class="b" d="M15,.008a.436.436,0,0,1,.51.352c.7,3.6,1.8,7.53,1.716,9.459a23.6,23.6,0,0,1-1.178,4.72c-.334,1.2-1.131,3.014-1.493,3.9a.538.538,0,0,1-.631.325,33.6,33.6,0,0,1-4.145-1.215c-.927-.325-7.762-3.236-9.162-6.547-.927-2.216-.927-3.839.844-5.685C4.538,2.14,12.986.388,15,.008Z" transform="translate(0 0)"/></clipPath><clipPath id="af"><path class="c" d="M15.017.008a.445.445,0,0,1,.519.352c.7,3.6,1.8,7.53,1.716,9.459a23.6,23.6,0,0,1-1.178,4.72c-.4,1.447-1.484,3.8-1.66,4.331a33.672,33.672,0,0,1-4.637-1.317c-.927-.325-7.762-3.236-9.162-6.547-.927-2.216-.927-3.839.844-5.685C4.556,2.141,13,.388,15.017.008Z"/></clipPath><linearGradient id="ag" x1="-4.314" y1="-0.192" x2="-4.302" y2="0.496" gradientUnits="objectBoundingBox"><stop offset="0.19" stop-color="#ffcf8c"/><stop offset="0.34" stop-color="#e4775c"/><stop offset="0.51" stop-color="#ffcf8c"/><stop offset="0.69" stop-color="#e4775c"/><stop offset="0.82" stop-color="#ffcf8c"/></linearGradient><linearGradient id="ai" x1="-0.399" y1="0.256" x2="0.899" y2="0.372" gradientUnits="objectBoundingBox"><stop offset="0"/><stop offset="1" stop-opacity="0"/></linearGradient><linearGradient id="ak" x1="1.339" y1="0.282" x2="0.101" y2="0.372" xlink:href="#ai"/><clipPath id="am"><path class="d" d="M2.231.008a.436.436,0,0,0-.51.352c-.7,3.6-1.808,7.53-1.716,9.459a24.232,24.232,0,0,0,1.168,4.72,40.293,40.293,0,0,0,1.5,3.867.529.529,0,0,0,.621.325,33.6,33.6,0,0,0,4.145-1.215c.927-.325,7.762-3.236,9.162-6.547.927-2.216.927-3.839-.835-5.685C12.692,2.14,4.243.388,2.231.008Z" transform="translate(0 0)"/></clipPath><clipPath id="an"><path class="c" d="M2.231.008a.436.436,0,0,0-.51.352c-.7,3.6-1.808,7.53-1.716,9.459a24.232,24.232,0,0,0,1.168,4.72c.408,1.447,1.493,3.8,1.669,4.331A33.386,33.386,0,0,0,7.48,17.553c.927-.325,7.762-3.236,9.162-6.547.927-2.216.927-3.839-.835-5.685C12.692,2.14,4.243.388,2.231.008Z"/></clipPath><linearGradient id="ao" x1="-4.737" y1="-0.363" x2="-4.724" y2="0.326" xlink:href="#ag"/><clipPath id="aq"><path class="e" d="M5.082.462A6.862,6.862,0,0,0,.13.462L0,.509S.306,7.751.306,7.77c.223.621,4.535.473,4.59,0L5.212.509Z" transform="translate(0 0)"/></clipPath><linearGradient id="ar" x1="0.506" y1="0.043" x2="0.506" y2="1.009" gradientUnits="objectBoundingBox"><stop offset="0" stop-color="#ffdaae"/><stop offset="0.15" stop-color="#ffd5aa"/><stop offset="0.34" stop-color="#ffc59f"/><stop offset="0.55" stop-color="#ffac8d"/><stop offset="0.78" stop-color="#ff8974"/><stop offset="1" stop-color="#ff5e55"/></linearGradient><linearGradient id="as" x1="-0.013" y1="0.409" x2="0.309" y2="0.34" xlink:href="#e"/><linearGradient id="at" x1="-0.055" y1="0.411" x2="0.397" y2="0.368" xlink:href="#e"/><linearGradient id="au" x1="-0.055" y1="0.411" x2="0.644" y2="0.385" xlink:href="#e"/><linearGradient id="av" x1="0.549" y1="0.37" x2="0.609" y2="1" xlink:href="#x"/></defs><g transform="translate(-3986.867 -14059.001)"><g transform="translate(3986.867 14059.001)"><circle class="f" cx="101.681" cy="101.681" r="101.681" transform="translate(0 30.752)"/><path class="a" d="M21.078,225.655a104.724,104.724,0,0,0,.27-15.147C14.6,205.991,9.141,199.276,5.271,190.36c-8.581-19.774-4.1-45.518-4.1-45.518s-2.015-7.048,16.879-13.187l10.419-7.15.277-.7a56.669,56.669,0,0,0,6.068-3.768h0l3.681-3.333q.229-.732.441-1.5a4.229,4.229,0,0,1,.393-1.543c.19-.814.357-1.644.49-2.483A23.5,23.5,0,0,1,37,108.5a17.249,17.249,0,0,1-4.294-7.494,2.164,2.164,0,0,1-.1-.89c-.488-3.649.092-11.99.832-19.761a2.8,2.8,0,0,1-2.067,1.1,2.359,2.359,0,0,1-.93-.2c-4.44-1.887-5.883-12.764-3.219-16.649l.131-.129a5.326,5.326,0,0,1,2.422-2.645,1.856,1.856,0,0,1,1.332-.111c1.893.261,3.134,2.289,3.834,3.914l.079.147c.075-.632.135-1.132.174-1.474-.39-5.409-1.478-21.778-.647-25.562.643-2.928,1.194-9.718,3.279-14.719A44.626,44.626,0,0,1,39.553,9.449a16.349,16.349,0,0,1,9.989-3.774C58.532,5.786,66.635,12,66.635,12s1.332,5.439,6.549,13.208c2,3,5.439,5.883,8.879,8.768a.109.109,0,0,1,.111.111c5.55,4.551,10.988,9.323,11.321,14.873.367,6.017-3.632,17.32-6.384,24.292a2.825,2.825,0,0,1,.613-.1,3.278,3.278,0,0,1,1.443.222c2.124,1.023,2.519,4.33,2.57,6.171.014.264.014.538,0,.818s-.019.448-.019.448l-.007-.037c-.433,5.1-4.74,12.151-8.109,12.152a2.323,2.323,0,0,1-1.574-.621,4.15,4.15,0,0,1-.509-.539c-2.543,11.58-4.224,19.844-10.609,23.569.178,1.135.361,2.217.544,3.189l5.488,4.1,0-.012s1.209.581,2.875,1.208c.569.205,1.17.413,1.793.622.733.232,1.5.443,2.249.6l.053.142c3.57,1.119,7.483,2.2,10.306,2.953a30.359,30.359,0,0,1,5.822.283c8.581,1.119,16.789,20.147,17.162,39.176.326,16.623-4.757,32.961-16.993,37.821a10.572,10.572,0,0,1,3.19,2.847,7.933,7.933,0,0,1,0,8.581,4.188,4.188,0,0,1-3.286,2.1c-2.2,1.659-4.973,1.985-6.043,1.628a1.979,1.979,0,0,1-.726-.858c-.146.028-.293.052-.44.07q-.035,2.347-.04,4.652-1,.469-2.005.914a101.247,101.247,0,0,1-9.658,3.7c-1.8.584-3.627,1.121-5.467,1.606a101.937,101.937,0,0,1-14.377,1.579l-.066,0-.047,0-.1,0h-.014q-1.877.068-3.771.069A101.422,101.422,0,0,1,21.078,225.655ZM76.941,122.712l.027.018-.01-.042ZM35.279,65.748l.019-.173-.016-.218Q35.281,65.545,35.279,65.748ZM105.77,78.8a4.44,4.44,0,1,1,4.44,4.44A4.44,4.44,0,0,1,105.77,78.8Zm15.539-5.549a8.879,8.879,0,1,1,8.879,8.879A8.879,8.879,0,0,1,121.309,73.255Zm21.775-3.343a13.323,13.323,0,0,0-20.656-7.482,35.294,35.294,0,0,1-9.708-11.956,35,35,0,1,1,31.343,19.452C143.737,69.925,143.408,69.921,143.083,69.912Z" transform="translate(51.879 0)"/><g transform="translate(70.223 7.471)"><g transform="translate(0 0)"><path class="g" d="M338.657,373.7s1.481,13.682,2.777,19-10.923,26.034-24.809,26.224-12.4-21.283-12.4-21.283a49.18,49.18,0,0,0,5.184-15.012c1.3-7.791,29.252-8.931,29.252-8.931" transform="translate(-295.409 -277.636)"/><path class="h" d="M160.081,72.146l.111,1.665L136.107,110.55s-1.776-22.753-.777-27.3,1.776-18.425,8.435-20.423c.444-.111.777-.111,1.221-.222C151.2,62.268,160.081,72.146,160.081,72.146Z" transform="translate(-126.668 -50.17)"/><g transform="translate(54.224 67.483)"><g transform="translate(0 0.94)"><g transform="translate(0 0)"><g class="i"><path class="j" d="M-23235.906,21619.2l13.65,1.109-1.885,21.756-13.656-1.109Z" transform="translate(23235.488 -21620.072)"/></g></g></g><path class="h" d="M185.676,120.021a1.935,1.935,0,0,0-1.332-.666,20.729,20.729,0,0,1-1.221,7.326,24.682,24.682,0,0,0,.333-6.993l-.222.222s-1.332,5.883-2.442,6.66c-1,.777-1.221-4.551-.555-6.549,0,0,1-2.22,2.553-2.22C183.678,117.69,184.566,118.245,185.676,120.021Z" transform="translate(-175.964 -111.586)"/><path class="k" d="M183.739,112.2h0a3.278,3.278,0,0,1,1.443.222c3,1.443,2.553,7.436,2.553,7.436a7.594,7.594,0,0,0-3.774-5.217c-3.219-1.665-5.55,2.331-5.661,2.553-.111-.222,2.664-4.884,5.439-4.995Z" transform="translate(-176.135 -112.2)"/></g><path class="l" d="M170.9,73.28c14.54,3.552,16.316,26.083,15.983,34.963-.333,8.768-7.1,40.512-10.988,46.284s-15.761,5.772-21.755,4.551-17.648-8.768-18.869-13.763c-2-7.991.333-38.736,3-50.28,2.22-9.767,11.432-21.644,24.862-22.531A27.18,27.18,0,0,1,170.9,73.28Z" transform="translate(-126.723 -49.083)"/><path class="m" d="M153.223,105.289s-5.661,1.665-13.208-3.885c0,0-.777-8.99,1.221-12.653S157.884,84.2,157.884,84.2C159.327,91.747,159.882,100.627,153.223,105.289Z" transform="translate(-126.136 -47.794)"/><path class="m" d="M178.389,98.879a27.892,27.892,0,0,1-1.221,9.545c-8.213,3.108-13.541-.111-13.541-.111-2.109-3-1.665-11.432,1.665-18.314C165.292,90,178.167,94.107,178.389,98.879Z" transform="translate(-123.665 -47.157)"/><path class="n" d="M178.974,122.5c-4.551,7.215-13.874,15.539-13.874,15.539s3.774-16.649,6.882-20.978c3-4.218,9.656-7.658,9.656-7.658S183.525,115.172,178.974,122.5Z" transform="translate(-123.362 -45.024)"/><path class="o" d="M142.393,108.969c.666,3.33-1.11,30.523-1.11,30.523s-6.1-13.319-5.883-22.864c.444-9.656,1.221-15.428,1.221-15.428S141.727,105.529,142.393,108.969Z" transform="translate(-126.628 -45.926)"/><g transform="translate(0 55.978)"><path class="p" d="M136.713,106.03c2.553,5.217-.222,17.2-4.662,15.317s-5.883-12.764-3.219-16.649a7.764,7.764,0,0,1,2.22-1.665C132.717,102.368,134.826,102.368,136.713,106.03Z" transform="translate(-127.496 -101.74)"/><path class="h" d="M129.8,109.488a1.938,1.938,0,0,1,1.332-.444,22.435,22.435,0,0,0-.111,7.215,27.554,27.554,0,0,1,.777-6.771l.222.222s.333,5.772,1.11,6.66,1.887-4.218,1.554-6.1c0,0-.666-2.331-2-2.664C132.131,107.491,131.132,107.935,129.8,109.488Z" transform="translate(-127.243 -101.202)"/><path class="k" d="M131.363,102.018h0a1.856,1.856,0,0,1,1.332-.111c3.219.444,4.551,5.994,4.551,5.994a7.111,7.111,0,0,0-5.106-3.552c-3.552-.444-4.44,3.885-4.44,4.107,0-.222,1-5.328,3.663-6.438Z" transform="translate(-127.473 -101.834)"/></g><path class="q" d="M31.22,35.971c4.44-.666,8.213-9.1,7.436-11.546.888-9.77-22.864-11.435-26.527-9.548C7.912,16.986,5.137,19.1,5.692,23.758c.888,5.107,1.776,6.994,5.106,7.882A11.735,11.735,0,0,0,16.68,31.2a11.273,11.273,0,0,1,3.774-.666c2.22.222,5.883,5.884,10.211,5.551C31,36.082,31.109,36.082,31.22,35.971ZM3.694,12.545c2,2,4.551.666,5.772-1.221s3.663-3.775,14.207-.222c7.769,1.11,12.32,1.332,15.65,6,1.554,2.331,5.55,5.218,6.216,5.107,3.552-.555,6.216-11.435,6.216-11.435l.333.666s-.666,4.441-1.887,9.77h0c-2.442,10.436-9.656,26.978-10.544,27.533l-3.663,1c-1.221.888-4.329,4.219-15.539,2.553S1.918,43.187.364,37.081a2.165,2.165,0,0,1-.111-.888C-.857,28.865,2.029,2.442,2.251,0,2.473,1.554,1.918,10.658,3.694,12.545Z" transform="matrix(1, 0.017, -0.017, 1, 7.098, 58.25)"/><path class="h" d="M133.9,138.573c.111.333,0,.666.111.888,1.665,6.1,8.768,13.541,20.09,15.206,24.64,3.774,24.418-8.768,29.635-30.967-16.316,45.84-12.209,19.2-38.292,14.762-7.326-1.332-11.21-.111-11.543.111" transform="translate(-126.792 -43.452)"/><path class="r" d="M154.356,106.146h0a11.141,11.141,0,0,1,2.664-.444c5.883-.555,15.872,9.767,1.11,9.323-5.772-.222-13.43-5.772-3.774-8.879" transform="translate(-125.049 -45.433)"/><path class="s" d="M163.3,125.9" transform="translate(-123.56 -43.211)"/><path class="s" d="M162.8,121.2" transform="translate(-123.615 -43.727)"/><path class="t" d="M181.9,161" transform="translate(-121.516 -39.352)"/><path class="u" d="M160.09,81.92l-1.332,7.658a24.363,24.363,0,0,0-11.1-2.331,74.246,74.246,0,0,0-7.658.666s3.774-4.329,8.546-5.55C153.208,81.254,160.09,81.92,160.09,81.92Z" transform="translate(-126.121 -48.067)"/><g transform="translate(25.422 83.577)"><g class="v" transform="translate(0 0)"><path class="w" d="M152.3,131.071l5.772-3.219-1.887-3.552-5.883,3.219Z" transform="translate(-150.411 -126.964)"/></g></g><path class="x" d="M161.507,124.209s-5.772-4.995-9.878-4a5.737,5.737,0,0,0-4.329,5.106s.444-3.108,4.773-3.774c4.218-.666,8.435,3,8.435,3Z" transform="translate(-125.319 -43.85)"/><g transform="translate(35.037 78.694)"><g class="y" transform="translate(0 0)"><path class="z" d="M157.4,125.252l2.331,1.554,2.331-3.552L159.62,121.7Z" transform="translate(-159.245 -122.366)"/></g></g><path class="l" d="M169.024,95.813c2.442.444,6.438,6.1,5.994,10.988,0,0-11.21-2.553-10.211-9.323.111-1.554,2.442-1.887,4-1.776Z" transform="translate(-123.401 -46.532)"/><path class="aa" d="M175.055,106.109a12.3,12.3,0,0,0-2.886-6.771c-3-3.108-6.66-2.442-7.1-2.109-.444.222-.666,5.661-.666,5.661Z" transform="translate(-123.439 -46.395)"/><path class="ab" d="M163.9,105.392c-.111,1.221,4.662.555,7.991.555,2.775,0,3.441,1.332,3.441,1.332A13.678,13.678,0,0,0,173,101.4c-1.776-2.331-4.107-2.775-6.438-3-.666,0-2.553,3.552-2.664,6.993" transform="translate(-123.494 -46.234)"/><path class="ac" d="M167.057,57.727s1.332,5.439,6.549,13.208c2,3,5.439,5.883,8.879,8.768a.109.109,0,0,1,.111.111h0c5.55,4.551,10.988,9.323,11.321,14.873.555,9.1-8.879,30.3-8.879,30.3-.422-8-.555-15.428-1-21.533a49.742,49.742,0,0,1-.111-9.1c.777-7.88-2.664-15.983-16.982-15.317-6.882.333-10.433-.777-11.432-1.11l-.222-.111c-1,3.108-2.442,7.215-2.442,7.215-9.323-5.772-10.211-16.649-10.211-16.649-1.11,6.882.111,16.982.111,16.982-8.213-13.652-2.775-30.19-2.775-30.19a16.349,16.349,0,0,1,9.989-3.774C158.955,51.511,167.057,57.727,167.057,57.727Z" transform="translate(-126.318 -51.4)"/><path class="h" d="M179.827,78.437h0l.111.111h0c.444.555,4.218,6.216,3.108,12.431a44.785,44.785,0,0,0-.777,10.211,45.4,45.4,0,0,1-.555-8.657c.444-7.547-3.33-15.206-17.093-13.985-6.66.555-10.1-.333-11.1-.666l-.222-.111s2.109-16.2,9.767-16.871A46.2,46.2,0,0,0,179.827,78.437Z" transform="translate(-124.659 -50.356)"/><g transform="translate(15.877 44.926)"><path class="l" d="M150.091,91.9c2.109-.222,4.107,1,3.774,2.331-.555,3-11.765,6.216-11.765,6.216,1-4.662,4.884-7.991,7.436-8.435Z" transform="translate(-141.767 -91.876)"/><path class="aa" d="M142.3,99.536a8.978,8.978,0,0,1,4.218-5.217c3.33-1.887,7.1-1.11,7.326-.666a18.147,18.147,0,0,1-.555,5.439Z" transform="translate(-141.745 -91.741)"/><path class="ab" d="M153.232,103.113c-.222,1.11-4.773-1-7.991-2.22-2.664-1.11-3.441-.444-3.441-.444a12.411,12.411,0,0,1,3.774-4.551c2.553-1.665,6.216-.777,6.771-.555.444.222,1.554,4.44.888,7.769" transform="translate(-141.8 -91.543)"/><path class="ad" d="M147.808,100.057c2.775,1.11,4.551,0,5.106-1.443a3.917,3.917,0,0,0-.333-1.554,5.32,5.32,0,0,0-.777-2.22c-.555-.555-3.774-.666-6.1.444-.111,0-.111,0-.111.111h0c-.333.222-.555.333-.888.555.222.111.444,3.108,3.108,4.107" transform="translate(-141.481 -91.595)"/><path class="ae" d="M151.364,100.986A6.7,6.7,0,0,0,148.7,98.1c0-.111,1.221,2.442,2.664,2.886" transform="translate(-141.042 -91.193)"/><path d="M145.7,95.4a4.912,4.912,0,0,0,3.33,3.108,3.575,3.575,0,0,0,3.663-1.221V97.06a5.32,5.32,0,0,0-.777-2.22c-.555-.555-3.774-.666-6.1.444l-.111.111" transform="translate(-141.371 -91.595)"/></g><path class="af" d="M163.366,89.8l-.666,6.66a28.606,28.606,0,0,1,11.432,1.11l5.661,1.776s-3.108-6.327-8.324-7.88A50.293,50.293,0,0,0,163.366,89.8Z" transform="translate(-123.626 -47.179)"/><path class="ad" d="M164.7,101.175a4.99,4.99,0,0,0,4.551,3.219,4.083,4.083,0,0,0,3.774-2.664c-.111-.111-.111-.222-.222-.333-1.776-2.331-4.107-2.775-6.438-3C166.032,98.4,165.255,99.51,164.7,101.175Z" transform="translate(-123.406 -46.234)"/><path d="M172.415,100.853l-.222-.222-.222-.222c-1.665-1.554-3.663-1.887-5.661-2.109-.222,0-.666.555-1.11,1.332a.387.387,0,0,0,.111.222,3.74,3.74,0,0,0,3,2.553A4.726,4.726,0,0,0,172.415,100.853Z" transform="translate(-123.351 -46.245)"/><path class="ae" d="M172.076,105.552A7.2,7.2,0,0,0,170.3,102c0-.111.555,2.664,1.776,3.552" transform="translate(-122.791 -45.838)"/></g></g><path class="ag" d="M286.8,412.229l15.728-11,7.031,2.046,14.924,7.089,1.119,76.113-19.4,5.97-17.909-39.922Z" transform="translate(-224.143 -278.65)"/><path class="ah" d="M295.765,401.117s9.053,9.722,11.664,10.841c2.239,1.119,5.97,2.612,5.97,2.612l-8.954,11.193-13.57-20.217Z" transform="translate(-212.687 -282.857)"/><path class="ai" d="M298.364,485.824s-2.612-44.772-1.865-53.353,1.865-22.759,1.865-22.759,9.327.746,13.432-2.238,7.323-5.083,7.323-5.083l12.078,8.067-1.865,81.709Z" transform="translate(-198.023 -277.998)"/><path class="aj" d="M6.479,104.693C7.234,96.4,7.141,86.7,4.85,72.382,1.865,53.726,0,13.059,0,13.059L19.028,0C16.043,39.922,42.907,78.724,42.907,78.724A66.523,66.523,0,0,1,50,98.5c.525,3.048.1,7.636-.774,12.653q-3.209.2-6.467.2A101.422,101.422,0,0,1,6.479,104.693Z" transform="translate(58.926 122.759)"/><path class="ak" d="M0,76.485S15.67,44.4,19.028,30.221,20.147,0,20.147,0c5.97,2.612,20.894,6.343,20.894,6.343s1.493,32.833-2.985,60.069c-1.816,11.05-2.343,24.554-2.328,36.7a101.343,101.343,0,0,1-33.522,6.353C4.61,94.765,0,76.485,0,76.485Z" transform="translate(101.46 124.625)"/><path class="s" d="M49.954,0a36.2,36.2,0,0,0,5.5,4.847L54.875,28.8l-12.158.821s4.272,9.858-7.229,17.087C25.137,53.278,5.093,61,0,68.557a15.106,15.106,0,0,1,1.15-3.779s26.123-23.823,36.8-39.267C48.96,10.068,49.849.722,49.849.722" transform="translate(74.95 143.126) rotate(-22)"/><path class="s" d="M49.835,71.687a56.656,56.656,0,0,1,4.413-5.616l.626-24.483-12.158-.859s4.272-10.311-7.229-17.873C25.137,15.982,5.093,7.905,0,0A16.31,16.31,0,0,0,1.15,3.953s26.123,24.919,36.8,41.073c11.008,16.154,11.781,25.8,11.781,25.8" transform="matrix(-0.94, -0.342, 0.342, -0.94, 101.449, 206.237)"/><path class="al" d="M300.51,402.6a1.71,1.71,0,1,1-1.71,1.71,1.7,1.7,0,0,1,1.71-1.71" transform="translate(-205.167 -250.946)"/><path class="al" d="M299.11,409.5a1.71,1.71,0,1,1-1.71,1.71,1.7,1.7,0,0,1,1.71-1.71" transform="translate(-203.39 -243.023)"/><path d="M0,0H11.281A101.093,101.093,0,0,1,.683,2.617Z" transform="translate(120.125 229.7)"/><path class="s" d="M299.122,430.7a1.71,1.71,0,1,1-1.71,1.71c-.19-.95.76-1.71,1.71-1.71" transform="translate(-196.675 -222.854)"/><path class="s" d="M300.31,444.1a1.71,1.71,0,1,1-1.71,1.71,1.7,1.7,0,0,1,1.71-1.71" transform="translate(-192.869 -223.349)"/><path class="am" d="M305.6,427.464s2.239,0,2.239,1.865a2.847,2.847,0,0,1-1.492,2.612,1.516,1.516,0,0,0,1.492,2.239c1.865,0,4.1-2.985,4.1-4.477s-1.866-3.358-3.731-4.1S305.6,427.464,305.6,427.464Z" transform="translate(-172.8 -215.534)"/><path class="am" d="M306.333,427.238s4.1,1.492,3.731,3.358-1.119,2.612-2.612,2.985-1.865,1.866-.746,3.358,4.1.373,5.223,0,4.1-3.358,3.358-7.462-6.343-4.1-6.343-4.1S304.467,424.626,306.333,427.238Z" transform="translate(-172.041 -216.053)"/><path class="am" d="M307.343,428.231s4.94,1.648,4.567,4.632-3.075,3.949-3.821,4.7a1.973,1.973,0,0,0,.373,2.985c1.119.373,4.1,0,6.343-1.866,1.865-1.865,1.865-7.835.746-9.7s-7.835-4.477-7.835-4.477S305.478,426.739,307.343,428.231Z" transform="translate(-170.067 -218.166)"/><path class="an" d="M304.781,425.8s-1.119,5.97,3.731,6.343,8.208-2.985,10.447-1.119c1.866,1.866,1.866,5.223,1.119,5.6s-2.985,2.612-1.866,3.731,3.358.746,4.85-1.492a7.933,7.933,0,0,0,0-8.581c-1.866-2.612-4.85-3.731-7.835-5.223C311.87,423.563,306.647,422.817,304.781,425.8Z" transform="translate(-175.339 -220.214)"/><path class="ah" d="M312.314,401.121l5.825,4.351-13.131,19.575L296.8,412.735C297.173,412.735,304.479,409.329,312.314,401.121Z" transform="translate(-196.833 -281.02)"/><path class="t" d="M305.1,403.8" transform="translate(-174.164 -274.697)"/><path class="ao" d="M303.2,404.7s-3.731,31.714,0,42.533,9.7,19.774,21.64,25.371,19.028,6.343,26.49,6.343,16.043-3.731,16.043-3.731V482.3s-13.432,7.089-34.325,8.954-37.31-7.089-45.891-26.863-4.1-45.518-4.1-45.518S280.816,411.042,303.2,404.7Z" transform="translate(-237.56 -272.239)"/><g transform="translate(81.442 122.357) rotate(-2)"><path class="b" d="M15,.008a.436.436,0,0,1,.51.352c.7,3.6,1.8,7.53,1.716,9.459a23.6,23.6,0,0,1-1.178,4.72c-.334,1.2-1.131,3.014-1.493,3.9a.538.538,0,0,1-.631.325,33.6,33.6,0,0,1-4.145-1.215c-.927-.325-7.762-3.236-9.162-6.547-.927-2.216-.927-3.839.844-5.685C4.538,2.14,12.986.388,15,.008Z" transform="translate(19.19 0)"/><g class="ap" transform="translate(19.191 0.001)"><g class="aq" transform="translate(-0.028 0)"><g class="ar" transform="translate(0 0)"><path class="as" d="M3.19,2.968c0-.121,0-.232.056-.26s.13.065.158.185,0,.232-.065.25S3.218,3.1,3.19,2.968Zm.158,6.9Zm-.13-.278a.241.241,0,0,0-.148.1v.065a.232.232,0,0,0,.148-.093S3.264,9.59,3.218,9.59Zm.723-.825c.056,0,.083-.121.056-.241s-.083-.213-.148-.2-.083.111-.056.232.074.223.148.223ZM2.643,5.75c.056,0,.083-.093.065-.176a.121.121,0,0,0-.139-.1.148.148,0,0,0-.065.176c.028.083.083.13.139.111Zm.788.668c.056,0,.083-.093.065-.176s-.083-.13-.139-.111-.083.093-.065.176.083.139.139.121ZM3.107,7.651c.056,0,.083-.1.065-.195s-.083-.148-.139-.139-.083.093-.065.185.083.167.139.158ZM1.808,4.99a.185.185,0,0,0,.065-.2c0-.083-.083-.139-.13-.121a.185.185,0,0,0-.056.213c.019.074.074.148.121.121Zm.482,5h0c.037.009.046.009,0,.009Zm.185,3.264a.547.547,0,0,0,.158.139s0,0,0-.056a.529.529,0,0,0-.158-.139s-.046.009,0,.1ZM3.042,10.1v.074a.288.288,0,0,0,.176,0v-.065a.3.3,0,0,0-.176,0ZM2.114,3.608c.056,0,.074-.13.056-.25s-.083-.2-.139-.176a.287.287,0,0,0,0,.269c-.019.139.074.213.13.185Zm.983,7.3a.158.158,0,0,0,.056.195c.056,0,.111,0,.139-.13a.3.3,0,0,0,0-.176c0-.019-.121.056-.148.139ZM4.275,7.392c.056,0,.083-.1.065-.2s-.093-.167-.148-.148-.083.093-.065.195.139.195.195.185ZM3.867,5.37a.148.148,0,0,0,.074-.185A.113.113,0,0,0,3.8,5.073a.148.148,0,0,0-.074.176A.114.114,0,0,0,3.867,5.37Zm3.051,5.564a.1.1,0,0,0,.046.158.2.2,0,0,0,.2-.1v-.148a.2.2,0,0,0-.278.13ZM5.991,5.787a.158.158,0,0,0,.083-.195.13.13,0,0,0-.148-.13c-.065.019-.093.093-.074.185s.046.232.111.176ZM6.8,9.673A.473.473,0,0,0,7,9.59a.048.048,0,0,0,0-.083.5.5,0,0,0-.2.093c-.1.074-.093.111-.028.111ZM5.592,7.178c.056,0,.093-.1.065-.2s-.083-.176-.148-.167-.093.1-.065.2S5.527,7.2,5.592,7.178ZM6.881,9.107v-.1a.4.4,0,0,0-.185.13v.093A.325.325,0,0,0,6.881,9.107ZM6.037,2.375c.065,0,.1-.121.074-.241S6,1.92,5.935,1.939s-.1.13-.074.25S5.963,2.384,6.037,2.375Zm-1.4.352c.056,0,.093-.121.065-.241s-.1-.213-.167-.195-.093.13-.065.26S4.572,2.746,4.637,2.727ZM1.947,7.9c.056,0,.083-.093.065-.176s-.074-.13-.121-.121-.083.083-.065.167S1.9,7.911,1.947,7.9ZM4.21,9.515V9.58a.3.3,0,0,0,.167-.1V9.4a.334.334,0,0,0-.167.111Zm.927-4.507c.056,0,.093-.093.074-.176s-.083-.148-.139-.13a.148.148,0,0,0-.083.185c.009.065.074.139.139.121Zm.491,4.284V9.209a.362.362,0,0,0-.176.111q-.056.083,0,.083a.362.362,0,0,0,.167-.111Zm-.139.445a.51.51,0,0,0,.2-.056c.056,0,0-.056,0-.056a.686.686,0,0,0-.195.065c-.074.028-.074.046-.019.046ZM.306,10.1a.111.111,0,0,0,0,.13s.074,0,.093-.111,0-.1,0-.1-.093.019-.1.083ZM2.161,9.9h.046c0-.046,0-.083-.056-.074a.185.185,0,0,0-.13.1v.046h0A.232.232,0,0,1,2.114,9.9ZM1.493,8.662c-.056,0-.083.093-.074.195s.065.185.121.176.083-.1.074-.2S1.539,8.662,1.493,8.662ZM1.576,6.01a.094.094,0,0,0-.121-.093.158.158,0,0,0-.065.167.09.09,0,0,0,.13.083.139.139,0,0,0,.056-.13ZM1.029,3.775a.667.667,0,0,0-.056.26c.009.111.074.185.121.148a.278.278,0,0,0,.056-.25c-.019-.093-.065-.167-.121-.13Zm.7,9.357h0a1.446,1.446,0,0,0,.121.176s0,0,0-.056a.547.547,0,0,0-.121-.093Zm-.093-1.8c-.046,0-.065.056,0,.167a.352.352,0,0,0,.139.213s.056,0,0-.158a.436.436,0,0,0-.139-.195ZM1.7,12.965h0l.139.139h0a.928.928,0,0,0-.139-.111Zm.927-.269c-.056,0-.065,0,0,.1a.547.547,0,0,0,.158.167c.056,0,.065,0,0-.093a.492.492,0,0,0-.195-.148Zm.1-.927c-.056,0-.074.056,0,.158a.38.38,0,0,0,.148.232c.056,0,.074,0,0-.158s-.13-.232-.185-.25Zm-.139,1.855h0l.148.167c.046,0,.046,0,0-.056a.742.742,0,0,0-.185-.13Zm-.315-2.977V10.5a.133.133,0,0,0-.139.093c-.028.093,0,.158.046.167s.028-.056.056-.13Zm.287,3.274v.065a.927.927,0,0,0,.13.2v-.074a.928.928,0,0,0-.167-.213ZM2.2,9.97H2.105a.513.513,0,0,0,.056-.019ZM.8,5.583c.046,0,.065-.121.056-.2S.779,5.25.733,5.287a.236.236,0,0,0-.056.2c.009.083.037.1.083.074ZM1.206,7.16a.13.13,0,0,0,.056-.148.093.093,0,0,0-.121-.083.121.121,0,0,0-.056.148c0,.046,0,.083.083.065ZM.037,10.869v.167a.269.269,0,0,0,.093.176v-.148a.271.271,0,0,0-.13-.2ZM.389,9.775h0L.352,9.766Zm.927.139H1.159a.51.51,0,0,0,.158,0S1.3,9.923,1.252,9.9Zm.315,2.495a.38.38,0,0,0,.148.148v-.083a.38.38,0,0,0-.148-.148s-.1.046-.065.046Zm-.278-2.226Zm-.436,2v-.074a.575.575,0,0,0-.139-.13v.083a.408.408,0,0,0,.074.111ZM.807,11.064c-.046,0-.056.065,0,.167s.074.185.111.195.046,0,0-.148a.326.326,0,0,0-.176-.223ZM6.556,4.7a.148.148,0,0,0,.083-.185A.131.131,0,0,0,6.5,4.378a.148.148,0,0,0-.093.185.082.082,0,0,0,.083.13ZM1.3,10.211a.111.111,0,0,0-.121.083v.158c0,.019.083,0,.1-.111s-.009-.13-.046-.139Zm0-.38H1.085a.787.787,0,0,0,.121-.009ZM.853,12.316h0l.139.083h0Zm.927.538a.769.769,0,0,0-.148-.121h0a.769.769,0,0,0,.148.121.047.047,0,0,1-.074-.009ZM9.3,4.025c0,.093.074.158.139.139a.158.158,0,0,0,.121-.185.13.13,0,0,0-.139-.139.158.158,0,0,0-.121.185Zm5.75.111c0,.093,0,.158.13.148a.213.213,0,0,0,.167-.195.111.111,0,0,0-.13-.139.2.2,0,0,0-.167.139Zm.872,1.094a.171.171,0,0,0,.167.185.213.213,0,0,0,.121-.232c0-.111-.083-.185-.158-.167A.2.2,0,0,0,15.923,5.231ZM16.655.965a.213.213,0,0,0,.176-.2.167.167,0,0,0-.185-.167.2.2,0,0,0-.167.2.158.158,0,0,0,.185.167ZM16.312,9.46c0,.13,0,.232.111.232s.185-.111.2-.241,0-.232-.121-.232-.167.111-.185.241Zm.631-5.434a.241.241,0,0,0,.185-.185c0-.093,0-.158-.121-.148a.269.269,0,0,0-.185.185C16.85,3.923,16.85,4.025,16.943,4.025Zm0,2.643c.074,0,.158-.121.167-.25s0-.213-.121-.2a.306.306,0,0,0-.167.25c-.046.083.028.176.093.158Zm-10.2.148c0,.1.093.185.158.176s.1-.111.074-.223-.093-.176-.158-.167-.074.056-.056.2Zm7.808,2.94a.26.26,0,0,0,.213-.213c0-.121,0-.213-.1-.2s-.167.093-.2.213.028.167.111.158Zm-.139-4.025c.074,0,.121-.121.111-.232a.173.173,0,0,0-.167-.176.185.185,0,0,0-.111.223c.028.065.1.148.185.139Zm.325,8.068a.146.146,0,0,0-.148.195.3.3,0,0,0,.223.232c.1,0,.167-.074.139-.195a.306.306,0,0,0-.195-.278ZM13.623,2.393a.2.2,0,0,0,.167-.185.148.148,0,0,0-.158-.158.2.2,0,0,0-.158.195.13.13,0,0,0,.167.1ZM14.43,3.4a.213.213,0,0,0,.176-.176.111.111,0,0,0-.13-.139.2.2,0,0,0-.167.176.1.1,0,0,0,.139.093Zm.185-2.2a.195.195,0,0,0,0-.389.185.185,0,0,0-.148.213.176.176,0,0,0,.167.13Zm.492,5.564c0,.121,0,.213.1.2a.3.3,0,0,0,.176-.25c0-.121,0-.2-.111-.195s-.13.037-.148.158Zm4.479-1.855c.083,0,.148-.111.148-.223a.148.148,0,0,0-.158-.167.2.2,0,0,0-.148.213.2.2,0,0,0,.2.121Zm0,2.6c-.093,0-.167.139-.176.278s.056.25.148.241.176-.139.176-.278-.1-.306-.158-.3Zm0-5.787a.325.325,0,0,0,.241-.176c0-.093,0-.148-.121-.139a.325.325,0,0,0-.241.176c-.056.028-.009.093.093.083Zm-1.4,10.748a.232.232,0,0,0-.213.232c0,.13.065.241.176.241a.216.216,0,0,0,.2-.223.213.213,0,0,0-.195-.306Zm1.966-9.8A.408.408,0,0,0,20.4,2.5c0-.083,0-.139-.1-.13a.315.315,0,0,0-.241.176c-.074.028-.028.083.065.074Zm.538.844a.315.315,0,0,0,.223-.195c0-.083,0-.148-.093-.139a.334.334,0,0,0-.232.185c-.028.037-.028.1.074.093ZM18.835.826a.232.232,0,0,0,.2-.195.148.148,0,0,0-.167-.167.232.232,0,0,0-.2.195.148.148,0,0,0,.121.111ZM18.584,6.2c0,.13.056.223.139.213a.278.278,0,0,0,.167-.26c0-.13-.056-.223-.139-.2s-.2.065-.213.195ZM17.87,5.194A.2.2,0,0,0,18,4.971c0-.111-.074-.185-.158-.176a.2.2,0,0,0-.139.223c-.037.056.074.13.121.121Zm-.315,2.782c0,.13,0,.232.121.223a.26.26,0,0,0,.185-.26c0-.13,0-.232-.121-.223a.24.24,0,0,0-.232.223Zm0-6.046a.25.25,0,0,0,.213-.176.121.121,0,0,0-.139-.148.26.26,0,0,0-.2.185c-.074.056-.019.121.074.1Zm.658.927a.287.287,0,0,0,.223-.176c0-.083,0-.148-.111-.139a.315.315,0,0,0-.213.176c-.093.1-.037.158.046.148Zm1.159,11.592a.185.185,0,0,0,.195-.2.232.232,0,0,0-.223-.2.185.185,0,0,0-.185.2.223.223,0,0,0,.158.213ZM15.524,2.171a.213.213,0,0,0,.185-.185.121.121,0,0,0-.139-.148.213.213,0,0,0-.185.185.13.13,0,0,0,.139.148ZM9.162,1.846c.074,0,.121-.111.093-.223s-.1-.2-.185-.195-.121.121-.093.232.1.158.185.139ZM9.6,9.738a.278.278,0,0,0,.213-.13.106.106,0,0,0,0-.13.278.278,0,0,0-.213.13c-.083.028-.074.083,0,.083ZM8.5,3.1c.074,0,.121-.1.111-.195s-.093-.176-.167-.158a.165.165,0,0,0-.1.2A.165.165,0,0,0,8.5,3.1Zm1.233,7.474a.147.147,0,0,0,0,.158.25.25,0,0,0,.223-.13c0-.083,0-.158-.056-.167a.269.269,0,0,0-.158.13ZM2.2,6.511c-.056,0-.083.083-.065.158a.121.121,0,0,0,.13.1A.139.139,0,0,0,2.328,6.6C2.309,6.529,2.244,6.492,2.2,6.511Zm7.474-.454c-.065,0-.1.111-.083.223s.093.195.167.176.1-.111.083-.223-.093-.185-.167-.176ZM7.187,5.4a.133.133,0,0,0,.148.139.161.161,0,0,0,.093-.185c-.009-.093-.083-.158-.148-.139a.148.148,0,0,0-.093.185Zm.6,2.782c.065,0,.139-.1.167-.2A.192.192,0,0,0,7.8,7.763c-.065.009-.056.139-.074.25s.009.148.065.13Zm.352-1.623a.183.183,0,0,0,.167.185c.065-.009.1-.111.074-.223s-.093-.185-.158-.176-.1.065-.083.176Zm2.133-1.512c.074,0,.121-.093.121-.195a.136.136,0,0,0-.148-.148.176.176,0,0,0-.111.195.121.121,0,0,0,.139.111ZM7.985,9v.111a.287.287,0,0,0,.195-.139V8.848a.352.352,0,0,0-.195.111ZM7.576,2.069a.185.185,0,0,0,.093-.232.2.2,0,0,0-.185-.2c-.074.009-.111.13-.083.25S7.474,2.078,7.576,2.069Zm.241,2.189a.139.139,0,0,0,.148.139.167.167,0,0,0,.1-.185.129.129,0,0,0-.148-.139.182.182,0,0,0-.139.185Zm4.062-1.679a.167.167,0,0,0,.139-.195.139.139,0,0,0-.158-.148.176.176,0,0,0-.139.195.148.148,0,0,0,.121.148Zm.927,3.366c.074,0,.111-.111.093-.223s-.083-.195-.158-.176-.121.1-.111.213.111.2.185.185Zm1.261,2.541c.083,0,.167-.111.2-.223s0-.2-.093-.195-.158.111-.195.223S14,8.486,14.068,8.486ZM12.7,3.608a.2.2,0,0,0,.158-.185.121.121,0,0,0-.139-.139.2.2,0,0,0-.148.185.121.121,0,0,0,.139.139Zm.686,7.113a.25.25,0,0,0-.223.185c0,.111,0,.2.1.213s.176-.074.213-.185,0-.213-.083-.213ZM12.7,1.355a.185.185,0,0,0,.139-.213A.2.2,0,0,0,12.64.956a.176.176,0,0,0-.13.223.185.185,0,0,0,.195.176ZM13.474,4.5a.213.213,0,0,0,.148-.195.13.13,0,0,0-.139-.148.2.2,0,0,0-.148.195c.009.093.065.158.148.148Zm-1.632.26a.2.2,0,0,0,.13-.195c0-.1-.065-.167-.148-.148a.176.176,0,0,0-.13.185c.019.093.074.167.158.158Zm-.927-3.19c.083,0,.139-.1.121-.223a.2.2,0,0,0-.195-.185c-.083,0-.13.111-.111.223s.065.195.148.185Zm.158,2.291a.176.176,0,0,0,.139-.185c0-.093-.065-.158-.139-.139a.176.176,0,0,0-.139.185.13.13,0,0,0,.1.139ZM11.286,6.2c.065,0,.111-.111.093-.223s-.093-.195-.167-.185a.167.167,0,0,0-.093.223A.158.158,0,0,0,11.286,6.2Zm.807,1.2c.074,0,.148-.111.176-.223s0-.2-.083-.195a.306.306,0,0,0-.167.232c-.056.121-.019.195.046.185ZM10.164,2.829a.185.185,0,0,0,.121-.2.156.156,0,0,0-.158-.158.167.167,0,0,0-.121.2.121.121,0,0,0,.13.158Zm2.615,11.045c.093,0,.148-.065.111-.195s-.065-.232-.158-.25a.158.158,0,0,0-.176.195.343.343,0,0,0,.195.25Zm5.852-4.507c0-.139-.056-.25-.148-.25s-.176.13-.195.269.056.25.148.25a.278.278,0,0,0,.167-.269Zm-4.563,2.949c0-.121,0-.232-.121-.241a.223.223,0,0,0-.213.195.185.185,0,0,0,.121.241.223.223,0,0,0,.213-.195Zm.686,6.315a.151.151,0,0,0-.139.167.241.241,0,0,0,.148.213c.083,0,.139-.065.139-.167a.213.213,0,0,0-.13-.213ZM13.7,6.715a.315.315,0,0,0-.176.241c0,.121,0,.2.093.195a.315.315,0,0,0,.176-.241C13.808,6.808,13.771,6.706,13.7,6.715ZM14.93,16.3a.158.158,0,0,0-.167.158.185.185,0,0,0,.148.2.176.176,0,0,0,.176-.158.2.2,0,0,0-.158-.2ZM14,19.642c-.074,0-.121.065-.093.176a.3.3,0,0,0,.176.241c.074,0,.111-.065.093-.176a.315.315,0,0,0-.111-.241Zm-.158-4.776a.146.146,0,0,0-.148.176.25.25,0,0,0,.185.213.148.148,0,0,0,.158-.167.26.26,0,0,0-.158-.223Zm0,2.365a.146.146,0,0,0-.158.139.2.2,0,0,0,.148.2c.083,0,.148,0,.158-.148a.2.2,0,0,0-.083-.195ZM16.5,18.863a.161.161,0,0,0-.158.176.185.185,0,0,0,.139.2.163.163,0,0,0,.148-.167A.185.185,0,0,0,16.5,18.863Zm-.362-3.57a.213.213,0,0,0-.213-.139.158.158,0,0,0-.167.176.2.2,0,0,0,.167.2.167.167,0,0,0,.213-.213ZM16,12.26a.223.223,0,0,0-.213.213.195.195,0,0,0,.148.241.228.228,0,0,0,.2-.213A.2.2,0,0,0,16,12.288Zm-.269,5.221a.144.144,0,1,1,0,.028Zm-13.085-9c-.056,0-.083.1-.065.213s.074.2.139.195.083-.111.065-.223S2.7,8.5,2.643,8.514ZM15.274,10.8a.254.254,0,0,0-.213.213c-.028.121,0,.223.121.232s.185-.093.213-.213-.028-.2-.121-.2Zm-4.59-3.58c-.065,0-.139.111-.167.223s0,.195.065.176a.3.3,0,0,0,.176-.213c.028-.111-.009-.167-.074-.158Zm.686,2.291c0-.093,0-.158-.056-.158a.3.3,0,0,0-.213.158c0,.093,0,.167.056.167a.269.269,0,0,0,.213-.093Zm.927,7.521a.2.2,0,0,0-.158-.195c-.074,0-.139,0-.13.13a.232.232,0,0,0,.158.2c.093.046.158-.019.148-.111ZM11.073,8.56c0-.083,0-.158-.056-.148a.315.315,0,0,0-.2.176c0,.093,0,.158.056.158a.352.352,0,0,0,.223-.158Zm4.915-.5c0-.121,0-.213-.111-.2a.26.26,0,0,0-.185.232c0,.13,0,.223.1.213a.245.245,0,0,0,.213-.213ZM13.011,9.5c0-.1,0-.185-.074-.185a.293.293,0,0,0-.213.195c-.037.1,0,.185.074.185a.278.278,0,0,0,.232-.167Zm-1.539,8.346c-.074,0-.121,0-.1.139a.287.287,0,0,0,.167.223c.074,0,.121,0,.1-.139a.306.306,0,0,0-.148-.213Zm.491-2.93a.12.12,0,0,0,.13-.158.287.287,0,0,0-.195-.232c-.093,0-.139.056-.121.167a.288.288,0,0,0,.2.232ZM13.02,16a.139.139,0,0,0-.158.148.241.241,0,0,0,.167.2c.083,0,.148,0,.148-.148a.223.223,0,0,0-.139-.195Zm-.464-7.753a.315.315,0,0,0-.2.2c0,.1,0,.176.065.167a.3.3,0,0,0,.2-.195c.056-.093.028-.176-.046-.167Zm.584,10.043c-.074,0-.13.046-.121.148a.25.25,0,0,0,.158.213c.074,0,.13,0,.121-.148a.25.25,0,0,0-.158-.213ZM12.1,11.8a.2.2,0,0,0-.213.167c0,.111,0,.213.093.223a.2.2,0,0,0,.213-.167.173.173,0,0,0-.13-.2Zm.4,7.419c-.074,0-.111.056-.083.167a.362.362,0,0,0,.176.25c.074,0,.111-.056.083-.167a.357.357,0,0,0-.213-.232Zm-.844-8.652a.26.26,0,0,0-.223.158c0,.093,0,.185.074.195a.25.25,0,0,0,.223-.167c0-.074-.028-.158-.111-.167Zm10.015.25c-.111,0-.195.13-.195.278a.235.235,0,0,0,.2.26.25.25,0,0,0,.195-.278c-.046-.13-.139-.25-.241-.241ZM20.541,8.959c-.1,0-.185.139-.185.287s.074.269.167.26a.271.271,0,0,0,.185-.287.25.25,0,0,0-.2-.241Zm0-3.366c-.093,0-.158.13-.158.26s.074.223.158.213.158-.13.158-.26-.093-.2-.139-.195Zm1.206,8.346a.223.223,0,0,0-.26.287.176.176,0,0,0,.195.185A.241.241,0,0,0,21.9,14.2a.185.185,0,0,0-.176-.2Zm-10.461,2.04c.074,0,.139,0,.13-.139a.269.269,0,0,0-.176-.2c-.083,0-.139,0-.121.139a.241.241,0,0,0,.167.2Zm9.811.593a.343.343,0,0,0-.269.195c-.046.111,0,.195.093.185a.343.343,0,0,0,.269-.195c.028-.111-.009-.195-.111-.185Zm-.7-1.308a.269.269,0,0,0-.241.195c0,.111.046.195.148.185a.269.269,0,0,0,.241-.195.139.139,0,0,0-.167-.185Zm.25-2.569a.213.213,0,0,0-.195-.241.232.232,0,0,0-.2.241.2.2,0,1,0,.4,0ZM22.368,2.06a.4.4,0,0,0-.269.167c-.056.083,0,.139.083.13a.436.436,0,0,0,.232-.185c.074-.074,0-.13-.065-.111ZM23.481,0a.306.306,0,0,0-.26.195c0,.093,0,.158.139.148a.343.343,0,0,0,.269-.185A.141.141,0,0,0,23.462,0ZM21.57,7.216c-.093,0-.167.139-.158.287s.083.26.176.25.167-.139.167-.3-.1-.25-.2-.241Zm.306-6.093a.371.371,0,0,0-.26.176c0,.083,0,.148.1.13a.38.38,0,0,0,.269-.167c.028-.093-.019-.148-.13-.139ZM21.487,4.2a.213.213,0,0,0-.167.213c0,.1.074.185.158.167a.213.213,0,0,0,.158-.213C21.607,4.257,21.542,4.183,21.487,4.2ZM21.125.214A.25.25,0,0,0,20.9.409a.13.13,0,0,0,.148.158.278.278,0,0,0,.241-.195.224.224,0,0,0-.2-.158ZM19,16.6a.269.269,0,0,0-.232.185c0,.1,0,.185.111.185a.241.241,0,0,0,.232-.176c0-.111-.056-.195-.148-.195Zm-1.354,1.085a.223.223,0,0,0-.213.167c0,.1,0,.195.121.195a.213.213,0,0,0,.2-.167.148.148,0,0,0-.148-.195Zm.64,1.363a.2.2,0,0,0-.176.185.176.176,0,0,0,.13.2c.074,0,.148-.083.167-.185a.187.187,0,0,0-.158-.2Zm-.835-7.9c0-.139,0-.25-.139-.25s-.185.1-.2.241,0,.241.139.241.158-.1.167-.232Zm1.558-7.614c0-.093,0-.158-.111-.148a.315.315,0,0,0-.2.185.111.111,0,0,0,.121.148.26.26,0,0,0,.158-.185ZM17.184,14.226A.278.278,0,0,0,16.952,14a.148.148,0,0,0-.158.195.278.278,0,0,0,.223.223.158.158,0,0,0,.167-.195Zm.139,5.991c-.083,0-.139.074-.121.185a.26.26,0,0,0,.176.223c.074,0,.121-.074.1-.195a.223.223,0,0,0-.158-.25ZM16.47,2.968a.1.1,0,0,0-.121-.13.223.223,0,0,0-.195.176.093.093,0,0,0,.111.13.25.25,0,0,0,.2-.213Zm3.07,14.838A.287.287,0,0,0,19.3,18c0,.1,0,.185.1.185a.306.306,0,0,0,.232-.25c0-.093,0-.176-.093-.185Zm.5,1.345a.232.232,0,0,0-.195.195c0,.111,0,.2.1.2s.167-.093.195-.2-.019-.25-.1-.25Zm-.649-8.189c-.1,0-.185.111-.195.26s.065.25.167.25.195-.111.2-.26-.074-.315-.176-.306ZM19,20.347c-.083,0-.139.083-.13.2a.2.2,0,0,0,.167.2c.074,0,.13-.083.121-.195s-.083-.269-.158-.269Zm-1.957-3.589a.148.148,0,0,0-.13-.195.2.2,0,0,0-.2.167.158.158,0,0,0,.13.195.195.195,0,0,0,.2-.223Zm1.076-1.447a.195.195,0,0,0-.2.185.176.176,0,0,0,.167.195.213.213,0,0,0,.2-.185.167.167,0,0,0-.167-.25Zm-2.457,4.7c-.074,0-.13.074-.1.185s.1.223.176.232.121-.074.093-.185a.278.278,0,0,0-.167-.287ZM5.23,12.743c-.065,0-.083,0-.056.158a.371.371,0,0,0,.176.232c.074,0,.093,0,.065-.148s-.111-.278-.185-.3Zm.325,3.478c-.056,0-.065,0,0,.121a.594.594,0,0,0,.167.25s.065,0,0-.121a.594.594,0,0,0-.167-.306ZM4.628,5.862a.148.148,0,0,0-.074.176.126.126,0,0,0,.148.13c.065-.019.093-.093.074-.176s-.121-.2-.185-.185Zm1.206,9.746c-.056,0-.074,0,0,.093A.473.473,0,0,0,6,15.9c.056,0,.074,0,0-.093a.371.371,0,0,0-.2-.26Zm-.807-1.855c-.056,0-.083,0-.046.111a.371.371,0,0,0,.167.185c.065,0,.093,0,.056-.1a.371.371,0,0,0-.213-.25Zm-.7-9.821a.14.14,0,0,0-.158-.139C4.1,3.812,4.08,3.9,4.1,4s.083.158.148.139.056-.111.037-.26ZM6.556,14.412a.352.352,0,0,0-.176-.2c-.065,0-.093,0-.065.121a.334.334,0,0,0,.176.195C6.556,14.551,6.593,14.5,6.556,14.412ZM5.889,11.63a.149.149,0,0,0-.176.139c-.028.139,0,.2.074.223s.139,0,.167-.148a.176.176,0,0,0-.065-.167ZM4.47,9.682H4.284a.741.741,0,0,0,.195,0c.056.056.046.046-.009.046ZM6.009,14.8c-.065,0-.093,0-.056.1a.362.362,0,0,0,.167.185c.065,0,.083,0,.056-.093a.39.39,0,0,0-.167-.148Zm-.575-4.7a.427.427,0,0,0,.213-.056c.056,0,0-.065,0-.074a.427.427,0,0,0-.213.056c-.065.074-.056.111,0,.121ZM5.277,8.3c0-.121-.1-.213-.167-.2s-.083.111-.056.241.083.213.139.2.111-.065.083-.195Zm.445,2.4v-.13a.25.25,0,0,0-.2.074v.13a.223.223,0,0,0,.2-.074ZM3.07,9.9h.185a1.237,1.237,0,0,0-.185,0Zm.473,3.83c-.056,0-.065,0,0,.074a.482.482,0,0,0,.167.167c.046,0,.065,0,0-.074A.547.547,0,0,0,3.542,13.726ZM3.023,4.3c0-.093-.083-.158-.139-.13a.2.2,0,0,0-.065.213c.019.093.083.148.139.121A.167.167,0,0,0,3.023,4.3Zm.7,8.893c-.056,0-.065,0,0,.1a.473.473,0,0,0,.167.185c.056,0,.065,0,0-.1A.343.343,0,0,0,3.719,13.2ZM4.4,9.933a.7.7,0,0,0-.195,0h0a.705.705,0,0,0,.195,0C4.451,9.961,4.451,9.942,4.4,9.933Zm-.927,4.729c-.046,0-.056,0,0,.083a.575.575,0,0,0,.139.223c.046,0,.056,0,0-.093a.529.529,0,0,0-.185-.213Zm.093-.417v.065a.492.492,0,0,0,.158.176s.056,0,0-.065a.427.427,0,0,0-.2-.195Zm3.264,2.643c-.065,0-.083,0,0,.13a.547.547,0,0,0,.167.26c.056,0,.074,0,0-.139a.492.492,0,0,0-.213-.25ZM4.461,10.4V10.3a.269.269,0,0,0-.185,0c-.056.046,0,.093,0,.111a.241.241,0,0,0,.139-.019Zm.3,3.886c-.056,0-.074,0,0,.083a.473.473,0,0,0,.167.185c.065,0,.083,0,.046-.083a.427.427,0,0,0-.26-.185Zm-.649-1.855a.5.5,0,0,0-.167-.241q-.1,0-.056.167a.427.427,0,0,0,.176.232c.009.028.028-.037,0-.148Zm.464-1.206c-.065,0-.139,0-.167.121s0,.195.065.213.13,0,.158-.139-.046-.167-.1-.185Zm-.093,4.192s-.056,0,0,.1a.6.6,0,0,0,.158.241s.065,0,0-.111a.566.566,0,0,0-.2-.223Zm.176-.519c-.056,0-.065,0,0,.074a.417.417,0,0,0,.158.195c.056,0,.065,0,0-.083a.538.538,0,0,0-.2-.176ZM7.122,3.172c0-.1-.083-.176-.158-.158a.185.185,0,0,0-.093.213.153.153,0,0,0,.158.148c.065-.009.065-.093.046-.195ZM5.675,3.5a.142.142,0,0,0-.158-.148c-.065.019-.093.111-.074.2s.093.167.158.148.046-.093.028-.195Zm3.394,9.1c-.083,0-.167,0-.195.167a.223.223,0,0,0,.139.25c.083,0,.13-.056.148-.176a.208.208,0,0,0-.139-.232ZM10,17.342c-.074,0-.111,0-.093.13a.39.39,0,0,0,.167.223c.074,0,.111,0,.093-.13a.362.362,0,0,0-.213-.213ZM8.875,5.083a.141.141,0,0,0-.148-.148c-.074.009-.111.093-.1.195a.148.148,0,0,0,.148.148A.176.176,0,0,0,8.875,5.083Zm-.241,6.111a.213.213,0,0,0-.213.121c0,.083,0,.167.056.185a.2.2,0,0,0,.213-.13C8.736,11.287,8.708,11.2,8.634,11.194Zm.844,6.992c-.065,0-.1,0-.065.148a.408.408,0,0,0,.176.26c.065,0,.093,0,.065-.158a.445.445,0,0,0-.176-.25Zm.807-6.677a.223.223,0,0,0-.213.148.148.148,0,0,0,.074.2.2.2,0,0,0,.213-.148C10.359,11.611,10.359,11.528,10.284,11.509Zm.649,7.233c-.065,0-.1,0-.074.167a.445.445,0,0,0,.185.26c.065,0,.1-.056.074-.176A.417.417,0,0,0,10.934,18.743Zm-.278-2.105a.269.269,0,0,0-.167-.2c-.074,0-.13,0-.111.121a.269.269,0,0,0,.167.2c.074.028.121-.037.111-.121Zm-1.753-.7c-.074,0-.111,0-.093.111a.287.287,0,0,0,.167.2c.074,0,.111,0,.093-.111a.3.3,0,0,0-.167-.2Zm1.354-1.576a.334.334,0,0,0-.195-.241c-.083,0-.13.056-.1.167a.3.3,0,0,0,.195.223c.074.028.13-.046.1-.148ZM9.431,8.913a.269.269,0,0,0,.195-.158.106.106,0,0,0,0-.13.325.325,0,0,0-.2.167C9.329,8.866,9.348,8.922,9.431,8.913Zm-.1-1.178c0-.111,0-.2-.111-.195s-.1.13-.121.241,0,.185.065.167S9.3,7.8,9.329,7.735Zm.352,7.716a.288.288,0,0,0-.176-.2c-.074,0-.121,0-.1.13a.269.269,0,0,0,.167.2.142.142,0,0,0,.111-.176Zm-3.032-7.3c0-.13-.111-.223-.176-.213s-.083.121-.056.25,0,.195.1.185A.185.185,0,0,0,6.649,8.152Zm.389,2.087c.056,0,.046-.093,0-.1a.3.3,0,0,0-.213.074c-.056,0,0,.093,0,.1a.278.278,0,0,0,.167-.074Zm.408,5.175c-.065,0-.093,0-.065.1a.325.325,0,0,0,.167.195c.065,0,.1,0,.074-.1a.306.306,0,0,0-.223-.195Zm-.566-1.855c.065,0,.1,0,.065-.148a.39.39,0,0,0-.185-.25c-.074,0-.1.056-.074.158a.408.408,0,0,0,.148.26Zm.556-1.437c-.074,0-.158,0-.185.148s0,.223.083.241.148,0,.176-.158a.2.2,0,0,0-.121-.213Zm-.3,4.053c-.065,0-.093,0-.056.1a.362.362,0,0,0,.167.213c.065,0,.083,0,.056-.111a.371.371,0,0,0-.213-.185Zm.992,1.372c-.065,0-.093,0-.056.139a.473.473,0,0,0,.176.26c.056,0,.083,0,.056-.148a.445.445,0,0,0-.223-.232Zm.389-.77c-.065,0-.093,0-.065.111a.389.389,0,0,0,.167.223c.065,0,.093,0,.065-.121A.306.306,0,0,0,8.5,16.8Zm-.148-3.125c-.083,0-.121,0-.093.158a.362.362,0,0,0,.195.232c.074,0,.121,0,.093-.148a.352.352,0,0,0-.241-.223ZM8.179,9.673a.334.334,0,0,0,.213-.1c.056-.065.046-.111,0-.111a.325.325,0,0,0-.2.111c-.13.074-.121.121-.056.121Zm.315.714a.1.1,0,0,0,0-.13.26.26,0,0,0-.213.1.118.118,0,0,0,0,.139.25.25,0,0,0,.167-.093ZM10.906,13.3a.166.166,0,1,0-.306-.074.281.281,0,0,0,.195.26C10.878,13.5,10.887,13.41,10.906,13.3ZM7.892,14.727c-.074,0-.111,0-.083.121a.288.288,0,0,0,.176.2c.065,0,.111,0,.083-.121a.352.352,0,0,0-.176-.213Z" transform="translate(-4.17 -0.457)"/></g></g></g><path class="d" d="M2.231.008a.436.436,0,0,0-.51.352c-.7,3.6-1.808,7.53-1.716,9.459a24.232,24.232,0,0,0,1.168,4.72,40.293,40.293,0,0,0,1.5,3.867.529.529,0,0,0,.621.325,33.6,33.6,0,0,0,4.145-1.215c.927-.325,7.762-3.236,9.162-6.547.927-2.216.927-3.839-.835-5.685C12.692,2.14,4.243.388,2.231.008Z" transform="translate(0 0)"/><g transform="translate(20.293 4.04)"><path class="at" d="M0,2.957,10.448,0V3.7H0Z" transform="translate(0 0)"/><path class="at" d="M0,.761,10.448,3.694V0H0Z" transform="translate(0 5.564)"/></g><g transform="translate(5.454 4.04)"><path class="au" d="M10.448,2.882,0,0V3.7H10.448Z"/><path class="au" d="M10.448.8,0,3.694V0H10.448Z" transform="translate(0 5.564)"/></g><g class="av" transform="translate(0 0.001)"><g class="aq" transform="translate(0 0)"><g class="aw"><path class="ax" d="M20.272,3.153c-.056,0-.083-.13-.056-.25s.093-.2.148-.185.083.139.056.26S20.328,3.172,20.272,3.153Zm.176,6.742Zm-.093-.213a.25.25,0,0,0,.148.093c.056,0,.074,0,.046-.065a.269.269,0,0,0-.148-.1C20.347,9.6,20.328,9.6,20.356,9.682Zm-.529-1.113c0-.121,0-.223-.065-.232s-.121.083-.148.2,0,.232.065.241S19.8,8.671,19.827,8.569Zm1.28-2.9a.148.148,0,0,0-.065-.176c-.056,0-.111,0-.13.1s0,.158.065.176S21.051,5.74,21.107,5.666Zm-.779.658c0-.083,0-.158-.065-.176s-.121,0-.139.111,0,.158.065.176S20.309,6.4,20.328,6.325Zm.315,1.2c0-.093,0-.167-.056-.185s-.121,0-.139.139,0,.176.065.195S20.625,7.614,20.643,7.521ZM21.979,4.9a.213.213,0,0,0-.056-.213c-.056,0-.111,0-.13.121a.2.2,0,0,0,.056.2C21.858,5.036,21.914,4.961,21.979,4.9Zm-.594,5.119h-.009s-.093-.009-.037,0Zm-.2,3.2a.436.436,0,0,0-.158.139c-.046.056,0,.083,0,.056a.7.7,0,0,0,.158-.139c0-.056,0-.083-.046-.056Zm-.742-3.125s-.056,0,0,.065a.306.306,0,0,0,.176,0c.056,0,.065,0,0-.074a.315.315,0,0,0-.223.009Zm1.2-6.6c0-.121,0-.241-.056-.269s-.111.056-.13.176,0,.223.056.25.065-.046.083-.158Zm-1.27,7.345c-.056,0-.074.093-.046.176s.093.148.148.13a.158.158,0,0,0,0-.195.13.13,0,0,0-.148-.111ZM19.438,7.27c0-.1,0-.185-.065-.195s-.121.056-.139.148,0,.195.065.2.121-.065.139-.158Zm.473-2.012c0-.083,0-.158-.065-.176s-.121,0-.148.111a.158.158,0,0,0,.074.185.139.139,0,0,0,.139-.121Zm-3.394,5.629c-.074,0-.093.074,0,.148a.2.2,0,0,0,.2.1.093.093,0,0,0,0-.158.2.2,0,0,0-.2-.093ZM17.8,5.694c0-.093,0-.176-.083-.185s-.121,0-.139.13a.167.167,0,0,0,.074.195c.065.056.13-.056.148-.139Zm-.927,3.951a.482.482,0,0,0-.213-.093c-.056,0-.065,0,0,.083a.464.464,0,0,0,.213.083C16.915,9.719,16.915,9.682,16.869,9.644ZM18.177,7.02c0-.1,0-.195-.065-.2s-.13.065-.158.167,0,.195.074.2S18.158,7.122,18.177,7.02ZM16.925,9.236c.065,0,.074,0,0-.093a.325.325,0,0,0-.185-.13c-.056,0-.074,0,0,.1a.3.3,0,0,0,.185.121Zm.825-7.057c0-.121,0-.241-.065-.25s-.148.074-.176.195,0,.223.074.241S17.722,2.318,17.75,2.179Zm1.391.362c0-.13,0-.241-.056-.26s-.139.065-.167.195,0,.223.065.241.13-.037.158-.158Zm2.652,5.2c0-.083,0-.158-.065-.167s-.111,0-.13.121,0,.167.065.176S21.775,7.864,21.793,7.743Zm-2.55,1.632c-.056,0-.074,0,0,.074a.269.269,0,0,0,.167.1c.056,0,.065,0,0-.065a.278.278,0,0,0-.167-.074Zm-.612-4.516a.158.158,0,0,0-.074-.185c-.065,0-.13,0-.148.13s0,.167.083.176.121-.019.139-.083Zm-.454,4.516q.093,0,0-.083a.334.334,0,0,0-.167-.111c-.065,0-.074,0,0,.083a.306.306,0,0,0,.167.148Zm0,.287a.8.8,0,0,0-.195-.065c-.065,0-.065,0,0,.056a.556.556,0,0,0,.2.056c0,.037.009.019-.046-.009Zm5.082.325a.074.074,0,0,0,0,.1c.046.056,0,.121.083.111s.056-.074.046-.13-.13-.056-.167-.046Zm-1.6-.093h0a.121.121,0,0,0,0-.046.185.185,0,0,0-.121-.1c-.056,0-.083,0-.056.074h.083a.232.232,0,0,1,.056.111Zm.38-1.066c0,.1,0,.195.074.2s.1-.074.111-.176,0-.185-.065-.195-.185.1-.185.2Zm.093-2.662s.1,0,.121-.083a.158.158,0,0,0-.056-.167c-.056,0-.111,0-.13.093A.13.13,0,0,0,22.1,6.2Zm.371-2.235a.278.278,0,0,0,.056.25s.093,0,.111-.148a.3.3,0,0,0-.056-.26.319.319,0,0,0-.148.195Zm-.751,9.376v.056a1.457,1.457,0,0,0,.111-.176h0Zm.093-1.734v.158a.352.352,0,0,0,.13-.213v-.167a.38.38,0,0,0-.13.241Zm-.074,1.539h0l.139-.139h0Zm-.927-.223v.093A.454.454,0,0,0,21,12.816v-.1a.491.491,0,0,0-.13.195Zm-.1-.927v.158a.39.39,0,0,0,.158-.232c0-.1,0-.176,0-.158a.38.38,0,0,0-.13.26Zm.148,1.771v.056a.862.862,0,0,0,.148-.167h0a.566.566,0,0,0-.121.139Zm.584-3.014a.128.128,0,0,0,0-.167c-.074-.074-.083-.111-.13-.093s-.065.074,0,.148.111.158.158.139Zm-.538,3.357v.074a.7.7,0,0,0,.13-.2v-.065a.649.649,0,0,0-.1.223Zm.649-4.127h0a.074.074,0,0,1-.056,0H21.4a.464.464,0,0,0,.213.028Zm1.354-4.5a.2.2,0,0,0-.056-.2.115.115,0,0,0-.111.093.2.2,0,0,0,.056.2s.13.019.139-.065Zm-.4,1.586a.121.121,0,0,0-.056-.148.1.1,0,0,0-.13.083.13.13,0,0,0,.065.148.091.091,0,0,0,.148-.056Zm.927,4v.148a.537.537,0,0,0,.093-.176.4.4,0,0,0,0-.167c0,.009-.019.121-.037.223ZM23.2,9.765h0a.07.07,0,0,0,.056.028Zm-.927.167a.472.472,0,0,0,.158,0q.07,0,0,0h-.158c.046,0,.046.019.083.028ZM21.951,12.3a.556.556,0,0,0-.148.148v.083a.436.436,0,0,0,.139-.148c.148,0,.139-.074.093-.056Zm.436-2.124Zm.436,1.855v-.083a.427.427,0,0,0-.13.13v.074a.408.408,0,0,0,.213-.083Zm-.139-.788v.148c0-.019.093-.093.121-.195a.259.259,0,0,0,0-.167c0,.009-.019.148-.037.25Zm-5.49-6.714A.167.167,0,0,0,17.1,4.34c-.065,0-.13,0-.148.139a.158.158,0,0,0,.093.185c.148.046.213-.009.232-.1ZM22.266,10.3c0,.065.065.121.111.111a.13.13,0,0,0,0-.158.1.1,0,0,0-.111-.083.869.869,0,0,1,.083.167Zm.213-.51h-.148a.789.789,0,0,0,.232.037Zm.241,2.587h0l.139-.083h0a.6.6,0,0,0-.139.083Zm-.816.482a.593.593,0,0,0,.158-.121s0-.065,0,0a.566.566,0,0,0-.148.121s-.046.056-.009.028ZM14.2,3.774a.139.139,0,0,0-.148.139.158.158,0,0,0,.121.185c.074,0,.139,0,.148-.139A.158.158,0,0,0,14.2,3.8Zm-5.8.111a.111.111,0,0,0-.13.139.213.213,0,0,0,.158.195.13.13,0,0,0,.139-.148A.2.2,0,0,0,8.4,3.913ZM7.558,5c-.083,0-.148.056-.158.167a.2.2,0,0,0,.121.232.19.19,0,0,0,.167-.185c.009-.111-.046-.176-.13-.185ZM7.141.807A.2.2,0,0,0,6.965.6.167.167,0,0,0,6.789.77a.2.2,0,0,0,.176.2A.167.167,0,0,0,7.141.807Zm0,8.42c-.083,0-.139.1-.121.232s.121.241.2.241.148-.1.121-.232A.345.345,0,0,0,7.141,9.227Zm-.3-5.388a.269.269,0,0,0-.185-.185.111.111,0,0,0-.121.148.213.213,0,0,0,.176.185c.037.046.093-.056.083-.148Zm0,2.587a.3.3,0,0,0-.176-.25c-.074,0-.13.083-.121.2a.3.3,0,0,0,.176.26c.065.009.111-.083.1-.213Zm9.951.139c-.065,0-.13.065-.158.167s0,.213.074.223.139-.074.158-.176-.028-.2-.093-.213ZM9.153,9.515a.228.228,0,0,0-.2-.213c-.083,0-.13.083-.093.2s.121.213.2.213.111-.121.074-.2Zm.223-4.006a.185.185,0,0,0-.121-.223.173.173,0,0,0-.158.176.2.2,0,0,0,.111.232c.056.009.13-.074.148-.185Zm-.7,8.485c0,.121,0,.2.139.195a.315.315,0,0,0,.223-.232c0-.121-.056-.213-.148-.195a.287.287,0,0,0-.232.232ZM10.127,2.179a.2.2,0,0,0-.158-.195.148.148,0,0,0-.158.158.185.185,0,0,0,.167.185.139.139,0,0,0,.148-.148ZM9.292,3.2a.2.2,0,0,0-.176-.176c-.083,0-.139,0-.13.139a.232.232,0,0,0,.176.176.111.111,0,0,0,.13-.111ZM9.163.964a.167.167,0,1,0-.334,0,.185.185,0,0,0,.158.2c.093.009.167-.065.176-.176ZM8.319,6.427c-.074,0-.121.074-.1.195a.3.3,0,0,0,.176.25c.074,0,.121-.083.1-.2a.242.242,0,0,0-.176-.213ZM4.173,4.665a.213.213,0,0,0-.158-.213.152.152,0,0,0-.148.167c0,.1.065.213.148.223a.135.135,0,0,0,.158-.148ZM3.886,7.743c0,.139.083.269.176.278s.158-.1.158-.241-.093-.269-.176-.278S3.877,7.567,3.886,7.743Zm.287-6.167A.287.287,0,0,0,3.942,1.4c-.1,0-.158,0-.121.139a.306.306,0,0,0,.241.176c.093-.028.148-.093.111-.176ZM5.3,12.7a.232.232,0,0,0,.2.232.213.213,0,0,0,.167-.25.232.232,0,0,0-.2-.232.213.213,0,0,0-.176.223ZM3.589,2.5a.352.352,0,0,0-.25-.176c-.093,0-.139,0-.093.13a.39.39,0,0,0,.241.176c.1,0,.139-.056.1-.139Zm-.538.825a.306.306,0,0,0-.223-.185c-.093,0-.139.056-.1.139a.334.334,0,0,0,.223.195c.093,0,.139-.065.1-.158ZM4.99.621A.223.223,0,0,0,4.795.427a.158.158,0,0,0-.176.167.232.232,0,0,0,.2.195A.148.148,0,0,0,4.99.612ZM4.915,5.889c-.083,0-.148.074-.139.2a.26.26,0,0,0,.158.26c.093,0,.148-.083.139-.213S5,5.889,4.915,5.889Zm1.039-.927a.2.2,0,0,0-.139-.223c-.083,0-.148.065-.158.176a.213.213,0,0,0,.139.223.158.158,0,0,0,.158-.176Zm0,2.717c-.083,0-.148.093-.13.223s.1.25.185.26.148-.093.13-.223-.13-.195-.213-.25Zm.26-5.917A.26.26,0,0,0,6,1.577a.111.111,0,0,0-.13.148.241.241,0,0,0,.213.176C6.214,1.92,6.269,1.855,6.214,1.762Zm-.686.927A.315.315,0,0,0,5.3,2.513a.1.1,0,0,0-.111.139.325.325,0,0,0,.223.176c.13.056.176,0,.148-.093ZM4.507,14.235a.176.176,0,0,0-.176-.2.232.232,0,0,0-.223.2.185.185,0,0,0,.185.2.223.223,0,0,0,.213-.2ZM8.217,1.957a.223.223,0,0,0-.185-.185.13.13,0,0,0-.148.148.223.223,0,0,0,.185.185.13.13,0,0,0,.167-.121ZM14.625,1.6c0-.111,0-.223-.093-.232s-.167.074-.195.195,0,.213.1.223a.177.177,0,0,0,.2-.158Zm-.566,8a.352.352,0,0,0-.213-.13c-.074,0-.093.056,0,.13a.315.315,0,0,0,.223.13A.1.1,0,0,0,14.059,9.6Zm1.206-6.621c0-.1,0-.195-.111-.2S15,2.828,15,2.93a.158.158,0,0,0,.111.195.236.236,0,0,0,.158-.176Zm-1.632,7.456c-.074,0-.093.083-.046.167a.241.241,0,0,0,.213.13c.083,0,.1-.083.056-.158a.287.287,0,0,0-.223-.139Zm7.641-3.821a.139.139,0,0,0,.065.167.121.121,0,0,0,.13-.1c0-.074,0-.148-.065-.158s-.093.019-.111.093Zm-7.512-.371c0,.111,0,.213.083.223s.139-.065.167-.176,0-.213-.093-.223-.121.065-.139.176Zm2.559-1.02c-.074,0-.139,0-.148.139a.167.167,0,0,0,.093.195.151.151,0,0,0,.139-.148c.009-.093.009-.176-.065-.185ZM15.877,8c0-.111,0-.241-.074-.25a.185.185,0,0,0-.158.213.224.224,0,0,0,.158.2c.065.009.111-.074.093-.185Zm-.51-1.669c-.065,0-.13.065-.158.176s0,.213.083.223.139-.074.158-.185.037-.223-.065-.232ZM13.512,4.887a.176.176,0,0,0-.121-.195.151.151,0,0,0-.139.148.167.167,0,0,0,.111.195c.046,0,.111-.074.121-.167Zm1.975,3.932c-.065,0-.083,0,0,.121a.315.315,0,0,0,.195.139c.065,0,.083,0,0-.111A.371.371,0,0,0,15.487,8.819Zm.807-6.927c0-.121,0-.232-.074-.25s-.158.083-.185.2,0,.213.083.232.1-.074.13-.185ZM15.775,4.08c-.065,0-.13,0-.148.139a.122.122,0,1,0,.1-.139Zm-3.8-1.641a.167.167,0,0,0-.139-.195.154.154,0,0,0-.158.148.185.185,0,0,0,.148.195.139.139,0,0,0,.1-.148Zm-.927,3.329c0-.111,0-.2-.1-.213s-.148.065-.167.176,0,.213.1.223.074-.065.093-.185ZM9.617,8.3a.248.248,0,0,0-.195-.223c-.083-.009-.111.074-.083.195a.3.3,0,0,0,.195.223C9.617,8.495,9.654,8.411,9.617,8.3Zm1.428-4.822a.2.2,0,0,0-.158-.185.121.121,0,0,0-.13.139.2.2,0,0,0,.148.185.13.13,0,0,0,.139-.139ZM10.118,10.9a.232.232,0,0,0,.213.185c.083,0,.13-.1.093-.213s-.13-.195-.213-.185-.111.148-.074.26Zm.927-9.756c0-.111,0-.213-.121-.223a.2.2,0,0,0-.195.185.186.186,0,0,0,.362.083Zm-.816,3.172a.213.213,0,0,0-.148-.195.134.134,0,0,0-.139.148.2.2,0,0,0,.148.195.13.13,0,0,0,.185-.1Zm1.632.25a.167.167,0,0,0-.13-.185c-.074,0-.139,0-.139.148a.2.2,0,0,0,.13.195c.121.056.185-.009.185-.111Zm1.011-3.218a.167.167,0,0,0-.111-.223.206.206,0,0,0-.185.185c-.019.111,0,.213.111.223s.213-.019.232-.139Zm-.167,2.383a.167.167,0,0,0-.13-.185c-.074,0-.139,0-.139.139a.167.167,0,0,0,.13.185.13.13,0,0,0,.139-.139Zm-.185,2.3a.185.185,0,0,0-.093-.223.2.2,0,0,0-.167.185c-.019.111,0,.213.093.223s.158-.074.176-.185Zm-.927,1.2a.315.315,0,0,0-.176-.232c-.065,0-.1.074-.083.195a.269.269,0,0,0,.176.223c.065.009.148-.065.121-.185Zm2.04-4.544a.185.185,0,0,0-.121-.2.178.178,0,0,0-.167.158.185.185,0,0,0,.13.2A.158.158,0,0,0,13.632,2.68Zm-2.55,10.952a.158.158,0,0,0-.176-.195c-.093,0-.13.13-.167.25s0,.213.121.195a.362.362,0,0,0,.232-.25ZM5.2,9.644c.093,0,.158-.111.139-.25a.278.278,0,0,0-.195-.269c-.093,0-.158.111-.139.25a.332.332,0,0,0,.2.269Zm4.535,2.875a.185.185,0,0,0,.121-.241.223.223,0,0,0-.213-.195c-.093,0-.148.121-.121.241a.213.213,0,0,0,.223.195ZM8.7,18.872c0,.1.056.176.13.167a.213.213,0,0,0,.148-.213c0-.1-.056-.176-.139-.167A.223.223,0,0,0,8.7,18.872ZM9.83,6.918a.3.3,0,0,0,.176.241c.074,0,.111-.074.083-.195a.287.287,0,0,0-.167-.241C9.849,6.714,9.8,6.816,9.83,6.918Zm-1.3,9.6a.167.167,0,0,0,.176.158.185.185,0,0,0,.148-.2.167.167,0,0,0-.176-.158A.185.185,0,0,0,8.532,16.516ZM9.4,19.892c0,.111,0,.195.083.176a.325.325,0,0,0,.185-.241c0-.111,0-.195-.093-.176A.3.3,0,0,0,9.4,19.892ZM9.543,15.1a.148.148,0,0,0,.158.167.26.26,0,0,0,.185-.213c0-.111-.056-.185-.148-.176a.25.25,0,0,0-.195.223Zm0,2.337a.139.139,0,0,0,.158.148.2.2,0,0,0,.139-.2.13.13,0,0,0-.158-.139.185.185,0,0,0-.121.195ZM6.974,19.113c0,.1.065.176.148.167a.185.185,0,0,0,.139-.2c0-.111-.074-.185-.158-.176s-.121.1-.111.213Zm.668-3.607a.2.2,0,0,0,.176-.2.158.158,0,0,0-.176-.176.213.213,0,0,0-.176.2.167.167,0,0,0,.195.176Zm-.185-2.968a.223.223,0,0,0,.213.213.195.195,0,0,0,.148-.241A.232.232,0,0,0,7.6,12.3a.2.2,0,0,0-.13.241Zm.278,5.175a.176.176,0,0,0,.185.158.167.167,0,0,0,.13-.195.158.158,0,0,0-.185-.158.167.167,0,0,0-.111.195Zm13.1-9.042c0,.111,0,.213.065.223s.121-.083.139-.195,0-.2-.074-.213S20.857,8.6,20.838,8.671ZM8.226,11.036a.222.222,0,0,0,.213.213c.093-.009.139-.111.111-.232s-.121-.223-.213-.213-.139.139-.111.269ZM12.863,7.41a.287.287,0,0,0,.176.213c.065,0,.1-.065.074-.176s-.1-.213-.167-.223-.111.111-.093.223Zm-.389,2.272c.074,0,.093-.074,0-.167a.278.278,0,0,0-.213-.158c-.074,0-.093.065-.056.158a.3.3,0,0,0,.26.2Zm-1.029,7.493a.223.223,0,0,0,.148-.2c0-.093,0-.148-.13-.13a.223.223,0,0,0-.158.195c-.009.139.046.195.13.176Zm1.3-8.43c.065,0,.093-.065,0-.158a.306.306,0,0,0-.195-.176c-.074,0-.093.065-.056.148a.306.306,0,0,0,.213.223ZM7.818,8.3c.083,0,.13-.083.1-.213a.273.273,0,0,0-.195-.232c-.083-.009-.13.083-.1.2a.278.278,0,0,0,.185.278Zm3,1.391c.083,0,.111-.083.074-.185a.3.3,0,0,0-.213-.195c-.074,0-.111.083-.074.185a.26.26,0,0,0,.25.232Zm1.159,8.346c0,.1,0,.167.1.139a.26.26,0,0,0,.158-.223c0-.1,0-.158-.1-.139a.278.278,0,0,0-.167.269Zm-.139-3.376c0-.111,0-.185-.121-.167a.3.3,0,0,0-.2.232c0,.1,0,.176.139.158a.287.287,0,0,0,.176-.176Zm-1.4,1.512a.13.13,0,0,0,.148.148.223.223,0,0,0,.158-.2.139.139,0,0,0-.148-.148.223.223,0,0,0-.167.25Zm.547-7.78a.3.3,0,0,0,.2.195c.074,0,.1-.065.065-.167s-.121-.195-.195-.2-.111.121-.083.223Zm-.612,10.071c0,.1,0,.167.111.148a.232.232,0,0,0,.158-.213c0-.1,0-.167-.121-.148a.241.241,0,0,0-.158.26Zm1.094-6.491a.194.194,0,0,0,.213.167.162.162,0,0,0,.1-.223.2.2,0,0,0-.213-.167.3.3,0,0,0-.111.3Zm-.473,7.419c0,.111,0,.195.074.167a.343.343,0,0,0,.185-.25c0-.111,0-.185-.083-.167s-.158.232-.185.352Zm.927-8.717a.241.241,0,0,0,.213.167c.083,0,.121-.1.074-.195a.241.241,0,0,0-.213-.158c-.074.111-.111.195-.065.287ZM1.772,11a.25.25,0,0,0,.195.278.232.232,0,0,0,.195-.26c0-.148-.083-.278-.185-.278s-.195.213-.195.362ZM2.931,9.144c0,.158.083.278.185.287s.176-.111.176-.26-.083-.278-.185-.287-.167.213-.167.362Zm0-3.413c0,.13.074.25.158.26s.158-.083.158-.213a.241.241,0,0,0-.148-.26.483.483,0,0,0-.167.315ZM1.679,14.077a.223.223,0,0,0,.213.213.176.176,0,0,0,.2-.185.223.223,0,0,0-.213-.213.2.2,0,1,0-.2.343Zm10.841,1.6c0-.093,0-.158-.13-.139a.26.26,0,0,0-.167.2c0,.093.046.158.13.139a.241.241,0,0,0,.167-.093Zm-10.071.983a.343.343,0,0,0,.26.195c.1,0,.139-.074.093-.185a.343.343,0,0,0-.26-.195c-.1.1-.148.185-.093.3Zm.64-1.308a.26.26,0,0,0,.241.195.137.137,0,0,0,.139-.185.25.25,0,0,0-.232-.195.166.166,0,0,0-.148.3Zm.093-2.513a.213.213,0,0,0,.195-.241.232.232,0,0,0-.2-.241.223.223,0,0,0-.195.241.232.232,0,0,0,.2.352ZM1.187,2.179a.408.408,0,0,0,.269.176c.093,0,.13,0,.083-.13a.417.417,0,0,0-.278-.167C1.169,2.049,1.132,2.105,1.187,2.179ZM.01.158a.315.315,0,0,0,.26.185C.381.343.446.287.418.195A.334.334,0,0,0,.158,0C.047,0-.027.074.01.167Zm1.855,7.3c0,.158.065.287.167.3s.176-.1.176-.25-.074-.278-.167-.287-.158.1-.158.25Zm-.223-6.2a.38.38,0,0,0,.269.167c.1,0,.148,0,.111-.13a.389.389,0,0,0-.269-.176C1.651,1.122,1.577,1.178,1.642,1.252Zm.371,3.107a.223.223,0,0,0,.167.213A.159.159,0,0,0,2.337,4.4a.223.223,0,0,0-.176-.213c-.083,0-.148.074-.148.185Zm.352-4A.269.269,0,0,0,2.6.556c.111,0,.176-.065.158-.158A.26.26,0,0,0,2.523.2.139.139,0,0,0,2.365.38Zm2.17,16.423a.25.25,0,0,0,.232.176c.1,0,.148-.083.121-.185a.278.278,0,0,0-.232-.185.151.151,0,0,0-.121.213ZM5.9,17.87a.2.2,0,0,0,.2.167c.083,0,.139-.093.111-.195a.213.213,0,0,0-.2-.167.163.163,0,0,0-.111.213Zm-.612,1.391a.2.2,0,0,0,.176.185.167.167,0,0,0,.121-.2.2.2,0,0,0-.176-.185C5.286,19.066,5.231,19.15,5.286,19.261Zm1.168-7.873c.093,0,.158-.111.139-.241s-.111-.241-.2-.241-.167.111-.148.25.065.241.167.232ZM4.888,3.728a.114.114,0,0,0,.121-.148.306.306,0,0,0-.213-.185c-.083,0-.13.056-.111.148a.278.278,0,0,0,.158.185ZM6.64,14.393a.26.26,0,0,0,.223-.223c0-.111,0-.2-.148-.195a.269.269,0,0,0-.232.223.158.158,0,0,0,.111.195ZM6.177,20.4c0,.121,0,.2.111.195a.232.232,0,0,0,.167-.223c0-.111,0-.195-.111-.185a.25.25,0,0,0-.213.213Zm1.168-17.3a.1.1,0,0,0,.121-.13A.241.241,0,0,0,7.271,2.8c-.093,0-.139,0-.121.13a.241.241,0,0,0,.195.176ZM3.988,17.944a.278.278,0,0,0,.232.185c.093,0,.13-.083.093-.185a.278.278,0,0,0-.232-.195A.132.132,0,0,0,3.988,17.944ZM3.432,19.3a.218.218,0,0,0,.195.2c.083,0,.13-.093.111-.2a.26.26,0,0,0-.2-.195C3.487,19.1,3.432,19.2,3.432,19.3Zm.584-8.133a.232.232,0,0,0,.195.26c.1,0,.185-.111.176-.25s-.1-.26-.2-.26-.139.111-.13.25Zm.408,9.348c0,.111,0,.2.111.195s.158-.093.167-.2-.046-.2-.121-.2-.111.093-.121.213Zm2.309-3.635a.167.167,0,0,0,.139-.195.2.2,0,0,0-.2-.167.158.158,0,0,0-.139.195.195.195,0,0,0,.241.167ZM5.286,15.459a.223.223,0,0,0,.213.185.176.176,0,0,0,.158-.195.195.195,0,0,0-.2-.185.176.176,0,0,0-.167.195ZM7.744,20.2c0,.111,0,.195.1.185s.158-.121.176-.232,0-.195-.1-.185a.278.278,0,0,0-.139.232Zm10.423-7.261c0,.111,0,.176.056.148a.343.343,0,0,0,.176-.232c0-.111,0-.185-.056-.158a.362.362,0,0,0-.139.241Zm-.306,3.487v.121a.51.51,0,0,0,.158-.25v-.121a.584.584,0,0,0-.121.25Zm.983-10.479c0,.083,0,.167.074.176s.121,0,.139-.13,0-.158-.074-.176-.083.074-.1.13Zm-1.233,9.821c0,.083,0,.13.046.093a.473.473,0,0,0,.167-.2c0-.083,0-.121-.046-.093a.473.473,0,0,0-.13.2Zm.807-1.855v.1a.343.343,0,0,0,.176-.185c0-.083,0-.139-.056-.111a.352.352,0,0,0-.083.185ZM19.345,4.1c.056,0,.121,0,.148-.139s0-.185-.074-.2-.13,0-.148.139.074.139.139.195ZM17.064,14.541a.371.371,0,0,0,.176-.195c0-.093,0-.139-.074-.121a.389.389,0,0,0-.176.2c.037.083.065.13.139.1Zm.529-2.634c0,.1.111.176.176.148a.175.175,0,0,0,.065-.223c-.037-.093-.1-.158-.167-.139a.167.167,0,0,0-.009.2Zm1.484-2.133a.6.6,0,0,0,.185,0q.083,0,0,0h-.195q-.009-.037.074-.009ZM17.37,15.06c0,.074,0,.121.056.093a.427.427,0,0,0,.176-.185c0-.083,0-.121-.056-.1a.454.454,0,0,0-.111.185Zm.751-4.971a.427.427,0,0,0-.2-.056c-.065,0-.065,0,0,.074a.427.427,0,0,0,.2.056c.148-.019.148-.056.065-.083Zm.241-1.484c.056,0,.111-.083.139-.2s0-.232-.065-.241-.13.083-.158.2a.207.207,0,0,0,.148.232Zm-.334,2.189a.074.074,0,0,0,0-.13.25.25,0,0,0-.2-.074c-.065,0-.074.065,0,.13a.2.2,0,0,0,.269.065Zm2.263-.927h.185q-.061.016-.121.037Zm-.445,4v.074a.705.705,0,0,0,.167-.167v-.065a.389.389,0,0,0-.1.195Zm.742-9.385c.056,0,.121,0,.139-.121s0-.195-.065-.213-.111,0-.139.13a.218.218,0,0,0,.13.241Zm-.927,8.875v.1a.473.473,0,0,0,.167-.185c0-.083,0-.13,0-.1a.371.371,0,0,0-.1.223ZM19.2,9.988a.769.769,0,0,0,.2,0h0a.769.769,0,0,0-.2,0Zm.835,4.9v.093a.705.705,0,0,0,.139-.223c0-.083,0-.121,0-.083a.658.658,0,0,0-.121.213Zm-.111-.454v.065a.593.593,0,0,0,.158-.176v-.065a.492.492,0,0,0-.139.176Zm-3.264,2.717v.139a.631.631,0,0,0,.167-.26c0-.111,0-.167,0-.13a.4.4,0,0,0-.148.25Zm2.717-6.677c.056,0,.065-.065,0-.111a.278.278,0,0,0-.195,0c-.056,0-.065.056,0,.093a.241.241,0,0,0,.213.019Zm-.658,4.006v.083a.473.473,0,0,0,.167-.185v-.083a.473.473,0,0,0-.148.185Zm.872-1.855a.417.417,0,0,0,.167-.232v-.167a.445.445,0,0,0-.167.241c-.065.093-.037.158.019.139Zm-.547-1.168a.14.14,0,0,0,.158.139c.065-.019.083-.121.056-.213s-.1-.139-.158-.121S19.011,11.342,19.039,11.453Zm0,4.229v.111a.594.594,0,0,0,.148-.241v-.1a.556.556,0,0,0-.158.213Zm-.185-.566V15.2A.575.575,0,0,0,19.011,15V14.93a.473.473,0,0,0-.167.167ZM16.628,3.394a.167.167,0,0,0,.158-.148c.019-.093,0-.195-.093-.213s-.139.056-.158.158a.167.167,0,0,0,.093.2Zm1.437.325c.065,0,.13,0,.158-.148a.176.176,0,0,0-.083-.2c-.065,0-.139,0-.158.148s.019.185.083.2Zm-3.57,9.134c0,.121.065.2.148.176a.223.223,0,0,0,.139-.25.163.163,0,0,0-.185-.167C14.523,12.631,14.476,12.742,14.495,12.853Zm-.992,4.73c0,.093,0,.158.083.13a.325.325,0,0,0,.167-.223c0-.1,0-.158-.083-.13A.306.306,0,0,0,13.5,17.583Zm1.345-12.3a.151.151,0,0,0,.139-.148c.009-.093,0-.185-.1-.195s-.13.056-.139.148a.158.158,0,0,0,.1.195Zm.074,6.093a.223.223,0,0,0,.213.13c.074,0,.1-.1.065-.185a.213.213,0,0,0-.213-.121C14.912,11.212,14.884,11.3,14.921,11.379Zm-.927,7.066c0,.121,0,.195.065.158a.445.445,0,0,0,.176-.26c0-.111,0-.176-.065-.148a.408.408,0,0,0-.2.25Zm-.714-6.723a.2.2,0,0,0,.213.148.139.139,0,0,0,.083-.2.232.232,0,0,0-.223-.148c-.1.019-.139.1-.1.2ZM12.529,19c0,.121,0,.195.074.176a.436.436,0,0,0,.176-.26c0-.121,0-.185-.074-.158a.362.362,0,0,0-.2.241Zm.575-2.235a.25.25,0,0,0,.158-.2c0-.093,0-.148-.1-.121a.241.241,0,0,0-.167.2c-.046.083.009.148.083.121Zm1.474-.612c0,.083,0,.139.093.111a.343.343,0,0,0,.167-.2c0-.083,0-.139-.093-.111a.269.269,0,0,0-.185.2Zm-1.085-1.632a.315.315,0,0,0,.195-.223c0-.111,0-.185-.111-.167a.352.352,0,0,0-.195.241c-.046.1,0,.176.083.148ZM14.272,8.8a.306.306,0,0,0-.195-.167c-.065,0-.093.056-.046.13a.278.278,0,0,0,.2.158c.037.009.056-.046.009-.121Zm.213-.927c.065,0,.093-.056.065-.167s-.056-.232-.121-.241-.139.083-.121.195a.287.287,0,0,0,.148.25Zm-.417,7.632a.288.288,0,0,0,.176-.2c0-.093,0-.148-.1-.13a.269.269,0,0,0-.176.2c-.046.13,0,.185.074.167Zm3.107-7.159c.056,0,.065-.056.1-.185s0-.241-.065-.25-.13.083-.167.213a.176.176,0,0,0,.1.26Zm-.306,1.938c.065,0,.074-.056,0-.1a.315.315,0,0,0-.213-.074c-.065,0-.074.056,0,.1a.3.3,0,0,0,.185.111Zm-.8,5.3c0,.083,0,.13.074.1a.352.352,0,0,0,.167-.195c0-.083,0-.13-.074-.1a.325.325,0,0,0-.195.232ZM17,13.307c0-.1,0-.176-.074-.158a.417.417,0,0,0-.185.25c0,.1,0,.167.074.148a.362.362,0,0,0,.158-.241Zm-.825-.927a.156.156,0,0,0,.185.158.2.2,0,0,0,.083-.241c-.028-.111-.111-.167-.185-.148a.186.186,0,0,0-.111.232Zm.2,4.025c0,.093,0,.148.065.111a.454.454,0,0,0,.167-.213c0-.093,0-.139-.056-.1a.427.427,0,0,0-.2.2Zm-.992,1.419c0,.111,0,.176.056.148a.473.473,0,0,0,.176-.26c0-.111,0-.176-.056-.139a.445.445,0,0,0-.2.25ZM15,17.017c0,.093,0,.148.074.121a.39.39,0,0,0,.167-.223c0-.093,0-.139-.074-.111a.362.362,0,0,0-.195.213Zm.13-3.1c0,.111,0,.176.083.148a.315.315,0,0,0,.195-.232c0-.111,0-.176-.083-.158a.334.334,0,0,0-.223.241ZM15.487,9.6a.371.371,0,0,0-.213-.111c-.065,0-.074.046,0,.111a.352.352,0,0,0,.213.1C15.543,9.7,15.561,9.654,15.487,9.6Zm-.121.927c.074,0,.083-.074,0-.139a.278.278,0,0,0-.223-.1c-.065,0-.083.065,0,.13a.26.26,0,0,0,.241.111ZM12.8,13.484a.269.269,0,0,0,.2-.26.179.179,0,0,0-.195-.176.212.212,0,0,0-.121.25c.019.121.019.213.13.185ZM15.58,14.93c0,.093,0,.148.083.121a.306.306,0,0,0,.176-.2c0-.083,0-.139-.083-.121a.325.325,0,0,0-.2.2Z" transform="translate(-2.193 -0.465)"/></g></g></g><path class="e" d="M5.082.462A6.862,6.862,0,0,0,.13.462L0,.509S.306,7.751.306,7.77c.223.621,4.535.473,4.59,0L5.212.509Z" transform="translate(15.502 4.563)"/><g class="ay" transform="translate(15.503 4.563)"><path class="az" d="M6.835,2.207a.436.436,0,0,1-.056-.185.158.158,0,0,1,0-.065.371.371,0,0,1,0,.2Zm-.64-.4h0a.223.223,0,0,0-.13-.158h0a.13.13,0,0,0,0,.056.278.278,0,0,0,.121.111h0Zm.612-.658A.2.2,0,0,0,6.751,1h0a.223.223,0,0,0,.083.158ZM6,.816a.241.241,0,0,0-.139-.13H5.815a.223.223,0,0,0,.148.139h0ZM5.592,1.1A.232.232,0,0,0,5.434.955h0A.269.269,0,0,0,5.6,1.1h0s-.019.028-.009,0Zm.927.38a.241.241,0,0,0-.111-.167h0A.269.269,0,0,0,6.519,1.484ZM5.379.315A.25.25,0,0,0,5.212.232h0a.241.241,0,0,0,.13.056h0Zm1,.213A.148.148,0,0,0,6.26.417h0a.213.213,0,0,0,.13.121h0Zm-1.53,0a.111.111,0,0,0,.074,0A.185.185,0,0,0,4.767.436H4.72L4.813.5H4.9ZM6.7.195h.046a.074.074,0,0,0,0-.056.1.1,0,0,0-.1-.093.176.176,0,0,0-.074,0,.139.139,0,0,0,.111.1ZM5.74.046h0A.223.223,0,0,0,5.6,0h.121Zm1.066,4.1c0,.093,0,.167.046.158s0,0,0-.093V4.145a.38.38,0,0,0,0-.158.556.556,0,0,0-.046.195Zm-.556.139c.046,0,.074-.065.074-.139s0-.139-.074-.139-.083.065-.083.139S6.167,4.284,6.25,4.284Zm.556-1.243a.6.6,0,0,0,0,.2s0,0,0-.111a.529.529,0,0,0,0-.2s0,.065,0,.148ZM6.26,2.977h0a.139.139,0,0,0,0-.093.158.158,0,0,0-.111-.167h0a.111.111,0,0,0-.009.111c0,.074.046.158.1.167Zm-.538.612a.1.1,0,0,0,.065,0,.167.167,0,0,0,0-.1.158.158,0,0,0-.139-.167.1.1,0,0,0-.065,0,.148.148,0,0,0,0,.111.158.158,0,0,0,.13.158Zm.927,0a.25.25,0,0,0,0-.139.13.13,0,0,0,0,.093q0,.125,0,.139a.176.176,0,0,0,.019-.074ZM5.722,2.253a.056.056,0,0,0,0-.065.2.2,0,0,0-.176-.158.065.065,0,0,0-.056,0,.111.111,0,0,0,0,.065.223.223,0,0,0,.158.167Zm.927.2a.213.213,0,0,0-.074-.148h0a.315.315,0,0,0,.074.167ZM6.8,6.389a.3.3,0,0,0,0-.139V6.139a.631.631,0,0,0-.056.185v.065Zm.056-1.326a.6.6,0,0,0,0,.2v.111a.529.529,0,0,0,0-.2c.019-.065.009-.111-.009-.093ZM6.232,5.6a.284.284,0,0,0,.093-.167V5.351h0s-.1.093-.1.167a.111.111,0,0,0,0,.083h0Zm-.6.723a.185.185,0,0,0,.148-.158.056.056,0,0,0,0-.065H5.7a.2.2,0,0,0-.158.158.111.111,0,0,0,0,.065.083.083,0,0,0,.056,0Zm1.02-.454h0a.232.232,0,0,0-.093.167h0a.278.278,0,0,0,.083-.148Zm-.927-.853a.148.148,0,0,0,.13-.158.2.2,0,0,0,0-.111.1.1,0,0,0-.074,0,.158.158,0,0,0-.13.158.148.148,0,0,0,0,.111.1.1,0,0,0,.065,0Zm.927-.269a.185.185,0,0,0,0-.1.185.185,0,0,0,0,.139c0,.046,0,.083,0,.093a.2.2,0,0,0,.019-.111Zm.139,3.468a.065.065,0,0,0-.074-.074.139.139,0,0,0-.111.1s0,0,0,0a.1.1,0,0,0,.074,0,.1.1,0,0,0,.13-.009ZM5.61,8.309a.454.454,0,0,0,.148,0H5.694a.232.232,0,0,0-.121,0ZM6.7,7.382h0a.176.176,0,0,0,.074-.148h0a.232.232,0,0,0-.083.158Zm-.862.306a.2.2,0,0,0,.13-.139h0a.306.306,0,0,0-.158.148H5.87Zm-.649.454a.169.169,0,0,0,.158-.093h0a.482.482,0,0,0-.139.056Zm1.039-.185a.148.148,0,0,0,.121-.13h0a.2.2,0,0,0-.13.13h0Zm-.816-.538a.223.223,0,0,0,.158-.167H5.508a.223.223,0,0,0-.158.176h.065Zm.927-.334h0a.26.26,0,0,0,.1-.158h0a.25.25,0,0,0-.111.158h0ZM6.019,6.77a.26.26,0,0,0,.13-.167h0a.25.25,0,0,0-.139.167h0Zm-1.085-5.2a.111.111,0,0,0,.083,0,.13.13,0,0,0,0-.056.2.2,0,0,0-.056-.093.2.2,0,0,0-.121-.056H4.794a.084.084,0,0,0-.074.083.2.2,0,0,0,.111.121h.1ZM3.57.464H3.431c-.093,0-.139,0-.13.056a.213.213,0,0,0,.13,0A.213.213,0,0,0,3.617.454Zm-.862.51c.093,0,.167-.056.167-.093a.241.241,0,0,0-.13,0c-.083,0-.158,0-.158.093a.2.2,0,0,0,.121,0Zm1.456,0a.176.176,0,0,0,.121,0h0A.257.257,0,0,0,4.108.881.176.176,0,0,0,4,.881H4a.176.176,0,0,0,.167.093ZM2.8.185h0Zm1.27,0h0Zm.64-.167a.473.473,0,0,0-.2,0h-.13a.6.6,0,0,0,.2,0c.139.028.195.028.176.028ZM3.6.019H3.264a.334.334,0,0,0,.167,0,1.48,1.48,0,0,0,.213.028Zm1.41,4.349A.158.158,0,0,0,5.156,4.2a.148.148,0,0,0-.148-.158.167.167,0,0,0-.148.093.176.176,0,0,0,0,.065.13.13,0,0,0,0,.065A.176.176,0,0,0,5.008,4.368ZM3.617,4.2a.185.185,0,1,0-.185.167.176.176,0,0,0,.232-.185ZM5,2.9a.148.148,0,0,0,.1,0,.139.139,0,0,0,0-.093.176.176,0,0,0-.176-.167.121.121,0,0,0-.093,0,.111.111,0,0,0,0,.093A.185.185,0,0,0,5,2.912ZM3.617,2.828a.148.148,0,0,0,0-.1.183.183,0,0,0-.362,0,.148.148,0,0,0,.1.1.167.167,0,0,0,.13.056A.186.186,0,0,0,3.617,2.828Zm-.927.807a.176.176,0,0,0,.185-.167.2.2,0,0,0-.046-.111.185.185,0,0,0-.13,0,.176.176,0,0,0-.176.167.121.121,0,0,0,.046.111.139.139,0,0,0,.121,0Zm1.614,0a.158.158,0,0,0,.13,0,.158.158,0,0,0,0-.111.176.176,0,0,0-.185-.167.223.223,0,0,0-.13,0,.176.176,0,0,0,0,.111.167.167,0,0,0,.176.167ZM2.717,2.189a.173.173,0,0,0,.176-.148.1.1,0,0,0,0-.074.186.186,0,0,0-.13,0,.173.173,0,0,0-.176.148.121.121,0,0,0,0,.074.176.176,0,0,0,.121.046Zm1.576,0A.139.139,0,0,0,4.4,2.142a.093.093,0,0,0,0-.074A.2.2,0,0,0,4.284,1.9a.2.2,0,0,0-.13,0,.1.1,0,0,0,0,.074.2.2,0,0,0,.185.148Zm-.64-.714c0-.056-.074-.111-.167-.111a.167.167,0,0,0-.167.111.083.083,0,0,0,0,.056.185.185,0,0,0,.139.056.2.2,0,0,0,.176-.158Zm1.28,5.61a.158.158,0,0,0,.111-.046.222.222,0,0,0,.056-.1.065.065,0,0,0,0-.056H5.008a.185.185,0,0,0-.176.13h.121ZM3.663,7.02a.083.083,0,0,0,0-.056.176.176,0,0,0-.139-.056.185.185,0,0,0-.139.056.083.083,0,0,0,0,.056.158.158,0,0,0,.167.111c.019-.046.093-.093.093-.158ZM5.036,5.833a.176.176,0,0,0,.176-.223.139.139,0,0,0,0-.093.148.148,0,0,0-.111,0H5.036a.2.2,0,0,0-.1.158.121.121,0,0,0,.083.121h.065Zm-1.354-.1a.148.148,0,0,0,0-.1.185.185,0,0,0-.139-.056.167.167,0,0,0-.185.037.148.148,0,0,0-.046.1.177.177,0,0,0,.352-.028Zm-.927.807a.176.176,0,0,0,.121,0,.1.1,0,0,0,0-.074c0-.074-.083-.139-.185-.148a.176.176,0,0,0-.121,0,.148.148,0,0,0,0,.083.167.167,0,0,0,.176.139Zm1.53,0A.176.176,0,0,0,4.461,6.4a.111.111,0,0,0,0-.083.158.158,0,0,0-.121,0,.2.2,0,0,0-.185.148.083.083,0,0,0,0,.074.158.158,0,0,0,.121,0ZM2.726,5.147a.176.176,0,0,0,.121,0,.167.167,0,0,0,.046-.111.185.185,0,0,0-.306-.121.139.139,0,0,0-.046.111.176.176,0,0,0,.176.167Zm1.586,0A.176.176,0,0,0,4.5,4.98a.167.167,0,0,0,0-.111.2.2,0,0,0-.13-.046.167.167,0,0,0-.176.167.158.158,0,0,0,0,.111.223.223,0,0,0,.13,0ZM4.59,8.383h0Zm-1.233.009h0Zm1.456-.436a.167.167,0,0,0,.148-.093H4.869a.176.176,0,0,0-.158.074H4.8Zm-1.15,0a.278.278,0,0,0-.139,0,.176.176,0,0,0-.139.056h.139c.093,0,.093-.083.093-.111Zm-.733.315h0Zm1.2,0h0ZM2.838,7.623a.2.2,0,0,0,.121,0h0c0-.046-.074-.093-.167-.1a.158.158,0,0,0-.121,0,.25.25,0,0,0,.158.093Zm1.382,0c.093,0,.158,0,.167-.093h0a.148.148,0,0,0-.121,0,.165.165,0,0,0-.167.1h0a.176.176,0,0,0,.111,0ZM.844,1.873a.3.3,0,0,0,.13-.111V1.706h0a.2.2,0,0,0-.13.158h0ZM2.189.584h.056A.213.213,0,0,0,2.337.538h0a.139.139,0,0,0-.1,0,.181.181,0,0,0-.158.093.139.139,0,0,0,.074,0ZM1.02.881h0A.2.2,0,0,0,1.159.733h0a.223.223,0,0,0-.148.139Zm-.529.658a.25.25,0,0,0,.121-.167h0a.223.223,0,0,0-.1.158h0Zm.992-.352A.223.223,0,0,0,1.6.974H1.5a.213.213,0,0,0-.158.167h0ZM.677.6a.223.223,0,0,0,.13-.13H.76A.13.13,0,0,0,.64.6H.677ZM1.66.352h0A.241.241,0,0,0,1.79.3h0a.213.213,0,0,0-.13.065ZM.287,1.085h0a.185.185,0,0,0-.074.158h0a.278.278,0,0,0,.028-.213ZM2.43.046a.26.26,0,0,0,.13,0H2.43a.445.445,0,0,0-.195,0H2.43Zm-1.187,0h.121a.539.539,0,0,0-.148,0h.028ZM.232.167a.158.158,0,0,0,.111-.1h0a.111.111,0,0,0-.074,0,.1.1,0,0,0-.1.093A.065.065,0,0,0,.232.232ZM1.92,2.847A.2.2,0,0,0,2.1,2.671V2.615a.148.148,0,0,0-.139-.074.185.185,0,0,0-.167.167.111.111,0,0,0,0,.093.111.111,0,0,0,.093,0ZM.7,2.977A.176.176,0,0,0,.816,2.81a.111.111,0,0,0,0-.083h0a.2.2,0,0,0-.093.167.139.139,0,0,0,0,.093h0Zm-.343.547a.222.222,0,0,0,0-.1.232.232,0,0,0,0,.148.176.176,0,0,0,0,.093.232.232,0,0,0,0-.1Zm.927.065a.158.158,0,0,0,.13-.158.2.2,0,0,0,0-.111.13.13,0,0,0-.083,0,.158.158,0,0,0-.121.167.13.13,0,0,0,0,.1.083.083,0,0,0,.065,0ZM.436,2.328V2.272a.232.232,0,0,0-.074.167A.26.26,0,0,0,.4,2.365Zm.881-.093a.223.223,0,0,0,.158-.167V2c0-.009,0,0-.074,0a.2.2,0,0,0-.158.158.111.111,0,0,0,0,.065.065.065,0,0,0,.056,0ZM.111,3.283a.408.408,0,0,0,0-.2V2.968a.575.575,0,0,0,0,.2C.093,3.255.093,3.3.111,3.283ZM1.966,1.558A.352.352,0,0,0,2.087,1.5h0a.083.083,0,0,0,0-.065.148.148,0,0,0-.1,0,.213.213,0,0,0-.111.056.13.13,0,0,0-.046.093h0a.111.111,0,0,0,.093,0ZM.111,2.022a.13.13,0,0,0,0-.065h0a.389.389,0,0,0-.046.195h0a.334.334,0,0,0,.111-.13ZM1.892,5.787a.139.139,0,0,0,.13-.074V5.657a.185.185,0,0,0-.185-.167.13.13,0,0,0-.13.13.176.176,0,0,0,.167.167ZM.686,5.62a.111.111,0,0,0,0-.083.139.139,0,0,0-.139-.148h0a.158.158,0,0,0,0,.083c0,.083.046.158.093.167Zm-.352.389A.287.287,0,0,0,.25,5.852a.223.223,0,0,0,.074.167Zm.927.343a.056.056,0,0,0,.056,0V6.287a.223.223,0,0,0-.176-.167.065.065,0,0,0-.056,0,.13.13,0,0,0,0,.065.2.2,0,0,0,.158.158ZM.232,4.906h0a.2.2,0,0,0,0-.1.2.2,0,0,0-.046-.139.25.25,0,0,0,0,.1.223.223,0,0,0,0,.139Zm.927.13a.1.1,0,0,0,.074,0,.2.2,0,0,0,0-.111.158.158,0,0,0-.139-.158.083.083,0,0,0-.065,0,.148.148,0,0,0,0,.111.158.158,0,0,0,.121.158Zm-1.113.25a.408.408,0,0,0,0-.2v.111a.575.575,0,0,0,0,.2s.111-.019.111-.111ZM1.8,4.359h.056a.148.148,0,0,0,.1-.148.158.158,0,0,0-.1-.148H1.8a.148.148,0,0,0-.158.158.158.158,0,0,0,.158.167Zm-1.2,0a.046.046,0,0,0,.046,0,.139.139,0,0,0,0-.1c0-.074-.046-.139-.093-.139s-.074.065-.074.139,0,.139.083.139Zm-.6,0V4.266a.293.293,0,0,1,.111.074ZM2.207,8.393h.325a.556.556,0,0,0-.195,0C2.244,8.328,2.189,8.393,2.207,8.393Zm-.844,0a.343.343,0,0,0-.139-.046h0a.269.269,0,0,0,.13,0ZM2.207,8c.083,0,.093,0,.083-.046H2.04a.167.167,0,0,0,.158.093ZM1.15,7.743A.315.315,0,0,0,1,7.6H1a.2.2,0,0,0,.139.121h0Zm-.417.278h0A.223.223,0,0,0,.575,7.9h0A.158.158,0,0,0,.7,8ZM1.781,8.2a.343.343,0,0,0-.13-.056H1.6a.26.26,0,0,0,.148.074ZM.575,7.048a.278.278,0,0,0-.1-.158h0a.26.26,0,0,0,.1.158ZM1.6,7.382a.232.232,0,0,0-.158-.148h0a.223.223,0,0,0,.158.139h0S1.6,7.41,1.6,7.382Zm-1.27.927a.139.139,0,0,0-.13-.1.065.065,0,0,0-.065.074.1.1,0,0,0,.1.093A.532.532,0,0,0,.325,8.3ZM.241,7.382h0a.315.315,0,0,0-.083-.158h0a.176.176,0,0,0,.074.148ZM2.1,7.048a.111.111,0,0,0,.093,0s0,0,0-.056A.176.176,0,0,0,2,6.862H1.92c-.019,0,0,0,0,.056a.13.13,0,0,0,0,.056.185.185,0,0,0,.139.093Zm-1.122-.3h0a.25.25,0,0,0-.139-.167h0a.232.232,0,0,0,.13.167h0Zm-.76-.4a.825.825,0,0,0,0-.213.185.185,0,0,0,0,.074.315.315,0,0,0,.056.2.139.139,0,0,0-.093-.074Z" transform="translate(-0.927 -0.113)"/></g></g><path class="ba" d="M1.461,0S-1.23,2.731.693,5.377,4.232,10.1,4.232,10.1l4.91,1.038a64.09,64.09,0,0,0-5.377-7.3A11.071,11.071,0,0,1,1.461,0Z" transform="matrix(1, 0.017, -0.017, 1, 83.313, 113.784)"/><path class="bb" d="M7.256,14.307S1.5,8.546.727,5.473C-.425,2.4-.041,1.248.727.48S3.032.1,3.032.1s3.841,8.45,5.761,11.139S7.256,14.307,7.256,14.307Z" transform="matrix(1, 0.017, -0.017, 1, 84.12, 109.476)"/><path class="bc" d="M0,.715A23.157,23.157,0,0,0,1.92,8.781a21.738,21.738,0,0,0,5.761,7.682l1.152-3.457s-3.841-7.3-4.993-9.6S.768-1.205,0,.715" transform="matrix(1, 0.017, -0.017, 1, 85.177, 105.963)"/><path class="an" d="M15.754,26.982s3.841,1.152,7.681-3.073S25.356,13.155,26.508,12a8.071,8.071,0,0,1,4.225-2.689c1.536-.384,3.457-2.689,1.536-3.457s-4.993-1.536-6.913.384-3.072,8.45-6.145,9.218c-2.688.768-5.377-.384-6.529-4.609S7.689,2.017,5.385.864C3.464-.288,1.544-.288.392.864S.776,3.937,3.08,5.089s5.761,6.145,5.761,8.066-4.609,6.53-4.609,6.53A20.929,20.929,0,0,0,15.754,26.982Z" transform="matrix(1, 0.017, -0.017, 1, 83.398, 104.086)"/><path class="bd" d="M34.963,69.925c-.325,0-.654,0-.978-.013a13.323,13.323,0,0,0-20.656-7.482A35.3,35.3,0,0,1,3.62,50.473,34.952,34.952,0,0,1,34.963,0,34.972,34.972,0,0,1,48.572,67.178,34.744,34.744,0,0,1,34.963,69.925Z" transform="translate(153.426 1.796)"/><circle class="bd" cx="8.879" cy="8.879" r="8.879" transform="translate(165.635 66.172)"/><circle class="bd" cx="4.44" cy="4.44" r="4.44" transform="translate(150.097 76.161)"/><path class="be" d="M340.645,433.438s2.612,14.178-5.6,17.536-17.163-2.612-22.759-11.566-7.089-20.147-8.954-35.071l-7.835.746s0,27.236,7.089,48.5,20.147,30.594,36.564,29.1,23.132-20.147,22.759-39.176-8.581-38.056-17.163-39.176-8.954,1.119-13.059,0S340.645,433.438,340.645,433.438Z" transform="translate(-200.384 -274.114)"/><g transform="matrix(0.985, 0.174, -0.174, 0.985, 179.221, 12.755)"><path class="ae" d="M3.69,12.2A3.871,3.871,0,0,1,.415,6.589C2.861,1.735,8.318-.348,14.631.047,22.018.5,28.444,4.067,28.1,12.9c-.312,7.95-5.785,9.415-9.305,11.555a4.548,4.548,0,0,0-2.037,2.562,3.8,3.8,0,0,1-3.778,2.625h-.188A3.871,3.871,0,0,1,9.3,24.636c1.266-4.075,3.8-5.318,6.23-6.462,3.2-1.507,4.324-2.165,4.5-5.7.165-3.43-2.431-5.487-5.831-5.665a7.453,7.453,0,0,0-6.614,3.377,3.909,3.909,0,0,1-3.588,2.034ZM16.735,37.274c-.283,6.182-9.708,5.753-9.419-.422C7.6,30.6,17.018,31.033,16.735,37.274Z" transform="translate(0 0)"/></g></g></g></svg>